<svg width="779" height="714" viewBox="0 0 779 714" fill="none" xmlns="http://www.w3.org/2000/svg">
<g filter="url(#filter0_f_1908_87)">
<ellipse cx="181" cy="259.5" rx="244" ry="100.5" fill="#100896"/>
</g>
<circle cx="1" cy="224" r="8" fill="#C3C5F5" fill-opacity="0.2"/>
<circle cx="1" cy="260" r="8" fill="#C3C5F5" fill-opacity="0.2"/>
<circle cx="1" cy="296" r="8" fill="#C3C5F5" fill-opacity="0.2"/>
<circle cx="37" cy="224" r="8" fill="#C3C5F5" fill-opacity="0.2"/>
<circle cx="37" cy="260" r="8" fill="#C3C5F5" fill-opacity="0.2"/>
<circle cx="37" cy="296" r="8" fill="#C3C5F5" fill-opacity="0.2"/>
<circle cx="73" cy="224" r="8" fill="#C3C5F5" fill-opacity="0.2"/>
<circle cx="73" cy="260" r="8" fill="#C3C5F5" fill-opacity="0.2"/>
<circle cx="73" cy="296" r="8" fill="#C3C5F5" fill-opacity="0.2"/>
<circle cx="109" cy="224" r="8" fill="#C3C5F5" fill-opacity="0.2"/>
<circle cx="109" cy="260" r="8" fill="#C3C5F5" fill-opacity="0.2"/>
<circle cx="109" cy="296" r="8" fill="#C3C5F5" fill-opacity="0.2"/>
<circle cx="145" cy="224" r="8" fill="#C3C5F5" fill-opacity="0.2"/>
<circle cx="145" cy="260" r="8" fill="#C3C5F5" fill-opacity="0.2"/>
<circle cx="145" cy="296" r="8" fill="#C3C5F5" fill-opacity="0.2"/>
<circle cx="181" cy="224" r="8" fill="#C3C5F5" fill-opacity="0.2"/>
<circle cx="181" cy="260" r="8" fill="#C3C5F5" fill-opacity="0.2"/>
<circle cx="181" cy="296" r="8" fill="#C3C5F5" fill-opacity="0.2"/>
<circle cx="217" cy="224" r="8" fill="#C3C5F5" fill-opacity="0.2"/>
<circle cx="217" cy="260" r="8" fill="#C3C5F5" fill-opacity="0.2"/>
<circle cx="217" cy="296" r="8" fill="#C3C5F5" fill-opacity="0.2"/>
<circle cx="253" cy="224" r="8" fill="#C3C5F5" fill-opacity="0.2"/>
<circle cx="253" cy="260" r="8" fill="#C3C5F5" fill-opacity="0.2"/>
<circle cx="253" cy="296" r="8" fill="#C3C5F5" fill-opacity="0.2"/>
<circle cx="289" cy="224" r="8" fill="#C3C5F5" fill-opacity="0.2"/>
<circle cx="289" cy="260" r="8" fill="#C3C5F5" fill-opacity="0.2"/>
<circle cx="289" cy="296" r="8" fill="#C3C5F5" fill-opacity="0.2"/>
<circle cx="325" cy="224" r="8" fill="#C3C5F5" fill-opacity="0.2"/>
<circle cx="325" cy="260" r="8" fill="#C3C5F5" fill-opacity="0.2"/>
<circle cx="325" cy="296" r="8" fill="#C3C5F5" fill-opacity="0.2"/>
<defs>
<filter id="filter0_f_1908_87" x="-417" y="-195" width="1196" height="909" filterUnits="userSpaceOnUse" color-interpolation-filters="sRGB">
<feFlood flood-opacity="0" result="BackgroundImageFix"/>
<feBlend mode="normal" in="SourceGraphic" in2="BackgroundImageFix" result="shape"/>
<feGaussianBlur stdDeviation="177" result="effect1_foregroundBlur_1908_87"/>
</filter>
</defs>
</svg>
