<svg width="340" height="88" viewBox="0 0 340 88" fill="none" xmlns="http://www.w3.org/2000/svg">
<circle cx="8" cy="8" r="8" fill="#888CEE" fill-opacity="0.2"/>
<circle cx="8" cy="44" r="8" fill="#888CEE" fill-opacity="0.2"/>
<circle cx="8" cy="80" r="8" fill="#888CEE" fill-opacity="0.2"/>
<circle cx="44" cy="8" r="8" fill="#888CEE" fill-opacity="0.2"/>
<circle cx="44" cy="44" r="8" fill="#888CEE" fill-opacity="0.2"/>
<circle cx="44" cy="80" r="8" fill="#888CEE" fill-opacity="0.2"/>
<circle cx="80" cy="8" r="8" fill="#888CEE" fill-opacity="0.2"/>
<circle cx="80" cy="44" r="8" fill="#888CEE" fill-opacity="0.2"/>
<circle cx="80" cy="80" r="8" fill="#888CEE" fill-opacity="0.2"/>
<circle cx="116" cy="8" r="8" fill="#888CEE" fill-opacity="0.2"/>
<circle cx="116" cy="44" r="8" fill="#888CEE" fill-opacity="0.2"/>
<circle cx="116" cy="80" r="8" fill="#888CEE" fill-opacity="0.2"/>
<circle cx="152" cy="8" r="8" fill="#888CEE" fill-opacity="0.2"/>
<circle cx="152" cy="44" r="8" fill="#888CEE" fill-opacity="0.2"/>
<circle cx="152" cy="80" r="8" fill="#888CEE" fill-opacity="0.2"/>
<circle cx="188" cy="8" r="8" fill="#888CEE" fill-opacity="0.2"/>
<circle cx="188" cy="44" r="8" fill="#888CEE" fill-opacity="0.2"/>
<circle cx="188" cy="80" r="8" fill="#888CEE" fill-opacity="0.2"/>
<circle cx="224" cy="8" r="8" fill="#888CEE" fill-opacity="0.2"/>
<circle cx="224" cy="44" r="8" fill="#888CEE" fill-opacity="0.2"/>
<circle cx="224" cy="80" r="8" fill="#888CEE" fill-opacity="0.2"/>
<circle cx="260" cy="8" r="8" fill="#888CEE" fill-opacity="0.2"/>
<circle cx="260" cy="44" r="8" fill="#888CEE" fill-opacity="0.2"/>
<circle cx="260" cy="80" r="8" fill="#888CEE" fill-opacity="0.2"/>
<circle cx="296" cy="8" r="8" fill="#888CEE" fill-opacity="0.2"/>
<circle cx="296" cy="44" r="8" fill="#888CEE" fill-opacity="0.2"/>
<circle cx="296" cy="80" r="8" fill="#888CEE" fill-opacity="0.2"/>
<circle cx="332" cy="8" r="8" fill="#888CEE" fill-opacity="0.2"/>
<circle cx="332" cy="44" r="8" fill="#888CEE" fill-opacity="0.2"/>
<circle cx="332" cy="80" r="8" fill="#888CEE" fill-opacity="0.2"/>
</svg>
