<svg width="127" height="66" viewBox="0 0 127 66" fill="none" xmlns="http://www.w3.org/2000/svg">
<path d="M8.61044 66H0.300781L24.3349 0.54541H32.5167L48.5 40.4318H42.5L28.6815 10.9005H28.1701L8.61044 66ZM11.6786 40.4318H48.5H42.5H11.6786Z" fill="white"/>
<path d="M24.5 66L63.0387 7.57666H27.3711V0.54541H72.4989V6.29825L39.5 58.9687H72.4989V66H24.5Z" fill="white"/>
<path d="M37 62.075L71 0.5H83L99 66H91L75 11.5L37 62.075Z" fill="white"/>
<path d="M91 66L79.7188 0.54541H101.835C106.949 0.54541 111.146 1.41899 114.428 3.16615C117.709 4.892 120.138 7.26771 121.714 10.2933C123.291 13.3188 124.08 16.7599 124.08 20.6164C124.08 24.473 123.291 27.8927 121.714 30.8757C120.138 33.8586 117.719 36.2024 114.46 37.9069C111.2 39.5902 107.034 40.4318 101.963 40.4318H84.0653V33.2727H101.707C105.202 33.2727 108.014 32.7613 110.145 31.7386C112.297 30.7159 113.852 29.267 114.811 27.392C115.791 25.4957 116.281 23.2372 116.281 20.6164C116.281 17.9957 115.791 15.7052 114.811 13.745C113.831 11.7848 112.265 10.272 110.113 9.20663C107.961 8.11998 105.116 7.57666 101.58 7.57666H87.6449L99 66H91ZM110.528 36.5965L126.636 66H117.432L100 37L110.528 36.5965Z" fill="white"/>
</svg>
