<svg width="106" height="66" viewBox="0 0 106 66" fill="none" xmlns="http://www.w3.org/2000/svg">
<path d="M8.30966 65.4545H0L24.0341 0H32.2159L44.5 27L40 33.5L28.3807 10.3551H27.8693L8.30966 65.4545ZM41 27H44.5L40 33.5L41 27Z" fill="white"/>
<path d="M24.1992 65.4545L62.7379 7.03125H41L38 0H72.1982V5.75284L39.1992 58.4233H72.1982V65.4545H24.1992Z" fill="white"/>
<path d="M77.5 7.03125V0H80.3168C85.4304 0 89.6278 0.873579 92.9091 2.62074C96.1903 4.34659 98.6193 6.7223 100.196 9.74787C101.773 12.7734 102.561 16.2145 102.561 20.071C102.561 23.9276 101.773 27.3473 100.196 30.3303C98.6193 33.3132 96.201 35.657 92.9411 37.3615C89.6811 39.0447 85.5156 39.8864 80.4446 39.8864H62.5469V32.7273H80.1889C83.6832 32.7273 86.4957 32.2159 88.6264 31.1932C90.7784 30.1705 92.3338 28.7216 93.2926 26.8466C94.2727 24.9503 94.7628 22.6918 94.7628 20.071C94.7628 17.4503 94.2727 15.1598 93.2926 13.1996C92.3125 11.2393 90.7464 9.72656 88.5945 8.66122C86.4425 7.57457 83.598 7.03125 80.0611 7.03125H78.4815H66.1264H62.5469H77.5ZM89.0099 36.0511L105.118 65.4545H95.9134L78.4815 36.4546L89.0099 36.0511Z" fill="white"/>
</svg>
