
<svg width="818" height="909" viewBox="0 0 818 909" fill="none" xmlns="http://www.w3.org/2000/svg">
<g filter="url(#filter0_f_1908_154)">
<ellipse cx="401" cy="454.5" rx="244" ry="100.5" transform="rotate(-180 401 454.5)" fill="#960890" fill-opacity="0.9"/>
</g>
<circle cx="581" cy="490" r="8" transform="rotate(-180 581 490)" fill="#C3C5F5" fill-opacity="0.2"/>
<circle cx="581" cy="454" r="8" transform="rotate(-180 581 454)" fill="#C3C5F5" fill-opacity="0.2"/>
<circle cx="581" cy="418" r="8" transform="rotate(-180 581 418)" fill="#C3C5F5" fill-opacity="0.2"/>
<circle cx="545" cy="490" r="8" transform="rotate(-180 545 490)" fill="#C3C5F5" fill-opacity="0.2"/>
<circle cx="545" cy="454" r="8" transform="rotate(-180 545 454)" fill="#C3C5F5" fill-opacity="0.2"/>
<circle cx="545" cy="418" r="8" transform="rotate(-180 545 418)" fill="#C3C5F5" fill-opacity="0.2"/>
<circle cx="509" cy="490" r="8" transform="rotate(-180 509 490)" fill="#C3C5F5" fill-opacity="0.2"/>
<circle cx="509" cy="454" r="8" transform="rotate(-180 509 454)" fill="#C3C5F5" fill-opacity="0.2"/>
<circle cx="509" cy="418" r="8" transform="rotate(-180 509 418)" fill="#C3C5F5" fill-opacity="0.2"/>
<circle cx="473" cy="490" r="8" transform="rotate(-180 473 490)" fill="#C3C5F5" fill-opacity="0.2"/>
<circle cx="473" cy="454" r="8" transform="rotate(-180 473 454)" fill="#C3C5F5" fill-opacity="0.2"/>
<circle cx="473" cy="418" r="8" transform="rotate(-180 473 418)" fill="#C3C5F5" fill-opacity="0.2"/>
<circle cx="437" cy="490" r="8" transform="rotate(-180 437 490)" fill="#C3C5F5" fill-opacity="0.2"/>
<circle cx="437" cy="454" r="8" transform="rotate(-180 437 454)" fill="#C3C5F5" fill-opacity="0.2"/>
<circle cx="437" cy="418" r="8" transform="rotate(-180 437 418)" fill="#C3C5F5" fill-opacity="0.2"/>
<circle cx="401" cy="490" r="8" transform="rotate(-180 401 490)" fill="#C3C5F5" fill-opacity="0.2"/>
<circle cx="401" cy="454" r="8" transform="rotate(-180 401 454)" fill="#C3C5F5" fill-opacity="0.2"/>
<circle cx="401" cy="418" r="8" transform="rotate(-180 401 418)" fill="#C3C5F5" fill-opacity="0.2"/>
<circle cx="365" cy="490" r="8" transform="rotate(-180 365 490)" fill="#C3C5F5" fill-opacity="0.2"/>
<circle cx="365" cy="454" r="8" transform="rotate(-180 365 454)" fill="#C3C5F5" fill-opacity="0.2"/>
<circle cx="365" cy="418" r="8" transform="rotate(-180 365 418)" fill="#C3C5F5" fill-opacity="0.2"/>
<circle cx="329" cy="490" r="8" transform="rotate(-180 329 490)" fill="#C3C5F5" fill-opacity="0.2"/>
<circle cx="329" cy="454" r="8" transform="rotate(-180 329 454)" fill="#C3C5F5" fill-opacity="0.2"/>
<circle cx="329" cy="418" r="8" transform="rotate(-180 329 418)" fill="#C3C5F5" fill-opacity="0.2"/>
<circle cx="293" cy="490" r="8" transform="rotate(-180 293 490)" fill="#C3C5F5" fill-opacity="0.2"/>
<circle cx="293" cy="454" r="8" transform="rotate(-180 293 454)" fill="#C3C5F5" fill-opacity="0.2"/>
<circle cx="293" cy="418" r="8" transform="rotate(-180 293 418)" fill="#C3C5F5" fill-opacity="0.2"/>
<circle cx="257" cy="490" r="8" transform="rotate(-180 257 490)" fill="#C3C5F5" fill-opacity="0.2"/>
<circle cx="257" cy="454" r="8" transform="rotate(-180 257 454)" fill="#C3C5F5" fill-opacity="0.2"/>
<circle cx="257" cy="418" r="8" transform="rotate(-180 257 418)" fill="#C3C5F5" fill-opacity="0.2"/>
<defs>
<filter id="filter0_f_1908_154" x="-197" y="0" width="1196" height="909" filterUnits="userSpaceOnUse" color-interpolation-filters="sRGB">
<feFlood flood-opacity="0" result="BackgroundImageFix"/>
<feBlend mode="normal" in="SourceGraphic" in2="BackgroundImageFix" result="shape"/>
<feGaussianBlur stdDeviation="177" result="effect1_foregroundBlur_1908_154"/>
</filter>
</defs>
</svg>
