<svg width="113" height="113" viewBox="0 0 113 113" fill="none" xmlns="http://www.w3.org/2000/svg">
<circle cx="56.2873" cy="56.2873" r="56.2873" fill="#251C31"/>
<path d="M55.8719 13.6895L16.0586 27.7007L22.3494 79.8631L55.9142 98.3108L89.6517 79.6138L95.9405 27.4528L55.8719 13.6895Z" fill="#B3B3B3"/>
<path d="M91.9711 30.4676L55.7812 18.126V93.9034L86.1104 77.1179L91.9711 30.4676Z" fill="#A6120D"/>
<path d="M20.5273 30.6899L25.9198 77.3409L55.7806 93.9033V18.1245L20.5273 30.6899Z" fill="#DD1B16"/>
<path d="M65.7421 58.4657L55.7802 63.1245H45.2802L40.3439 75.4695L31.1641 75.6401L55.7802 20.877L65.7421 58.4657ZM64.7786 56.1202L55.8461 38.4357L48.5186 55.8158H55.7795L64.7786 56.1202Z" fill="#F2F2F2"/>
<path d="M55.7773 20.877L55.8432 38.4357L64.1576 55.8292H55.7955L55.7773 63.113L67.3396 63.1245L72.7429 75.6415L81.527 75.8041L55.7773 20.877Z" fill="#B3B3B3"/>
</svg>
