<svg width="80" height="80" viewBox="0 0 80 80" fill="none" xmlns="http://www.w3.org/2000/svg">
<circle cx="40" cy="40" r="40" fill="url(#paint0_linear_2046_401)"/>
<circle cx="40" cy="40" r="39.5" stroke="#9A9B9C" stroke-opacity="0.3"/>
<g clip-path="url(#clip0_2046_401)">
<path d="M39.7031 9.72803L11.4102 19.685L15.8806 56.7536L39.7331 69.8633L63.7084 56.5765L68.1774 19.5088L39.7031 9.72803Z" fill="#B3B3B3"/>
<path d="M65.3547 21.6513L39.6367 12.8809V66.7313L61.1898 54.8029L65.3547 21.6513Z" fill="#A6120D"/>
<path d="M14.582 21.8094L18.4141 54.9614L39.6344 66.7313V12.8799L14.582 21.8094Z" fill="#DD1B16"/>
<path d="M46.7132 41.548L39.6338 44.8587H32.1721L28.6642 53.6316L22.1406 53.7528L39.6338 14.8359L46.7132 41.548ZM46.0285 39.8812L39.6806 27.3139L34.4734 39.6649H39.6334L46.0285 39.8812Z" fill="#F2F2F2"/>
<path d="M39.6367 14.8359L39.6835 27.3139L45.5921 39.6744H39.6496L39.6367 44.8506L47.8533 44.8587L51.6931 53.7538L57.9354 53.8693L39.6367 14.8359Z" fill="#B3B3B3"/>
</g>
<defs>
<linearGradient id="paint0_linear_2046_401" x1="40" y1="0" x2="40" y2="80" gradientUnits="userSpaceOnUse">
<stop stop-color="#050A12"/>
<stop offset="1" stop-color="#251C31"/>
</linearGradient>
<clipPath id="clip0_2046_401">
<rect width="61.115" height="61.115" fill="white" transform="translate(9.23438 9.23828)"/>
</clipPath>
</defs>
</svg>
