<svg width="80" height="80" viewBox="0 0 80 80" fill="none" xmlns="http://www.w3.org/2000/svg">
<circle cx="40" cy="40" r="40" fill="url(#paint0_linear_2046_279)"/>
<circle cx="40" cy="40" r="39.5" stroke="#9A9B9C" stroke-opacity="0.3"/>
<g clip-path="url(#clip0_2046_279)">
<path d="M63.246 50.1357V60.4737H36.9749C31.7324 60.4743 26.6855 58.4834 22.8552 54.9039C19.025 51.3243 16.6975 46.4235 16.3438 41.193L16.3438 38.3984C16.4376 36.962 16.6838 35.5393 17.0746 34.1557C19.5292 25.4768 27.5084 19.1177 36.9749 19.1177C46.4413 19.1177 54.4205 25.4768 56.8751 34.1557H45.6401C44.7023 32.7119 43.4182 31.5257 41.9047 30.7051C40.3912 29.8845 38.6965 29.4557 36.9749 29.4577C35.2533 29.4557 33.5585 29.8845 32.045 30.7051C30.5315 31.5257 29.2474 32.7119 28.3097 34.1557C27.2114 35.8311 26.6297 37.7924 26.6368 39.7957C26.6345 41.2044 26.9212 42.5986 27.4792 43.892C28.0372 45.1855 28.8546 46.3507 29.8809 47.3157C31.797 49.1297 34.3363 50.1391 36.9749 50.1357H63.246ZM63.246 36.9757V47.3157H44.0688C45.0945 46.3502 45.9117 45.1849 46.4699 43.8916C47.0282 42.5983 47.3157 41.2043 47.3148 39.7957C47.3148 38.8186 47.1781 37.8727 46.926 36.9757H63.246Z" fill="#F02E65"/>
</g>
<defs>
<linearGradient id="paint0_linear_2046_279" x1="40" y1="0" x2="40" y2="80" gradientUnits="userSpaceOnUse">
<stop stop-color="#050A12"/>
<stop offset="1" stop-color="#251C31"/>
</linearGradient>
<clipPath id="clip0_2046_279">
<rect width="46.9022" height="46.9022" fill="white" transform="translate(16.3438 16.3447)"/>
</clipPath>
</defs>
</svg>
