<svg width="113" height="113" viewBox="0 0 113 113" fill="none" xmlns="http://www.w3.org/2000/svg">
<circle cx="56.2873" cy="56.2873" r="56.2873" fill="#251C31"/>
<path d="M89 70.5499V85.0974H52.0318C44.6546 85.0981 37.5527 82.2966 32.1629 77.2595C26.773 72.2225 23.4979 65.3262 23 57.9659L23 54.0334C23.132 52.0121 23.4785 50.0101 24.0285 48.0631C27.4825 35.8504 38.7108 26.9019 52.0318 26.9019C65.3528 26.9019 76.581 35.8504 80.035 48.0631H64.2253C62.9057 46.0314 61.0987 44.3622 58.9689 43.2075C56.8392 42.0528 54.4544 41.4493 52.0318 41.4521C49.6091 41.4493 47.2243 42.0528 45.0946 43.2075C42.9648 44.3622 41.1578 46.0314 39.8383 48.0631C38.2927 50.4207 37.4742 53.1806 37.4843 55.9996C37.481 57.9819 37.8845 59.9437 38.6697 61.7639C39.4548 63.584 40.6051 65.2237 42.0493 66.5816C44.7456 69.1343 48.3188 70.5547 52.0318 70.5499H89ZM89 52.0314V66.5816H62.0143C63.4576 65.223 64.6075 63.5832 65.3931 61.7632C66.1786 59.9433 66.5833 57.9818 66.582 55.9996C66.582 54.6246 66.3895 53.2936 66.0348 52.0314H89Z" fill="#F02E65"/>
</svg>
