<svg width="80" height="80" viewBox="0 0 80 80" fill="none" xmlns="http://www.w3.org/2000/svg">
<circle cx="40" cy="40" r="40" fill="url(#paint0_linear_2046_284)"/>
<circle cx="40" cy="40" r="39.5" stroke="#9A9B9C" stroke-opacity="0.3"/>
<path d="M47.5688 15.5745C48.001 16.1106 48.2213 16.8341 48.6601 18.2794L58.2786 49.8744C54.6662 47.9989 50.7884 46.6861 46.7796 45.9814L40.5179 24.8195C40.4685 24.6503 40.3655 24.5018 40.2244 24.3961C40.0834 24.2905 39.9118 24.2335 39.7356 24.2337C39.5593 24.2339 39.3879 24.2913 39.2471 24.3972C39.1062 24.5032 39.0036 24.652 38.9545 24.8213L32.768 45.9708C28.7417 46.673 24.8468 47.9878 21.2188 49.8695L30.8826 18.2727C31.3249 16.8292 31.5452 16.107 31.9769 15.5709C32.3582 15.0987 32.8541 14.7321 33.4173 14.5059C34.0538 14.2505 34.8102 14.2505 36.3198 14.2505H43.2233C44.7343 14.2505 45.4907 14.2505 46.1293 14.5077C46.6926 14.7344 47.1879 15.1017 47.5688 15.5745Z" fill="url(#paint1_linear_2046_284)"/>
<path d="M48.7182 51.3772C47.1325 52.734 43.9675 53.6588 40.3224 53.6588C35.8498 53.6588 32.099 52.2655 31.1045 50.3916C30.7492 51.4656 30.6692 52.6941 30.6692 53.4802C30.6692 53.4802 30.4352 57.3332 33.1156 60.0137C33.1156 59.6828 33.1807 59.3552 33.3073 59.0496C33.4339 58.744 33.6194 58.4662 33.8534 58.2323C34.0873 57.9984 34.3651 57.8129 34.6707 57.6864C34.9764 57.5598 35.304 57.4948 35.6348 57.4949C38.0199 57.4949 38.0186 59.5748 38.0168 61.2648V61.4141C38.0168 63.9781 39.5833 66.1749 41.8112 67.1014C41.4675 66.3961 41.2895 65.6217 41.2906 64.8371C41.2906 62.3908 42.7252 61.4816 44.3944 60.4232C45.7219 59.5819 47.1965 58.6466 48.2114 56.7714C48.7594 55.761 49.0457 54.6296 49.0442 53.4802C49.0444 52.7666 48.9345 52.0572 48.7182 51.3772Z" fill="#FF5D01"/>
<path d="M48.7182 51.3772C47.1325 52.734 43.9675 53.6588 40.3224 53.6588C35.8498 53.6588 32.099 52.2655 31.1045 50.3916C30.7492 51.4656 30.6692 52.6941 30.6692 53.4802C30.6692 53.4802 30.4352 57.3332 33.1156 60.0137C33.1156 59.6828 33.1807 59.3552 33.3073 59.0496C33.4339 58.744 33.6194 58.4662 33.8534 58.2323C34.0873 57.9984 34.3651 57.8129 34.6707 57.6864C34.9764 57.5598 35.304 57.4948 35.6348 57.4949C38.0199 57.4949 38.0186 59.5748 38.0168 61.2648V61.4141C38.0168 63.9781 39.5833 66.1749 41.8112 67.1014C41.4675 66.3961 41.2895 65.6217 41.2906 64.8371C41.2906 62.3908 42.7252 61.4816 44.3944 60.4232C45.7219 59.5819 47.1965 58.6466 48.2114 56.7714C48.7594 55.761 49.0457 54.6296 49.0442 53.4802C49.0444 52.7666 48.9345 52.0572 48.7182 51.3772Z" fill="url(#paint2_linear_2046_284)"/>
<defs>
<linearGradient id="paint0_linear_2046_284" x1="40" y1="0" x2="40" y2="80" gradientUnits="userSpaceOnUse">
<stop stop-color="#050A12"/>
<stop offset="1" stop-color="#251C31"/>
</linearGradient>
<linearGradient id="paint1_linear_2046_284" x1="50.5871" y1="12.5748" x2="39.748" y2="49.8741" gradientUnits="userSpaceOnUse">
<stop stop-color="white"/>
<stop offset="1" stop-color="white"/>
</linearGradient>
<linearGradient id="paint2_linear_2046_284" x1="55.8574" y1="40.3494" x2="46.4701" y2="60.0012" gradientUnits="userSpaceOnUse">
<stop stop-color="#FF1639"/>
<stop offset="1" stop-color="#FF1639" stop-opacity="0"/>
</linearGradient>
</defs>
</svg>
