<svg width="113" height="113" viewBox="0 0 113 113" fill="none" xmlns="http://www.w3.org/2000/svg">
<circle cx="56.2873" cy="56.2873" r="56.2873" fill="#251C31"/>
<path d="M66.9387 21.9159C67.5469 22.6702 67.8569 23.6884 68.4744 25.7221L82.0094 70.1821C76.926 67.5429 71.4693 65.6955 65.8281 64.704L57.0169 34.9252C56.9473 34.6872 56.8024 34.4781 56.6039 34.3295C56.4053 34.1809 56.1639 34.1007 55.9159 34.1009C55.6679 34.1012 55.4267 34.182 55.2285 34.3311C55.0304 34.4802 54.8859 34.6895 54.8169 34.9277L46.1113 64.689C40.4456 65.6771 34.9647 67.5273 29.8594 70.1752L43.4581 25.7127C44.0806 23.6815 44.3906 22.6652 44.9981 21.9109C45.5347 21.2464 46.2325 20.7304 47.025 20.4121C47.9206 20.0527 48.985 20.0527 51.1094 20.0527H60.8237C62.95 20.0527 64.0144 20.0527 64.9131 20.4146C65.7057 20.7337 66.4027 21.2505 66.9387 21.9159Z" fill="url(#paint0_linear_1967_465)"/>
<path d="M68.5578 72.2961C66.3265 74.2054 61.8728 75.5067 56.7434 75.5067C50.4496 75.5067 45.1715 73.5461 43.7721 70.9092C43.2721 72.4204 43.1596 74.1492 43.1596 75.2554C43.1596 75.2554 42.8302 80.6773 46.6021 84.4492C46.602 83.9836 46.6937 83.5227 46.8718 83.0926C47.0499 82.6625 47.3111 82.2717 47.6403 81.9425C47.9695 81.6134 48.3603 81.3523 48.7905 81.1743C49.2206 80.9962 49.6816 80.9046 50.1471 80.9048C53.5034 80.9048 53.5015 83.8317 53.499 86.2098V86.4198C53.499 90.0279 55.7034 93.1192 58.8384 94.4229C58.3548 93.4305 58.1043 92.3407 58.1059 91.2367C58.1059 87.7942 60.1246 86.5148 62.4734 85.0254C64.3415 83.8417 66.4165 82.5254 67.8446 79.8867C68.6157 78.465 69.0186 76.8728 69.0165 75.2554C69.0169 74.2512 68.8622 73.253 68.5578 72.2961Z" fill="#FF5D01"/>
<path d="M68.5578 72.2961C66.3265 74.2054 61.8728 75.5067 56.7434 75.5067C50.4496 75.5067 45.1715 73.5461 43.7721 70.9092C43.2721 72.4204 43.1596 74.1492 43.1596 75.2554C43.1596 75.2554 42.8302 80.6773 46.6021 84.4492C46.602 83.9836 46.6937 83.5227 46.8718 83.0926C47.0499 82.6625 47.3111 82.2717 47.6403 81.9425C47.9695 81.6134 48.3603 81.3523 48.7905 81.1743C49.2206 80.9962 49.6816 80.9046 50.1471 80.9048C53.5034 80.9048 53.5015 83.8317 53.499 86.2098V86.4198C53.499 90.0279 55.7034 93.1192 58.8384 94.4229C58.3548 93.4305 58.1043 92.3407 58.1059 91.2367C58.1059 87.7942 60.1246 86.5148 62.4734 85.0254C64.3415 83.8417 66.4165 82.5254 67.8446 79.8867C68.6157 78.465 69.0186 76.8728 69.0165 75.2554C69.0169 74.2512 68.8622 73.253 68.5578 72.2961Z" fill="url(#paint1_linear_1967_465)"/>
<defs>
<linearGradient id="paint0_linear_1967_465" x1="71.1861" y1="17.6948" x2="55.9334" y2="70.1816" gradientUnits="userSpaceOnUse">
<stop stop-color="white"/>
<stop offset="1" stop-color="white"/>
</linearGradient>
<linearGradient id="paint1_linear_1967_465" x1="78.604" y1="56.7779" x2="65.3944" y2="84.4317" gradientUnits="userSpaceOnUse">
<stop stop-color="#FF1639"/>
<stop offset="1" stop-color="#FF1639" stop-opacity="0"/>
</linearGradient>
</defs>
</svg>
