<svg width="113" height="113" viewBox="0 0 113 113" fill="none" xmlns="http://www.w3.org/2000/svg">
<circle cx="56.2873" cy="56.2873" r="56.2873" fill="#251C31"/>
<path d="M24.2426 31.725C24.0847 27.1857 27.621 23 32.4014 23H81.3852C86.1657 23 89.7019 27.1857 89.5441 31.725C89.3922 36.0852 89.5894 41.7336 91.0108 46.3389C92.4369 50.9589 94.8414 53.8783 98.78 54.254V58.5083C94.8414 58.8833 92.4369 61.8034 91.0108 66.4233C89.5894 71.0286 89.3922 76.677 89.5441 81.0372C89.7019 85.5766 86.1657 89.7616 81.3852 89.7616H32.4014C27.621 89.7616 24.0847 85.5759 24.2426 81.0372C24.3944 76.677 24.1973 71.0286 22.7752 66.4233C21.3498 61.804 18.9386 58.8839 15 58.5083V54.254C18.9386 53.879 21.3498 50.9589 22.7752 46.3389C24.1973 41.7336 24.3938 36.0852 24.2426 31.725Z" fill="url(#paint0_linear_1967_459)"/>
<g filter="url(#filter0_d_1967_459)">
<path d="M58.9598 74.3704C66.6991 74.3704 71.3623 70.581 71.3623 64.3312C71.3623 59.6066 68.0352 56.1863 63.0942 55.6448V55.4476C66.7244 54.8575 69.5725 51.4864 69.5725 47.721C69.5725 42.3571 65.3376 38.8628 58.8839 38.8628H44.3633V74.3704H58.9598ZM50.0103 43.3662H57.5231C61.6062 43.3662 63.9262 45.1866 63.9262 48.4844C63.9262 52.0026 61.2285 53.9716 56.3381 53.9716H50.0103V43.3662ZM50.0103 69.8677V58.1792H57.4725C62.8165 58.1792 65.5894 60.1475 65.5894 63.9861C65.5894 67.8248 62.8924 69.8677 57.8002 69.8677H50.0103Z" fill="url(#paint1_linear_1967_459)"/>
<path d="M58.9598 74.3704C66.6991 74.3704 71.3623 70.581 71.3623 64.3312C71.3623 59.6066 68.0352 56.1863 63.0942 55.6448V55.4476C66.7244 54.8575 69.5725 51.4864 69.5725 47.721C69.5725 42.3571 65.3376 38.8628 58.8839 38.8628H44.3633V74.3704H58.9598ZM50.0103 43.3662H57.5231C61.6062 43.3662 63.9262 45.1866 63.9262 48.4844C63.9262 52.0026 61.2285 53.9716 56.3381 53.9716H50.0103V43.3662ZM50.0103 69.8677V58.1792H57.4725C62.8165 58.1792 65.5894 60.1475 65.5894 63.9861C65.5894 67.8248 62.8924 69.8677 57.8002 69.8677H50.0103Z" fill="white"/>
</g>
<defs>
<filter id="filter0_d_1967_459" x="40.4333" y="35.9158" width="34.86" height="43.3678" filterUnits="userSpaceOnUse" color-interpolation-filters="sRGB">
<feFlood flood-opacity="0" result="BackgroundImageFix"/>
<feColorMatrix in="SourceAlpha" type="matrix" values="0 0 0 0 0 0 0 0 0 0 0 0 0 0 0 0 0 0 127 0" result="hardAlpha"/>
<feOffset dy="0.983"/>
<feGaussianBlur stdDeviation="1.965"/>
<feColorMatrix type="matrix" values="0 0 0 0 0 0 0 0 0 0 0 0 0 0 0 0 0 0 0.15 0"/>
<feBlend mode="normal" in2="BackgroundImageFix" result="effect1_dropShadow_1967_459"/>
<feBlend mode="normal" in="SourceGraphic" in2="effect1_dropShadow_1967_459" result="shape"/>
</filter>
<linearGradient id="paint0_linear_1967_459" x1="27.4498" y1="24.7671" x2="100.658" y2="82.8803" gradientUnits="userSpaceOnUse">
<stop stop-color="#9013FE"/>
<stop offset="1" stop-color="#6610F2"/>
</linearGradient>
<linearGradient id="paint1_linear_1967_459" x1="46.9184" y1="41.1994" x2="63.2814" y2="68.8739" gradientUnits="userSpaceOnUse">
<stop stop-color="white"/>
<stop offset="1" stop-color="#F1E5FC"/>
</linearGradient>
</defs>
</svg>
