<svg width="81" height="80" viewBox="0 0 81 80" fill="none" xmlns="http://www.w3.org/2000/svg">
<circle cx="40.332" cy="40" r="40" fill="url(#paint0_linear_2046_350)"/>
<circle cx="40.332" cy="40" r="39.5" stroke="#9A9B9C" stroke-opacity="0.3"/>
<path d="M17.5603 22.5451C17.4481 19.3192 19.9611 16.3447 23.3583 16.3447H58.1682C61.5654 16.3447 64.0784 19.3192 63.9662 22.5451C63.8583 25.6436 63.9984 29.6576 65.0085 32.9303C66.0219 36.2134 67.7307 38.2881 70.5296 38.555V41.5783C67.7307 41.8448 66.0219 43.9199 65.0085 47.2031C63.9984 50.4758 63.8583 54.4897 63.9662 57.5883C64.0784 60.8141 61.5654 63.7881 58.1682 63.7881H23.3583C19.9611 63.7881 17.4481 60.8136 17.5603 57.5883C17.6683 54.4897 17.5281 50.4758 16.5175 47.2031C15.5046 43.9204 13.7911 41.8453 10.9922 41.5783V38.555C13.7911 38.2886 15.5046 36.2134 16.5175 32.9303C17.5281 29.6576 17.6678 25.6436 17.5603 22.5451Z" fill="url(#paint1_linear_2046_350)"/>
<g filter="url(#filter0_d_2046_350)">
<path d="M42.2323 52.8508C47.7321 52.8508 51.046 50.1579 51.046 45.7165C51.046 42.3591 48.6816 39.9284 45.1703 39.5436V39.4035C47.7501 38.9841 49.7741 36.5885 49.7741 33.9127C49.7741 30.1008 46.7646 27.6177 42.1783 27.6177H31.8594V52.8508H42.2323ZM35.8724 30.818H41.2113C44.1129 30.818 45.7615 32.1116 45.7615 34.4552C45.7615 36.9554 43.8445 38.3546 40.3692 38.3546H35.8724V30.818ZM35.8724 49.651V41.3447H41.1753C44.9729 41.3447 46.9435 42.7434 46.9435 45.4713C46.9435 48.1992 45.0269 49.651 41.4082 49.651H35.8724Z" fill="url(#paint2_linear_2046_350)"/>
<path d="M42.2323 52.8508C47.7321 52.8508 51.046 50.1579 51.046 45.7165C51.046 42.3591 48.6816 39.9284 45.1703 39.5436V39.4035C47.7501 38.9841 49.7741 36.5885 49.7741 33.9127C49.7741 30.1008 46.7646 27.6177 42.1783 27.6177H31.8594V52.8508H42.2323ZM35.8724 30.818H41.2113C44.1129 30.818 45.7615 32.1116 45.7615 34.4552C45.7615 36.9554 43.8445 38.3546 40.3692 38.3546H35.8724V30.818ZM35.8724 49.651V41.3447H41.1753C44.9729 41.3447 46.9435 42.7434 46.9435 45.4713C46.9435 48.1992 45.0269 49.651 41.4082 49.651H35.8724Z" fill="white"/>
</g>
<defs>
<filter id="filter0_d_2046_350" x="27.9294" y="24.6707" width="27.0475" height="33.0929" filterUnits="userSpaceOnUse" color-interpolation-filters="sRGB">
<feFlood flood-opacity="0" result="BackgroundImageFix"/>
<feColorMatrix in="SourceAlpha" type="matrix" values="0 0 0 0 0 0 0 0 0 0 0 0 0 0 0 0 0 0 127 0" result="hardAlpha"/>
<feOffset dy="0.983"/>
<feGaussianBlur stdDeviation="1.965"/>
<feColorMatrix type="matrix" values="0 0 0 0 0 0 0 0 0 0 0 0 0 0 0 0 0 0 0.15 0"/>
<feBlend mode="normal" in2="BackgroundImageFix" result="effect1_dropShadow_2046_350"/>
<feBlend mode="normal" in="SourceGraphic" in2="effect1_dropShadow_2046_350" result="shape"/>
</filter>
<linearGradient id="paint0_linear_2046_350" x1="40.332" y1="0" x2="40.332" y2="80" gradientUnits="userSpaceOnUse">
<stop stop-color="#050A12"/>
<stop offset="1" stop-color="#251C31"/>
</linearGradient>
<linearGradient id="paint1_linear_2046_350" x1="19.8395" y1="17.6005" x2="71.8639" y2="58.898" gradientUnits="userSpaceOnUse">
<stop stop-color="#9013FE"/>
<stop offset="1" stop-color="#6610F2"/>
</linearGradient>
<linearGradient id="paint2_linear_2046_350" x1="33.6751" y1="29.2782" x2="45.3033" y2="48.9447" gradientUnits="userSpaceOnUse">
<stop stop-color="white"/>
<stop offset="1" stop-color="#F1E5FC"/>
</linearGradient>
</defs>
</svg>
