<svg width="113" height="113" viewBox="0 0 113 113" fill="none" xmlns="http://www.w3.org/2000/svg">
<circle cx="56.2873" cy="56.2873" r="56.2873" fill="#251C31"/>
<g clip-path="url(#clip0_1967_460)">
<path d="M56 96C78.0914 96 96 78.0914 96 56C96 33.9086 78.0914 16 56 16C33.9086 16 16 33.9086 16 56C16 78.0914 33.9086 96 56 96Z" fill="url(#paint0_linear_1967_460)"/>
<path d="M74.475 52.1813C74.5518 52.1 74.603 51.9979 74.6223 51.8878C74.6416 51.7777 74.6281 51.6643 74.5835 51.5617C74.5389 51.4592 74.4651 51.372 74.3714 51.3111C74.2776 51.2501 74.1681 51.218 74.0562 51.2188H56.5438C55.475 51.2188 55.65 50.6438 56.0313 49.9438C56.4125 49.2375 66.1 31.5688 66.1 31.5688C66.1438 31.475 66.1687 31.3813 66.1687 31.275C66.1685 31.1419 66.129 31.0119 66.0551 30.9011C65.9812 30.7904 65.8763 30.7039 65.7536 30.6525C65.6308 30.6011 65.4956 30.5871 65.3648 30.6123C65.2341 30.6374 65.1137 30.7005 65.0187 30.7938L37.5625 58.1563C37.4437 58.2688 37.375 58.4188 37.375 58.5938C37.375 58.925 37.6437 59.1938 37.975 59.1938H56.7062C57.8812 59.1938 57.4625 59.8688 57.175 60.2625C56.8875 60.6563 42.7062 80.2625 42.7062 80.2625C42.6271 80.3672 42.5787 80.4919 42.5665 80.6226C42.5543 80.7533 42.5788 80.8848 42.6372 81.0023C42.6957 81.1198 42.7857 81.2187 42.8973 81.2879C43.0089 81.3571 43.1375 81.3937 43.2688 81.3938C43.4625 81.3938 43.6375 81.3188 43.7625 81.1938C43.8875 81.0688 74.4688 52.2063 74.4688 52.2063L74.475 52.2L74.4875 52.1875L74.475 52.1813Z" fill="white"/>
</g>
<defs>
<linearGradient id="paint0_linear_1967_460" x1="56" y1="16" x2="56" y2="96" gradientUnits="userSpaceOnUse">
<stop stop-color="#7ACBD4"/>
<stop offset="1" stop-color="#29C6B7"/>
</linearGradient>
<clipPath id="clip0_1967_460">
<rect width="80" height="80" fill="white" transform="translate(16 16)"/>
</clipPath>
</defs>
</svg>
