<svg width="80" height="80" viewBox="0 0 80 80" fill="none" xmlns="http://www.w3.org/2000/svg">
<circle cx="40" cy="40" r="40" fill="url(#paint0_linear_2046_430)"/>
<circle cx="40" cy="40" r="39.5" stroke="#9A9B9C" stroke-opacity="0.3"/>
<g clip-path="url(#clip0_2046_430)">
<path d="M39.7967 68.2213C55.4957 68.2213 68.2223 55.4947 68.2223 39.7957C68.2223 24.0967 55.4957 11.3701 39.7967 11.3701C24.0977 11.3701 11.3711 24.0967 11.3711 39.7957C11.3711 55.4947 24.0977 68.2213 39.7967 68.2213Z" fill="url(#paint1_linear_2046_430)"/>
<path d="M52.9272 37.082C52.9818 37.0243 53.0182 36.9518 53.0319 36.8735C53.0456 36.7952 53.036 36.7146 53.0043 36.6418C52.9726 36.5689 52.9202 36.507 52.8536 36.4636C52.787 36.4203 52.7091 36.3975 52.6297 36.3981H40.1846C39.4251 36.3981 39.5494 35.9894 39.8204 35.492C40.0913 34.9901 46.9756 22.434 46.9756 22.434C47.0067 22.3674 47.0245 22.3007 47.0245 22.2252C47.0243 22.1306 46.9962 22.0382 46.9437 21.9595C46.8912 21.8808 46.8167 21.8194 46.7294 21.7829C46.6422 21.7463 46.5461 21.7364 46.4532 21.7542C46.3603 21.7721 46.2747 21.817 46.2072 21.8832L26.6957 41.3281C26.6114 41.4081 26.5625 41.5147 26.5625 41.639C26.5625 41.8744 26.7535 42.0654 26.9889 42.0654H40.3001C41.1351 42.0654 40.8375 42.5451 40.6332 42.8249C40.4289 43.1047 30.3511 57.0377 30.3511 57.0377C30.2948 57.1121 30.2604 57.2007 30.2518 57.2936C30.2431 57.3865 30.2605 57.4799 30.302 57.5634C30.3436 57.6469 30.4076 57.7172 30.4869 57.7664C30.5661 57.8155 30.6576 57.8416 30.7508 57.8416C30.8885 57.8416 31.0129 57.7883 31.1017 57.6995C31.1905 57.6107 52.9228 37.0998 52.9228 37.0998L52.9272 37.0954L52.9361 37.0865L52.9272 37.082Z" fill="white"/>
</g>
<defs>
<linearGradient id="paint0_linear_2046_430" x1="40" y1="0" x2="40" y2="80" gradientUnits="userSpaceOnUse">
<stop stop-color="#050A12"/>
<stop offset="1" stop-color="#251C31"/>
</linearGradient>
<linearGradient id="paint1_linear_2046_430" x1="39.7967" y1="11.3701" x2="39.7967" y2="68.2213" gradientUnits="userSpaceOnUse">
<stop stop-color="#7ACBD4"/>
<stop offset="1" stop-color="#29C6B7"/>
</linearGradient>
<clipPath id="clip0_2046_430">
<rect width="56.8512" height="56.8512" fill="white" transform="translate(11.3711 11.3701)"/>
</clipPath>
</defs>
</svg>
