<svg width="104" height="108" viewBox="0 0 104 108" fill="none" xmlns="http://www.w3.org/2000/svg">
<ellipse cx="51.76" cy="53.5448" rx="51.76" ry="53.5448" fill="#251C31"/>
<path d="M66.9843 19.3399H62.6L67.1594 24.0923V26.3547H57.7687V23.7056H62.3275L57.7687 18.9532V16.6885H66.9843V19.3399ZM55.9067 19.3399H51.5224L56.0818 24.0923V26.3547H46.6905V23.7056H51.2499L46.6905 18.9532V16.6885H55.9067V19.3399ZM44.9377 19.4482H40.2067V23.595H44.9377V26.3547H36.8438V16.6885H44.9377V19.4482Z" fill="white"/>
<path d="M30.3935 82.5589L25.5859 30.7671H78.4101L73.5983 82.5503L51.9657 88.3116L30.3935 82.5589Z" fill="#1572B6"/>
<path d="M52 83.9084L69.4794 79.2536L73.5917 35.0024H52V83.9084Z" fill="#33A9DC"/>
<path d="M52 53.7662H60.7507L61.3557 47.2618H52V40.9097H68.5828L68.4243 42.6138L66.7992 60.1178H52V53.7662Z" fill="white"/>
<path d="M52.0381 70.2631L52.009 70.2711L44.6441 68.3605L44.1727 63.2944H37.5352L38.462 73.2681L52.0078 76.8798L52.0387 76.8713L52.0381 70.2631Z" fill="#EBEBEB"/>
<path d="M60.188 59.8491L59.3912 68.3559L52.0156 70.2682V76.8769L65.5727 73.268L65.6725 72.1947L66.8232 59.8491H60.188Z" fill="white"/>
<path d="M52.0233 40.9097V47.2612H36.0496L35.9166 45.8337L35.6156 42.6138L35.457 40.9097H52.0233ZM52.0001 53.7668V60.1189H44.7284L44.596 58.6914L44.2944 55.4709L44.1359 53.7668H52.0001Z" fill="#EBEBEB"/>
</svg>
