<svg width="78" height="80" viewBox="0 0 78 80" fill="none" xmlns="http://www.w3.org/2000/svg">
<ellipse cx="38.6667" cy="40" rx="38.6667" ry="40" fill="url(#paint0_linear_2046_329)"/>
<path d="M76.8333 40C76.8333 61.8314 59.7297 79.5 38.6667 79.5C17.6036 79.5 0.5 61.8314 0.5 40C0.5 18.1686 17.6036 0.5 38.6667 0.5C59.7297 0.5 76.8333 18.1686 76.8333 40Z" stroke="#9A9B9C" stroke-opacity="0.3"/>
<path d="M50.0396 14.4475H46.7644L50.1704 17.9977V19.6878H43.1552V17.7089H46.5608L43.1552 14.1586V12.4668H50.0396V14.4475ZM41.7642 14.4475H38.489L41.895 17.9977V19.6878H34.8793V17.7089H38.2854L34.8793 14.1586V12.4668H41.7642V14.4475ZM33.57 14.5284H30.0357V17.6262H33.57V19.6878H27.5234V12.4668H33.57V14.5284Z" fill="white"/>
<path d="M22.7086 61.6748L19.1172 22.9844H58.5789L54.9843 61.6684L38.8239 65.9723L22.7086 61.6748Z" fill="#1572B6"/>
<path d="M38.8477 62.6826L51.9054 59.2052L54.9775 26.1479H38.8477V62.6826Z" fill="#33A9DC"/>
<path d="M38.8477 40.1654H45.3848L45.8367 35.3063H38.8477V30.561H51.2357L51.1172 31.8341L49.9032 44.9102H38.8477V40.1654Z" fill="white"/>
<path d="M38.8772 52.4891L38.8555 52.495L33.3536 51.0678L33.0015 47.2832H28.043L28.7354 54.7339L38.8546 57.432L38.8777 57.4256L38.8772 52.4891Z" fill="#EBEBEB"/>
<path d="M44.9645 44.7095L44.3692 51.0644L38.8594 52.4929V57.4299L48.987 54.7339L49.0616 53.9321L49.9212 44.7095H44.9645Z" fill="white"/>
<path d="M38.8639 30.561V35.3059H26.9309L26.8316 34.2395L26.6067 31.8341L26.4883 30.561H38.8639ZM38.8466 40.1658V44.9111H33.4144L33.3155 43.8447L33.0901 41.4388L32.9717 40.1658H38.8466Z" fill="#EBEBEB"/>
<defs>
<linearGradient id="paint0_linear_2046_329" x1="38.6667" y1="0" x2="38.6667" y2="80" gradientUnits="userSpaceOnUse">
<stop stop-color="#050A12"/>
<stop offset="1" stop-color="#251C31"/>
</linearGradient>
</defs>
</svg>
