<svg width="80" height="80" viewBox="0 0 80 80" fill="none" xmlns="http://www.w3.org/2000/svg">
<circle cx="40" cy="40" r="40" fill="url(#paint0_linear_2364_1015)"/>
<circle cx="40" cy="40" r="39.5" stroke="#9A9B9C" stroke-opacity="0.3"/>
<path d="M60.4388 36.3542C60.3138 36.2708 59.2721 35.4583 57.0221 35.4583C56.4388 35.4583 55.8555 35.5208 55.2721 35.625C54.8346 32.7083 52.3971 31.2292 52.293 31.1667L51.6888 30.8125L51.3138 31.375C50.8138 32.125 50.418 32.9792 50.2513 33.8542C49.8346 35.5208 50.0846 37.1042 50.9388 38.4583C49.918 39.0417 48.2513 39.1875 47.8971 39.1875H20.4596C19.7513 39.1875 19.168 39.7708 19.168 40.5C19.168 42.8958 19.543 45.2917 20.3763 47.5417C21.3138 50.0208 22.7305 51.8542 24.543 52.9792C26.5846 54.2292 29.9388 54.9375 33.7513 54.9375C35.3971 54.9375 37.1055 54.7917 38.793 54.4792C41.1263 54.0625 43.3763 53.25 45.4388 52.0625C47.147 51.0857 48.6759 49.8246 49.9596 48.3333C52.1471 45.8958 53.4388 43.125 54.3763 40.7292H54.7721C57.1471 40.7292 58.6263 39.7708 59.4388 38.9583C59.9805 38.4583 60.3763 37.8542 60.668 37.1458L60.8346 36.6458L60.4388 36.3542ZM23.0221 38.4167H26.6888C26.8555 38.4167 27.0221 38.2708 27.0221 38.0833V34.7917C27.0221 34.625 26.8763 34.4583 26.6888 34.4583H23.0221C22.8346 34.4583 22.6888 34.6042 22.6888 34.7917V38.0833C22.7096 38.2708 22.8346 38.4167 23.0221 38.4167ZM28.0846 38.4167H31.7513C31.918 38.4167 32.0846 38.2708 32.0846 38.0833V34.7917C32.0846 34.625 31.9388 34.4583 31.7513 34.4583H28.0846C27.8971 34.4583 27.7513 34.6042 27.7513 34.7917V38.0833C27.7721 38.2708 27.8971 38.4167 28.0846 38.4167ZM33.2305 38.4167H36.8763C37.0846 38.4167 37.2305 38.2708 37.2305 38.0833V34.7917C37.2305 34.625 37.1055 34.4583 36.8763 34.4583H33.2305C33.0638 34.4583 32.918 34.6042 32.918 34.7917V38.0833C32.918 38.2708 33.043 38.4167 33.2305 38.4167ZM38.3138 38.4167H42.0013C42.168 38.4167 42.3138 38.2708 42.3138 38.0833V34.7917C42.3138 34.625 42.1888 34.4583 42.0013 34.4583H38.3138C38.1471 34.4583 38.0013 34.6042 38.0013 34.7917V38.0833C38.0013 38.2708 38.1471 38.4167 38.3138 38.4167ZM28.0846 33.75H31.7513C31.918 33.75 32.0846 33.5625 32.0846 33.375V30.1042C32.0846 29.9167 31.9388 29.7708 31.7513 29.7708H28.0846C27.8971 29.7708 27.7513 29.8958 27.7513 30.1042V33.375C27.7721 33.5625 27.8971 33.75 28.0846 33.75ZM33.2305 33.75H36.8763C37.0846 33.75 37.2305 33.5625 37.2305 33.375V30.1042C37.2305 29.9167 37.1055 29.7708 36.8763 29.7708H33.2305C33.0638 29.7708 32.918 29.8958 32.918 30.1042V33.375C32.918 33.5625 33.043 33.75 33.2305 33.75ZM38.3138 33.75H42.0013C42.168 33.75 42.3138 33.5625 42.3138 33.375V30.1042C42.3138 29.9167 42.168 29.7708 42.0013 29.7708H38.3138C38.1471 29.7708 38.0013 29.8958 38.0013 30.1042V33.375C38.0013 33.5625 38.1471 33.75 38.3138 33.75ZM38.3138 29H42.0013C42.168 29 42.3138 28.8542 42.3138 28.6667V25.4167C42.3138 25.2083 42.168 25.0625 42.0013 25.0625H38.3138C38.1471 25.0625 38.0013 25.1875 38.0013 25.4167V28.6667C38.0013 28.8333 38.1471 29 38.3138 29ZM43.4388 38.4167H47.1055C47.293 38.4167 47.4388 38.2708 47.4388 38.0833V34.7917C47.4388 34.625 47.293 34.4583 47.1055 34.4583H43.4388C43.2721 34.4583 43.1263 34.6042 43.1263 34.7917V38.0833C43.1263 38.2708 43.2721 38.4167 43.4388 38.4167Z" fill="#0288D1"/>
<defs>
<linearGradient id="paint0_linear_2364_1015" x1="40" y1="0" x2="40" y2="80" gradientUnits="userSpaceOnUse">
<stop stop-color="#050A12"/>
<stop offset="1" stop-color="#251C31"/>
</linearGradient>
</defs>
</svg>
