<svg width="80" height="80" viewBox="0 0 80 80" fill="none" xmlns="http://www.w3.org/2000/svg">
<circle cx="40" cy="40" r="40" fill="url(#paint0_linear_2364_1019)"/>
<circle cx="40" cy="40" r="39.5" stroke="#9A9B9C" stroke-opacity="0.3"/>
<path d="M50.4909 21.25H29.5127C29.3762 21.25 29.242 21.2857 29.1235 21.3537C29.0051 21.4217 28.9066 21.5195 28.8377 21.6375L18.3565 39.6063C18.2867 39.7258 18.25 39.8616 18.25 40C18.25 40.1384 18.2867 40.2742 18.3565 40.3938L28.8377 58.3625C28.9066 58.4805 29.0051 58.5783 29.1235 58.6463C29.242 58.7143 29.3762 58.75 29.5127 58.75H50.4909C50.6274 58.75 50.7616 58.7143 50.88 58.6463C50.9985 58.5783 51.097 58.4805 51.1659 58.3625L61.6471 40.3938C61.7168 40.2742 61.7536 40.1384 61.7536 40C61.7536 39.8616 61.7168 39.7258 61.6471 39.6063L51.1659 21.6375C51.097 21.5195 50.9985 21.4217 50.88 21.3537C50.7616 21.2857 50.6274 21.25 50.4909 21.25ZM39.6518 53.8875L27.933 48.0281C27.8034 47.9632 27.6945 47.8635 27.6183 47.7401C27.5421 47.6168 27.5018 47.4747 27.5018 47.3297V32.6703C27.5018 32.5253 27.5421 32.3832 27.6183 32.2599C27.6945 32.1365 27.8034 32.0368 27.933 31.9719L39.6518 26.1125C39.7604 26.0581 39.8803 26.0297 40.0018 26.0297C40.1233 26.0297 40.2432 26.0581 40.3518 26.1125L52.0705 31.9719C52.2002 32.0368 52.3091 32.1365 52.3853 32.2599C52.4614 32.3832 52.5018 32.5253 52.5018 32.6703V47.3297C52.5018 47.4747 52.4614 47.6168 52.3853 47.7401C52.3091 47.8635 52.2002 47.9632 52.0705 48.0281L40.3518 53.8875C40.2432 53.9419 40.1233 53.9703 40.0018 53.9703C39.8803 53.9703 39.7604 53.9419 39.6518 53.8875Z" fill="#3F51B5"/>
<path d="M49.375 45.3766V34.6234C49.375 34.4785 49.3347 34.3364 49.2585 34.213C49.1823 34.0897 49.0734 33.99 48.9438 33.925L40.35 29.6281C40.2414 29.5737 40.1215 29.5453 40 29.5453C39.8785 29.5453 39.7586 29.5737 39.65 29.6281L31.0563 33.925C30.9266 33.99 30.8177 34.0897 30.7415 34.213C30.6653 34.3364 30.625 34.4785 30.625 34.6234V45.3766C30.625 45.5215 30.6653 45.6636 30.7415 45.787C30.8177 45.9103 30.9266 46.0101 31.0563 46.075L39.65 50.3719C39.7586 50.4263 39.8785 50.4547 40 50.4547C40.1215 50.4547 40.2414 50.4263 40.35 50.3719L48.9438 46.075C49.0734 46.0101 49.1823 45.9103 49.2585 45.787C49.3347 45.6636 49.375 45.5215 49.375 45.3766Z" fill="#7986CB"/>
<defs>
<linearGradient id="paint0_linear_2364_1019" x1="40" y1="0" x2="40" y2="80" gradientUnits="userSpaceOnUse">
<stop stop-color="#050A12"/>
<stop offset="1" stop-color="#251C31"/>
</linearGradient>
</defs>
</svg>
