<svg width="80" height="80" viewBox="0 0 80 80" fill="none" xmlns="http://www.w3.org/2000/svg">
<circle cx="40" cy="40" r="40" fill="url(#paint0_linear_2364_1011)"/>
<circle cx="40" cy="40" r="39.5" stroke="#9A9B9C" stroke-opacity="0.3"/>
<g clip-path="url(#clip0_2364_1011)">
<path d="M53.0239 39.2759C56.3899 39.5051 59.0873 37.3484 59.7832 34.3747C58.5632 32.6591 56.0044 31.8443 53.7474 33.2658C51.7182 34.6916 51.1646 37.1843 53.0239 39.2759ZM43.911 16.048L31.7286 22.7251L34.5457 24.1919L46.7177 17.5352L43.911 16.048ZM32.3518 34.4131L44.2535 61.3643L47.431 63.3012L34.1235 25.0505L30.9536 23.364L18.2821 47.0902L20.5944 48.378L31.5175 34.3136C31.7565 34.048 32.1562 34.0395 32.3518 34.4132M53.6069 40.8215C50.1457 38.9308 50.1457 34.178 53.6069 32.2873C57.0681 30.3966 61.4181 32.7728 61.4181 36.5544C61.4181 40.336 57.0681 42.7123 53.6069 40.8215ZM57.5387 44.3773L61.973 57.2064L48.4321 65L43.4489 61.9307L34.5253 41.7418L20.7167 49.4617L17.0156 47.3963L30.4067 22.4017L43.892 15L48.0944 17.2399L52.3497 29.5858C44.1267 34.0849 48.2593 45.4914 57.5387 44.3772" fill="white"/>
</g>
<defs>
<linearGradient id="paint0_linear_2364_1011" x1="40" y1="0" x2="40" y2="80" gradientUnits="userSpaceOnUse">
<stop stop-color="#050A12"/>
<stop offset="1" stop-color="#251C31"/>
</linearGradient>
<clipPath id="clip0_2364_1011">
<rect width="45" height="50" fill="white" transform="translate(17 15)"/>
</clipPath>
</defs>
</svg>
