<svg width="80" height="80" viewBox="0 0 80 80" fill="none" xmlns="http://www.w3.org/2000/svg">
<circle cx="40" cy="40" r="40" fill="url(#paint0_linear_2364_995)"/>
<circle cx="40" cy="40" r="39.5" stroke="#9A9B9C" stroke-opacity="0.3"/>
<path d="M64.4805 53.4531C62.6992 53.9063 61.5977 53.4727 60.6094 51.9883C58.3906 48.6641 55.9414 45.4922 53.5781 42.2617C53.2734 41.8438 52.957 41.4336 52.5625 40.9141C49.7656 44.6875 46.9727 48.2813 44.3516 52.0195C43.4141 53.3555 42.4297 53.9375 40.6797 53.4649L51.1953 39.3516L41.4063 26.6055C43.0898 26.2774 44.2539 26.4453 45.2852 27.9531C47.5625 31.2813 50.0742 34.4492 52.5781 37.8008C55.0977 34.4609 57.5781 31.2891 59.9219 27.9922C60.8633 26.6563 61.875 26.1484 63.5664 26.6406C62.2852 28.3399 61.0313 30.0117 59.7695 31.6719C58.0664 33.9102 56.3945 36.1758 54.6289 38.3672C54 39.1484 54.1016 39.6563 54.6641 40.3945C57.9297 44.6875 61.1563 49.0234 64.4805 53.4531ZM15.5195 39.1172C15.8008 37.707 15.9883 36.2695 16.3789 34.8867C18.7227 26.5156 28.332 23.0352 34.9336 28.2227C38.8008 31.2656 39.7617 35.5547 39.5703 40.3906H17.7734C17.4453 49.0664 23.6914 54.3047 31.6523 51.6328C34.4453 50.6953 36.0898 48.5078 36.9141 45.7734C37.332 44.4024 38.0234 44.1875 39.3125 44.5781C38.6523 48 37.1563 50.8594 34.0313 52.6484C29.3438 55.3281 22.6523 54.4609 19.1328 50.7383C17.0547 48.5508 16.1719 45.8281 15.7813 42.8867C15.7227 42.418 15.6016 41.957 15.5078 41.4922C15.5156 40.7005 15.5195 39.9089 15.5195 39.1172ZM17.8125 38.5352H37.5117C37.3828 32.2617 33.4766 27.8047 28.1367 27.7656C22.2773 27.7188 18.0664 32.0703 17.8125 38.5352Z" fill="white"/>
<defs>
<linearGradient id="paint0_linear_2364_995" x1="40" y1="0" x2="40" y2="80" gradientUnits="userSpaceOnUse">
<stop stop-color="#050A12"/>
<stop offset="1" stop-color="#251C31"/>
</linearGradient>
</defs>
</svg>
