<svg width="81" height="80" viewBox="0 0 81 80" fill="none" xmlns="http://www.w3.org/2000/svg">
<circle cx="40.332" cy="40" r="40" fill="url(#paint0_linear_2046_357)"/>
<circle cx="40.332" cy="40" r="39.5" stroke="#9A9B9C" stroke-opacity="0.3"/>
<g clip-path="url(#clip0_2046_357)">
<path d="M53.126 15.499H27.2486C20.9434 15.499 15.832 20.6104 15.832 26.9155V52.793C15.832 59.0982 20.9434 64.2095 27.2486 64.2095H53.126C59.4312 64.2095 64.5425 59.0982 64.5425 52.793V26.9155C64.5425 20.6104 59.4312 15.499 53.126 15.499Z" fill="#242938"/>
<mask id="mask0_2046_357" style="mask-type:luminance" maskUnits="userSpaceOnUse" x="27" y="20" width="26" height="39">
<path d="M27.4375 20.8267H52.8126V58.8817H27.4375V20.8267Z" fill="white"/>
</mask>
<g mask="url(#mask0_2046_357)">
<path d="M33.784 58.8819C37.2851 58.8819 40.1265 56.0405 40.1265 52.5394V46.1968H33.784C30.283 46.1968 27.4414 49.0384 27.4414 52.5394C27.4414 56.0405 30.283 58.8819 33.784 58.8819Z" fill="#0ACF83"/>
<path d="M27.4414 39.8542C27.4414 36.3531 30.283 33.5117 33.784 33.5117H40.1265V46.1966H33.784C30.283 46.1966 27.4414 43.3552 27.4414 39.8542Z" fill="#A259FF"/>
<path d="M27.4414 27.1691C27.4414 23.668 30.283 20.8267 33.784 20.8267H40.1265V33.5117H33.784C30.283 33.5117 27.4414 30.6702 27.4414 27.1691Z" fill="#F24E1E"/>
<path d="M40.125 20.8267H46.4674C49.9685 20.8267 52.8101 23.668 52.8101 27.1691C52.8101 30.6702 49.9685 33.5117 46.4674 33.5117H40.125V20.8267Z" fill="#FF7262"/>
<path d="M52.8101 39.8542C52.8101 43.3552 49.9685 46.1966 46.4674 46.1966C42.9664 46.1966 40.125 43.3552 40.125 39.8542C40.125 36.3531 42.9664 33.5117 46.4674 33.5117C49.9685 33.5117 52.8101 36.3531 52.8101 39.8542Z" fill="#1ABCFE"/>
</g>
</g>
<defs>
<linearGradient id="paint0_linear_2046_357" x1="40.332" y1="0" x2="40.332" y2="80" gradientUnits="userSpaceOnUse">
<stop stop-color="#050A12"/>
<stop offset="1" stop-color="#251C31"/>
</linearGradient>
<clipPath id="clip0_2046_357">
<rect width="48.7105" height="48.7105" fill="white" transform="translate(15.832 15.499)"/>
</clipPath>
</defs>
</svg>
