<svg width="109" height="109" viewBox="0 0 109 109" fill="none" xmlns="http://www.w3.org/2000/svg">
<circle cx="54.1978" cy="54.1978" r="54.1978" fill="#251C31"/>
<g clip-path="url(#clip0_1968_509)">
<path d="M71.5312 21H36.4688C27.9256 21 21 27.9256 21 36.4688V71.5312C21 80.0744 27.9256 87 36.4688 87H71.5312C80.0744 87 87 80.0744 87 71.5312V36.4688C87 27.9256 80.0744 21 71.5312 21Z" fill="#242938"/>
<mask id="mask0_1968_509" style="mask-type:luminance" maskUnits="userSpaceOnUse" x="36" y="28" width="36" height="52">
<path d="M36.7266 28.2188H71.1084V79.7812H36.7266V28.2188Z" fill="white"/>
</mask>
<g mask="url(#mask0_1968_509)">
<path d="M45.3244 79.7813C50.0681 79.7813 53.9181 75.9314 53.9181 71.1877V62.5938H45.3244C40.5806 62.5938 36.7305 66.4439 36.7305 71.1877C36.7305 75.9314 40.5806 79.7813 45.3244 79.7813Z" fill="#0ACF83"/>
<path d="M36.7305 53.9999C36.7305 49.2562 40.5806 45.4062 45.3244 45.4062H53.9181V62.5936H45.3244C40.5806 62.5936 36.7305 58.7437 36.7305 53.9999Z" fill="#A259FF"/>
<path d="M36.7305 36.8124C36.7305 32.0687 40.5806 28.2188 45.3244 28.2188H53.9181V45.4063H45.3244C40.5806 45.4063 36.7305 41.5562 36.7305 36.8124Z" fill="#F24E1E"/>
<path d="M53.918 28.2188H62.5116C67.2554 28.2188 71.1056 32.0687 71.1056 36.8124C71.1056 41.5562 67.2554 45.4063 62.5116 45.4063H53.918V28.2188Z" fill="#FF7262"/>
<path d="M71.1056 53.9999C71.1056 58.7437 67.2554 62.5936 62.5116 62.5936C57.7679 62.5936 53.918 58.7437 53.918 53.9999C53.918 49.2562 57.7679 45.4062 62.5116 45.4062C67.2554 45.4062 71.1056 49.2562 71.1056 53.9999Z" fill="#1ABCFE"/>
</g>
</g>
<defs>
<clipPath id="clip0_1968_509">
<rect width="66" height="66" fill="white" transform="translate(21 21)"/>
</clipPath>
</defs>
</svg>
