<svg width="80" height="80" viewBox="0 0 80 80" fill="none" xmlns="http://www.w3.org/2000/svg">
<circle cx="40" cy="40" r="40" fill="url(#paint0_linear_2046_290)"/>
<circle cx="40" cy="40" r="39.5" stroke="#9A9B9C" stroke-opacity="0.3"/>
<g clip-path="url(#clip0_2046_290)">
<path d="M53.3889 14.9238H26.2069C19.5839 14.9238 14.2148 20.2928 14.2148 26.9159V54.0978C14.2148 60.7209 19.5839 66.0899 26.2069 66.0899H53.3889C60.0119 66.0899 65.3809 60.7209 65.3809 54.0978V26.9159C65.3809 20.2928 60.0119 14.9238 53.3889 14.9238Z" fill="#242938"/>
<path d="M43.1819 22.5309L54.3295 22.5186L35.6269 41.2114L30.7528 46.0583L25.207 40.5058L43.1819 22.5309ZM43.0782 39.2213C43.2229 39.0302 43.4891 39.1245 43.6912 39.1L54.3199 39.1026L44.6329 48.7801L39.0584 43.2398L43.0782 39.2213Z" fill="#44D1FD"/>
<path d="M33.5039 48.79L39.0606 43.2402L44.6351 48.7806L44.6583 48.8051L39.062 54.3495L33.5039 48.79Z" fill="#1FBCFD"/>
<path d="M39.0586 54.3495L44.6549 48.8052L54.3227 58.4826C50.6811 58.4907 47.0407 58.4798 43.4005 58.488C43.1931 58.5343 43.0647 58.3446 42.9322 58.2273L39.0586 54.3495Z" fill="#08589C"/>
</g>
<defs>
<linearGradient id="paint0_linear_2046_290" x1="40" y1="0" x2="40" y2="80" gradientUnits="userSpaceOnUse">
<stop stop-color="#050A12"/>
<stop offset="1" stop-color="#251C31"/>
</linearGradient>
<clipPath id="clip0_2046_290">
<rect width="51.1661" height="51.1661" fill="white" transform="translate(14.2148 14.9238)"/>
</clipPath>
</defs>
</svg>
