<svg width="113" height="113" viewBox="0 0 113 113" fill="none" xmlns="http://www.w3.org/2000/svg">
<circle cx="56.2873" cy="56.2873" r="56.2873" fill="#251C31"/>
<g clip-path="url(#clip0_1967_464)">
<path d="M75.125 21H36.875C27.5552 21 20 28.5552 20 37.875V76.125C20 85.4448 27.5552 93 36.875 93H75.125C84.4448 93 92 85.4448 92 76.125V37.875C92 28.5552 84.4448 21 75.125 21Z" fill="#242938"/>
<path d="M60.7627 31.7049L76.4494 31.6875L50.1314 57.9917L43.2726 64.8123L35.4688 56.9989L60.7627 31.7049ZM60.6167 55.1913C60.8203 54.9224 61.195 55.0552 61.4793 55.0206L76.4359 55.0242L62.8046 68.6423L54.9602 60.8461L60.6167 55.1913Z" fill="#44D1FD"/>
<path d="M47.1406 68.6557L54.9599 60.8462L62.8043 68.6424L62.8369 68.677L54.9619 76.4789L47.1406 68.6557Z" fill="#1FBCFD"/>
<path d="M54.9609 76.4786L62.8359 68.6768L76.4403 82.2946C71.3159 82.3061 66.1932 82.2907 61.0708 82.3022C60.7789 82.3674 60.5983 82.1005 60.4118 81.9354L54.9609 76.4786Z" fill="#08589C"/>
</g>
<defs>
<clipPath id="clip0_1967_464">
<rect width="72" height="72" fill="white" transform="translate(20 21)"/>
</clipPath>
</defs>
</svg>
