<svg width="80" height="80" viewBox="0 0 80 80" fill="none" xmlns="http://www.w3.org/2000/svg">
<circle cx="40" cy="40" r="40" fill="url(#paint0_linear_2364_999)"/>
<circle cx="40" cy="40" r="39.5" stroke="#9A9B9C" stroke-opacity="0.3"/>
<g clip-path="url(#clip0_2364_999)">
<path d="M63.7243 37.8039L42.1946 16.275C40.9555 15.0352 38.9446 15.0352 37.7036 16.275L33.2333 20.7461L38.9044 26.4172C40.2227 25.9723 41.7337 26.2707 42.7841 27.3211C43.8399 28.3781 44.136 29.902 43.6802 31.2246L49.1458 36.6906C50.468 36.2348 51.9942 36.5293 53.0497 37.5871C54.5263 39.0625 54.5263 41.4543 53.0497 42.9305C52.6988 43.2815 52.2822 43.56 51.8236 43.75C51.3651 43.94 50.8736 44.0378 50.3772 44.0378C49.8809 44.0378 49.3894 43.94 48.9308 43.75C48.4723 43.56 48.0557 43.2815 47.7048 42.9305C47.1777 42.4029 46.8184 41.7312 46.6721 40.9999C46.5258 40.2687 46.599 39.5105 46.8825 38.8207L41.7856 33.7238L41.7848 47.1383C42.1547 47.3204 42.4923 47.5615 42.7845 47.8523C44.2602 49.3277 44.2602 51.7188 42.7845 53.1973C41.3083 54.6727 38.9157 54.6727 37.4411 53.1973C35.9653 51.7191 35.9653 49.3281 37.4411 47.8523C37.795 47.4986 38.2155 47.2185 38.6782 47.0281V33.4895C38.2149 33.2999 37.7943 33.0195 37.4411 32.6649C36.3231 31.5477 36.054 29.907 36.6274 28.5336L31.0364 22.9426L16.2739 37.7043C15.6783 38.3001 15.3438 39.108 15.3438 39.9504C15.3438 40.7928 15.6783 41.6007 16.2739 42.1965L37.804 63.7254C39.0438 64.9652 41.054 64.9652 42.2958 63.7254L63.7247 42.2965C64.3201 41.7006 64.6546 40.8926 64.6545 40.0501C64.6544 39.2077 64.3199 38.3997 63.7243 37.8039Z" fill="#F34F29"/>
</g>
<defs>
<linearGradient id="paint0_linear_2364_999" x1="40" y1="0" x2="40" y2="80" gradientUnits="userSpaceOnUse">
<stop stop-color="#050A12"/>
<stop offset="1" stop-color="#251C31"/>
</linearGradient>
<clipPath id="clip0_2364_999">
<rect width="50" height="50" fill="white" transform="translate(15 15)"/>
</clipPath>
</defs>
</svg>
