<svg width="113" height="113" viewBox="0 0 113 113" fill="none" xmlns="http://www.w3.org/2000/svg">
<circle cx="56.2873" cy="56.2873" r="56.2873" fill="#251C31"/>
<path fill-rule="evenodd" clip-rule="evenodd" d="M55.999 16.4287C33.594 16.4287 15.4258 34.5928 15.4258 57.0019C15.4258 74.9289 27.0512 90.1368 43.1722 95.5024C45.1993 95.8786 45.9437 94.6222 45.9437 93.5506C45.9437 92.5831 45.9061 89.3869 45.8886 85.9967C34.6011 88.451 32.2193 81.2096 32.2193 81.2096C30.3737 76.5199 27.7144 75.2729 27.7144 75.2729C24.0325 72.7547 27.9919 72.8071 27.9919 72.8071C32.0654 73.0926 34.2114 76.9882 34.2114 76.9882C37.8301 83.1896 43.703 81.397 46.0183 80.361C46.3824 77.7387 47.4339 75.9481 48.5942 74.9349C39.5824 73.9103 30.1083 70.4307 30.1083 54.8841C30.1083 50.4545 31.6939 46.8351 34.2893 43.9931C33.8674 42.9718 32.4786 38.8451 34.6817 33.2565C34.6817 33.2565 38.0881 32.166 45.8416 37.4154C49.0787 36.5158 52.5502 36.0636 55.999 36.0481C59.4457 36.0636 62.9193 36.5144 66.1624 37.4141C73.9065 32.1647 77.3088 33.2551 77.3088 33.2551C79.5173 38.8431 78.1285 42.9705 77.7072 43.9917C80.3087 46.8337 81.883 50.4531 81.883 54.8828C81.883 70.4663 72.3914 73.8969 63.3567 74.902C64.8126 76.1611 66.1093 78.6309 66.1093 82.4156C66.1093 87.8443 66.0623 92.2135 66.0623 93.5499C66.0623 94.6296 66.7933 95.8947 68.8492 95.4963C84.9608 90.1253 96.5728 74.9221 96.5728 57.0019C96.5722 34.5942 78.406 16.4287 55.999 16.4287Z" fill="white"/>
<path d="M30.7944 74.6824C30.705 74.884 30.3879 74.9445 30.099 74.8067C29.8033 74.675 29.6387 74.4002 29.7341 74.198C29.8215 73.9897 30.1393 73.9326 30.4329 74.0717C30.7285 74.204 30.8965 74.4815 30.7937 74.6831L30.7944 74.6824ZM32.4378 76.516C32.2449 76.6954 31.8667 76.612 31.61 76.3278C31.344 76.0457 31.2942 75.6674 31.4911 75.4853C31.6913 75.3066 32.0582 75.3912 32.3242 75.6734C32.5889 75.9597 32.6413 76.3346 32.4384 76.5166L32.4378 76.516ZM34.0382 78.8521C33.7896 79.0254 33.3824 78.8635 33.1311 78.5027C32.8825 78.1412 32.8825 77.7079 33.1379 77.5352C33.3885 77.3619 33.7896 77.5184 34.0449 77.8758C34.2921 78.242 34.2921 78.676 34.0382 78.8521ZM36.2292 81.1103C36.0074 81.3555 35.5331 81.2896 35.1864 80.9557C34.8323 80.6285 34.7336 80.1629 34.956 79.9183C35.1817 79.6724 35.6581 79.741 36.0068 80.0729C36.3608 80.3994 36.4677 80.8657 36.2305 81.1096L36.2292 81.1103ZM39.2526 82.4211C39.1538 82.7389 38.6983 82.8833 38.2381 82.7476C37.7792 82.6085 37.4788 82.237 37.5729 81.9158C37.667 81.5953 38.1259 81.4455 38.5888 81.59C39.0477 81.7284 39.348 82.0979 39.2526 82.4211ZM42.5737 82.6636C42.5851 82.9982 42.1954 83.275 41.7137 83.2818C41.2279 83.2932 40.8349 83.0217 40.8302 82.6925C40.8302 82.3546 41.2118 82.0811 41.6969 82.0717C42.1786 82.063 42.5743 82.3317 42.5743 82.663L42.5737 82.6636ZM45.663 82.1382C45.7207 82.4641 45.3855 82.7993 44.9064 82.8887C44.4361 82.976 43.9994 82.7731 43.9389 82.45C43.8811 82.1154 44.2225 81.7801 44.6928 81.6934C45.1725 81.6108 45.6025 81.807 45.663 82.1382Z" fill="white"/>
</svg>
