<svg width="80" height="80" viewBox="0 0 80 80" fill="none" xmlns="http://www.w3.org/2000/svg">
<circle cx="40" cy="40" r="40" fill="url(#paint0_linear_2046_310)"/>
<circle cx="40" cy="40" r="39.5" stroke="#9A9B9C" stroke-opacity="0.3"/>
<path fill-rule="evenodd" clip-rule="evenodd" d="M40.7939 12.6748C24.872 12.6748 11.9609 25.583 11.9609 41.5077C11.9609 54.2473 20.2224 65.0547 31.6786 68.8677C33.1191 69.1351 33.6482 68.2422 33.6482 67.4807C33.6482 66.7931 33.6214 64.5218 33.609 62.1126C25.5877 63.8567 23.8951 58.7107 23.8951 58.7107C22.5835 55.378 20.6937 54.4918 20.6937 54.4918C18.0772 52.7023 20.8909 52.7395 20.8909 52.7395C23.7857 52.9424 25.3107 55.7108 25.3107 55.7108C27.8824 60.1177 32.0558 58.8439 33.7012 58.1076C33.96 56.2441 34.7072 54.9717 35.5318 54.2516C29.1276 53.5235 22.3949 51.0507 22.3949 40.0028C22.3949 36.8549 23.5217 34.2828 25.3661 32.2631C25.0663 31.5374 24.0794 28.6048 25.645 24.6333C25.645 24.6333 28.0657 23.8584 33.5756 27.5888C35.876 26.9495 38.3431 26.6281 40.7939 26.6171C43.2432 26.6281 45.7117 26.9485 48.0164 27.5878C53.5196 23.8574 55.9375 24.6323 55.9375 24.6323C57.5069 28.6034 56.52 31.5364 56.2206 32.2622C58.0694 34.2818 59.188 36.8539 59.188 40.0018C59.188 51.076 52.443 53.514 46.0225 54.2282C47.0572 55.123 47.9787 56.8782 47.9787 59.5677C47.9787 63.4256 47.9453 66.5305 47.9453 67.4802C47.9453 68.2475 48.4647 69.1465 49.9258 68.8634C61.3753 65.0466 69.6273 54.2426 69.6273 41.5077C69.6268 25.5839 56.7172 12.6748 40.7939 12.6748Z" fill="white"/>
<path d="M22.8821 54.0721C22.8186 54.2153 22.5932 54.2583 22.3879 54.1604C22.1778 54.0668 22.0608 53.8715 22.1286 53.7278C22.1907 53.5798 22.4166 53.5392 22.6252 53.6381C22.8353 53.7321 22.9546 53.9293 22.8816 54.0725L22.8821 54.0721ZM24.0499 55.3751C23.9129 55.5025 23.6441 55.4433 23.4617 55.2414C23.2726 55.0408 23.2373 54.772 23.3772 54.6426C23.5195 54.5156 23.7802 54.5758 23.9693 54.7763C24.1574 54.9797 24.1946 55.2461 24.0504 55.3755L24.0499 55.3751ZM25.1873 57.0352C25.0106 57.1584 24.7213 57.0433 24.5427 56.7869C24.366 56.53 24.366 56.2221 24.5475 56.0994C24.7256 55.9762 25.0106 56.0874 25.192 56.3414C25.3677 56.6017 25.3677 56.9101 25.1873 57.0352ZM26.7443 58.6399C26.5867 58.8142 26.2496 58.7674 26.0032 58.5301C25.7516 58.2976 25.6814 57.9667 25.8395 57.7929C25.9999 57.6182 26.3384 57.6669 26.5862 57.9027C26.8378 58.1348 26.9138 58.4661 26.7452 58.6395L26.7443 58.6399ZM28.8928 59.5715C28.8226 59.7973 28.4989 59.9 28.1719 59.8035C27.8458 59.7047 27.6323 59.4406 27.6992 59.2124C27.766 58.9847 28.0921 58.8782 28.4211 58.9808C28.7472 59.0792 28.9606 59.3418 28.8928 59.5715ZM31.2529 59.7438C31.261 59.9816 30.9841 60.1783 30.6418 60.1831C30.2966 60.1912 30.0173 59.9983 30.0139 59.7644C30.0139 59.5242 30.2851 59.3299 30.6298 59.3232C30.9722 59.317 31.2534 59.508 31.2534 59.7433L31.2529 59.7438ZM33.4483 59.3704C33.4893 59.602 33.2511 59.8403 32.9107 59.9038C32.5764 59.9658 32.2661 59.8216 32.2231 59.592C32.1821 59.3542 32.4246 59.116 32.7588 59.0544C33.0997 58.9956 33.4053 59.1351 33.4483 59.3704Z" fill="white"/>
<defs>
<linearGradient id="paint0_linear_2046_310" x1="40" y1="0" x2="40" y2="80" gradientUnits="userSpaceOnUse">
<stop stop-color="#050A12"/>
<stop offset="1" stop-color="#251C31"/>
</linearGradient>
</defs>
</svg>
