<svg width="80" height="80" viewBox="0 0 80 80" fill="none" xmlns="http://www.w3.org/2000/svg">
<circle cx="40" cy="40" r="40" fill="url(#paint0_linear_2046_409)"/>
<circle cx="40" cy="40" r="39.5" stroke="#9A9B9C" stroke-opacity="0.3"/>
<g clip-path="url(#clip0_2046_409)">
<path d="M53.7622 13.502H25.8252C19.0182 13.502 13.5 19.0201 13.5 25.8271V53.7641C13.5 60.5711 19.0182 66.0893 25.8252 66.0893H53.7622C60.5692 66.0893 66.0873 60.5711 66.0873 53.7641V25.8271C66.0873 19.0201 60.5692 13.502 53.7622 13.502Z" fill="#0073AA"/>
<path d="M22.1719 39.7942C22.1719 46.7692 26.2254 52.797 32.1033 55.6536L23.6975 32.6228C22.6899 34.8793 22.17 37.323 22.1719 39.7942ZM51.6894 38.9049C51.6894 36.7273 50.9072 35.2191 50.2363 34.0451C49.3429 32.5936 48.5056 31.3644 48.5056 29.9129C48.5056 28.293 49.7342 26.7852 51.4647 26.7852C51.5429 26.7852 51.6169 26.7949 51.6931 26.7992C48.558 23.927 44.3812 22.1733 39.7934 22.1733C33.6374 22.1733 28.2211 25.3319 25.0703 30.1161C25.4836 30.1284 25.8733 30.1372 26.2043 30.1372C28.0475 30.1372 30.9006 29.9133 30.9006 29.9133C31.8504 29.8575 31.9626 31.2527 31.0135 31.365C31.0135 31.365 30.059 31.4774 28.9967 31.5331L35.4136 50.6202L39.27 39.0545L36.5245 31.5324C35.5757 31.4768 34.6768 31.3644 34.6768 31.3644C33.7271 31.3087 33.8385 29.8568 34.7881 29.9129C34.7881 29.9129 37.6981 30.1364 39.4296 30.1364C41.2726 30.1364 44.1259 29.9129 44.1259 29.9129C45.0765 29.8568 45.1881 31.2521 44.2388 31.3644C44.2388 31.3644 43.2822 31.4768 42.222 31.5324L48.5902 50.475L50.3478 44.6016C51.1097 42.1641 51.6894 40.4135 51.6894 38.9049Z" fill="white"/>
<path d="M40.1035 41.336L34.8164 56.6993C36.4328 57.1754 38.1092 57.4172 39.7943 57.4173C41.7873 57.418 43.766 57.0802 45.6459 56.4183C45.597 56.3413 45.5551 56.26 45.5206 56.1755L40.1035 41.336ZM55.2564 31.3403C55.3366 31.9409 55.3763 32.5462 55.3752 33.1521C55.3752 34.9403 55.0412 36.9505 54.0352 39.464L48.6526 55.0264C53.8914 51.9714 57.4152 46.2959 57.4152 39.795C57.4154 36.7312 56.633 33.8501 55.2564 31.3403Z" fill="white"/>
<path d="M39.7915 19.2539C28.4651 19.2539 19.25 28.4684 19.25 39.7946C19.25 51.1222 28.4651 60.3363 39.7915 60.3363C51.1173 60.3363 60.3339 51.1222 60.3339 39.7946C60.3335 28.4684 51.1173 19.2539 39.7915 19.2539ZM39.7915 59.3949C28.9844 59.3949 20.1918 50.6021 20.1918 39.7946C20.1918 28.9877 28.9842 20.1958 39.7915 20.1958C50.598 20.1958 59.39 28.9877 59.39 39.7946C59.39 50.6021 50.598 59.3949 39.7915 59.3949Z" fill="white"/>
</g>
<defs>
<linearGradient id="paint0_linear_2046_409" x1="40" y1="0" x2="40" y2="80" gradientUnits="userSpaceOnUse">
<stop stop-color="#050A12"/>
<stop offset="1" stop-color="#251C31"/>
</linearGradient>
<clipPath id="clip0_2046_409">
<rect width="52.5873" height="52.5873" fill="white" transform="translate(13.5 13.502)"/>
</clipPath>
</defs>
</svg>
