<svg width="109" height="109" viewBox="0 0 109 109" fill="none" xmlns="http://www.w3.org/2000/svg">
<circle cx="54.1978" cy="54.1978" r="54.1978" fill="#251C31"/>
<g clip-path="url(#clip0_1964_451)">
<path d="M79.9091 32.3101L75.1882 84.959L53.9678 90.8156L32.8058 84.9671L28.0898 32.3101H79.9091Z" fill="#E44D26"/>
<path d="M54 86.3387L71.1472 81.6063L75.1813 36.6152H54V86.3387Z" fill="#F16529"/>
<path d="M44.824 49.5319H54.0012V43.0737H37.7344L37.8896 44.8063L39.4841 62.6034H54.0012V56.1452H45.417L44.824 49.5319ZM46.2861 65.8325H39.774L40.6827 75.9729L53.9714 79.6451L54.0012 79.637V72.9178L53.9728 72.9253L46.748 70.9832L46.2861 65.8325Z" fill="#EBEBEB"/>
<path d="M32.9102 18H36.2069V21.2425H39.2227V18H42.5196V27.8192H39.2229V24.5312H36.2071V27.8192H32.9104L32.9102 18ZM46.8547 21.2563H43.9528V18H53.0557V21.2563H50.152V27.8192H46.8553V21.2563H46.8547ZM54.5003 18H57.9378L60.0523 21.4502L62.1648 18H65.6037V27.8192H62.3204V22.9523L60.0523 26.4435H59.9954L57.7259 22.9523V27.8192H54.5003V18ZM67.2444 18H70.5421V24.5736H75.1782V27.8192H67.2442L67.2444 18Z" fill="white"/>
<path d="M53.9768 62.6034H61.9651L61.2119 70.9791L53.9766 72.9232V79.6421L67.2758 75.9729L67.3733 74.8817L68.8979 57.8794L69.0562 56.1452H53.9768V62.6034ZM53.9768 49.5161V49.5319H69.6464L69.7764 48.0804L70.0722 44.8063L70.2272 43.0737H53.9768V49.5161Z" fill="white"/>
</g>
<defs>
<clipPath id="clip0_1964_451">
<rect width="52" height="73" fill="white" transform="translate(28 18)"/>
</clipPath>
</defs>
</svg>
