<svg width="80" height="80" viewBox="0 0 80 80" fill="none" xmlns="http://www.w3.org/2000/svg">
<circle cx="40" cy="40" r="40" fill="url(#paint0_linear_2046_321)"/>
<circle cx="40" cy="40" r="39.5" stroke="#9A9B9C" stroke-opacity="0.3"/>
<g clip-path="url(#clip0_2046_321)">
<path d="M58.9789 23.8462L55.4948 62.7031L39.8333 67.0255L24.2149 62.7091L20.7344 23.8462H58.9789Z" fill="#E44D26"/>
<path d="M39.8555 63.7213L52.5108 60.2285L55.488 27.0234H39.8555V63.7213Z" fill="#F16529"/>
<path d="M33.084 36.5564H39.8571V31.79H27.8516L27.9661 33.0688L29.1429 46.2036H39.8571V41.4373H33.5216L33.084 36.5564ZM34.1631 48.5869H29.3568L30.0276 56.0708L39.8351 58.7811L39.8571 58.7751V53.8161L39.8361 53.8216L34.504 52.3883L34.1631 48.5869Z" fill="#EBEBEB"/>
<path d="M24.293 13.2847H26.7261V15.6778H28.9518V13.2847H31.3851V20.5316H28.952V18.1049H26.7262V20.5316H24.2931L24.293 13.2847ZM34.5846 15.6879H32.4429V13.2847H39.1611V15.6879H37.0181V20.5316H34.585V15.6879H34.5846ZM40.2273 13.2847H42.7643L44.3249 15.8311L45.884 13.2847H48.4221V20.5316H45.9989V16.9396L44.3249 19.5163H44.2829L42.608 16.9396V20.5316H40.2273V13.2847ZM49.6329 13.2847H52.0668V18.1363H55.4884V20.5316H49.6328L49.6329 13.2847Z" fill="white"/>
<path d="M39.84 46.2036H45.7357L45.1798 52.3853L39.8398 53.8201V58.7789L49.6552 56.0708L49.7271 55.2655L50.8524 42.7172L50.9692 41.4373H39.84V46.2036ZM39.84 36.5448V36.5564H51.4048L51.5008 35.4851L51.719 33.0688L51.8334 31.79H39.84V36.5448Z" fill="white"/>
</g>
<defs>
<linearGradient id="paint0_linear_2046_321" x1="40" y1="0" x2="40" y2="80" gradientUnits="userSpaceOnUse">
<stop stop-color="#050A12"/>
<stop offset="1" stop-color="#251C31"/>
</linearGradient>
<clipPath id="clip0_2046_321">
<rect width="38.378" height="53.8768" fill="white" transform="translate(20.668 13.2847)"/>
</clipPath>
</defs>
</svg>
