<svg width="113" height="113" viewBox="0 0 113 113" fill="none" xmlns="http://www.w3.org/2000/svg">
<circle cx="56.2873" cy="56.2873" r="56.2873" fill="#251C31"/>
<g clip-path="url(#clip0_1967_474)">
<path d="M56.0008 98.7627C79.0657 98.7627 97.7637 80.0651 97.7637 57.0002C97.7637 33.9352 79.0657 15.2373 56.0008 15.2373C32.9359 15.2373 14.2383 33.9352 14.2383 57.0002C14.2383 80.0651 32.9359 98.7627 56.0008 98.7627Z" fill="white"/>
<path d="M56 13C31.6996 13 12 32.6996 12 57C12 81.3004 31.6996 101 56 101C80.3004 101 100 81.3007 100 57C100 32.6996 80.3007 13 56 13ZM56 17.4746C77.8292 17.4746 95.5254 35.1708 95.5254 57C95.5254 78.8292 77.8292 96.5254 56 96.5254C34.1708 96.5254 16.4746 78.8292 16.4746 57C16.4746 35.1708 34.1708 17.4746 56 17.4746Z" fill="#4000BF"/>
<path d="M56.4979 25.6777C73.7968 25.6777 87.8201 39.7014 87.8201 56.9999C87.8201 74.2984 73.7968 88.3217 56.4976 88.3217C39.1991 88.3217 25.1758 74.2984 25.1758 56.9999C25.1758 52.7725 26.0135 48.7403 27.5318 45.0604C29.7487 48.0796 33.324 50.0393 37.3566 50.0393C44.0838 50.0393 49.5373 44.5857 49.5373 37.8585C49.5373 33.8256 47.5776 30.2506 44.5585 28.0338C48.2383 26.5155 52.2702 25.6777 56.4979 25.6777Z" fill="url(#paint0_linear_1967_474)"/>
</g>
<defs>
<linearGradient id="paint0_linear_1967_474" x1="3157.39" y1="6290.07" x2="3157.39" y2="25.6777" gradientUnits="userSpaceOnUse">
<stop stop-color="#7400E1"/>
<stop offset="1" stop-color="#4000BF"/>
</linearGradient>
<clipPath id="clip0_1967_474">
<rect width="88" height="88" fill="white" transform="translate(12 13)"/>
</clipPath>
</defs>
</svg>
