<svg width="80" height="80" viewBox="0 0 80 80" fill="none" xmlns="http://www.w3.org/2000/svg">
<circle cx="40" cy="40" r="40" fill="url(#paint0_linear_2046_298)"/>
<circle cx="40" cy="40" r="39.5" stroke="#9A9B9C" stroke-opacity="0.3"/>
<g clip-path="url(#clip0_2046_298)">
<path d="M39.7953 70.1846C56.1862 70.1846 69.4737 56.8973 69.4737 40.5065C69.4737 24.1156 56.1862 10.8281 39.7953 10.8281C23.4044 10.8281 10.1172 24.1156 10.1172 40.5065C10.1172 56.8973 23.4044 70.1846 39.7953 70.1846Z" fill="white"/>
<path d="M39.7955 9.23828C22.5267 9.23828 8.52734 23.2376 8.52734 40.5064C8.52734 57.7752 22.5267 71.7746 39.7955 71.7746C57.0643 71.7746 71.0636 57.7755 71.0636 40.5064C71.0636 23.2376 57.0645 9.23828 39.7955 9.23828ZM39.7955 12.4181C55.3082 12.4181 67.8838 24.9938 67.8838 40.5064C67.8838 56.0191 55.3082 68.5948 39.7955 68.5948C24.2828 68.5948 11.7072 56.0191 11.7072 40.5064C11.7072 24.9938 24.2828 12.4181 39.7955 12.4181Z" fill="#4000BF"/>
<path d="M40.1494 18.2476C52.4427 18.2476 62.4082 28.2133 62.4082 40.5063C62.4082 52.7994 52.4427 62.7649 40.1492 62.7649C27.8561 62.7649 17.8906 52.7994 17.8906 40.5063C17.8906 37.5021 18.4859 34.6367 19.5649 32.0217C21.1403 34.1672 23.6811 35.5599 26.5468 35.5599C31.3274 35.5599 35.2029 31.6843 35.2029 26.9037C35.2029 24.0378 33.8103 21.4972 31.6647 19.9219C34.2798 18.8429 37.145 18.2476 40.1494 18.2476Z" fill="url(#paint1_linear_2046_298)"/>
</g>
<defs>
<linearGradient id="paint0_linear_2046_298" x1="40" y1="0" x2="40" y2="80" gradientUnits="userSpaceOnUse">
<stop stop-color="#050A12"/>
<stop offset="1" stop-color="#251C31"/>
</linearGradient>
<linearGradient id="paint1_linear_2046_298" x1="2243.77" y1="4469.98" x2="2243.77" y2="18.2476" gradientUnits="userSpaceOnUse">
<stop stop-color="#7400E1"/>
<stop offset="1" stop-color="#4000BF"/>
</linearGradient>
<clipPath id="clip0_2046_298">
<rect width="62.5363" height="62.5363" fill="white" transform="translate(8.52734 9.23828)"/>
</clipPath>
</defs>
</svg>
