<svg width="96" height="96" viewBox="0 0 96 96" fill="none" xmlns="http://www.w3.org/2000/svg">
<circle cx="48" cy="48" r="48" fill="#251C31"/>
<g clip-path="url(#clip0_1966_456)">
<path d="M16 55.5099H18.121V46.6131L21.404 54.3683C21.7905 55.3086 22.32 55.6385 23.361 55.6385C24.402 55.6385 24.91 55.3086 25.2965 54.3683L28.5795 46.6131V55.5094H30.7005V46.628C30.7005 45.7604 30.3745 45.3413 29.7005 45.1256C28.089 44.5922 27.009 45.0528 26.519 46.2088L23.2985 53.8641L20.1795 46.2088C19.711 45.0528 18.6095 44.5922 17 45.1256C16.326 45.3413 16 45.7604 16 46.628V55.5099ZM32.465 48.2674H34.584V53.1692C34.5645 53.4349 34.664 54.0596 35.826 54.0803H40.4375V48.2424H42.5625C42.5725 48.2424 42.5585 56.2027 42.5585 56.2362C42.57 58.1991 40.2675 58.6247 39.205 58.6581H32.51V57.143L39.217 57.1409C40.582 56.9895 40.42 56.267 40.42 56.0263V55.435H35.914C33.8165 55.4143 32.4825 54.4411 32.465 53.3222C32.463 53.2208 32.51 48.3173 32.465 48.2674Z" fill="#00618A"/>
<path d="M44.1953 55.5101H50.2928C51.0058 55.5101 51.6993 55.3502 52.2498 55.0766C53.1678 54.6303 53.6148 54.0226 53.6148 53.2278V51.582C53.6148 50.9323 53.1068 50.3245 52.1068 49.9218C51.5773 49.704 50.9233 49.5898 50.2923 49.5898H47.7218C46.8663 49.5898 46.4583 49.3157 46.3568 48.7101C46.3373 48.6373 46.3373 48.5794 46.3373 48.5066V47.4813C46.3373 47.4234 46.3373 47.3649 46.3568 47.2927C46.4583 46.8321 46.6828 46.7014 47.4368 46.6286L47.6418 46.6143H53.6963V45.114H47.7438C46.8883 45.114 46.4393 45.1719 46.0308 45.301C44.7673 45.7202 44.2163 46.3842 44.2163 47.5402V48.854C44.2163 49.8645 45.2963 50.732 47.1108 50.9333L47.7223 50.9626H49.9253C50.0073 50.9626 50.0873 50.9626 50.1498 50.9769C50.8218 51.0348 51.1068 51.1655 51.3118 51.4253C51.4173 51.5289 51.4778 51.6766 51.4738 51.828V53.1439C51.4738 53.3017 51.3723 53.5051 51.1693 53.6772C50.9858 53.8515 50.6793 53.9657 50.2728 53.9949L50.0483 54.0093H44.1953V55.5101ZM66.8438 52.8952C66.8438 54.4412 67.9258 55.3066 70.1053 55.4808L70.7188 55.5101H76.2443V54.0077H70.6778C69.4338 54.0077 68.9648 53.6757 68.9648 52.8809V45.1108H66.8458V52.8947L66.8438 52.8952ZM54.9688 52.9739V47.6178C54.9688 46.2583 55.8693 45.4328 57.6463 45.173C57.8359 45.1439 58.0272 45.1294 58.2188 45.1294H62.2423C62.4473 45.1294 62.6308 45.1438 62.8363 45.173C64.6138 45.4322 65.5123 46.2583 65.5123 47.6178V52.9739C65.5123 54.0778 65.1313 54.6675 64.2508 55.0532L66.3408 57.056H63.8778L62.1883 55.4352L60.4873 55.5494H58.2198C57.7984 55.548 57.3791 55.4851 56.9738 55.3624C55.6243 54.9724 54.9698 54.2191 54.9698 52.9739H54.9688ZM57.2578 52.8432C57.2578 52.916 57.2773 52.9882 57.2988 53.0759C57.4218 53.6985 57.9728 54.0449 58.8103 54.0449H60.7363L58.9668 52.3475H61.4298L62.9728 53.8292C63.2578 53.6672 63.4433 53.4222 63.5098 53.1051C63.5293 53.0323 63.5293 52.9601 63.5293 52.8873V47.7512C63.5293 47.6932 63.5293 47.6205 63.5098 47.5477C63.3868 46.9686 62.8358 46.6366 62.0178 46.6366H58.8108C57.8713 46.6366 57.2583 47.0701 57.2583 47.7512L57.2578 52.8432Z" fill="#E48E00"/>
<path d="M78.1082 42.6185C76.8057 42.5813 75.8092 42.7099 74.9577 43.0919C74.7157 43.1997 74.3287 43.2018 74.2897 43.5238C74.4227 43.673 74.4442 43.8951 74.5497 44.0757C74.7527 44.4264 75.0967 44.8933 75.4032 45.1382L76.4402 45.9266C77.0767 46.3394 77.7897 46.5763 78.4052 46.9891C78.7667 47.234 79.1257 47.5411 79.4792 47.8173C79.6532 47.9523 79.7702 48.1658 79.9987 48.2508V48.2115C79.8797 48.0495 79.8482 47.8274 79.7387 47.6595L79.2562 47.1469C78.7857 46.4828 78.1877 45.8995 77.5512 45.4139C77.0432 45.0277 75.9107 44.505 75.6977 43.8781L75.6607 43.8388C76.0202 43.7974 76.4422 43.6582 76.7722 43.5647C77.3307 43.4048 77.8287 43.4462 78.4032 43.2884L79.1827 43.0499V42.8942C78.8917 42.5765 78.6847 42.1574 78.3662 41.8689C77.5382 41.1199 76.6317 40.3687 75.6982 39.7418C75.1807 39.3954 74.5422 39.1712 73.9932 38.8764C73.8097 38.777 73.4852 38.7271 73.3622 38.5608C73.0752 38.1709 72.9187 37.6768 72.6962 37.2221L71.3622 34.2295C71.0812 33.5469 70.8972 32.8722 70.5457 32.2602C68.8642 29.3197 67.0517 27.5454 64.2447 25.8023C63.6492 25.431 62.9282 25.2854 62.1707 25.0947L60.9462 25.0161C60.6982 24.904 60.4402 24.5804 60.2062 24.4248C59.2767 23.8 56.8917 22.4432 56.2022 24.2277C55.7687 25.3545 56.8527 26.4542 57.2412 27.0253C57.5127 27.4258 57.8622 27.8742 58.0557 28.3242C58.1847 28.619 58.2062 28.9154 58.3157 29.2289C58.5852 30.0008 58.8197 30.8391 59.1692 31.5531C59.3452 31.9144 59.5382 32.2942 59.7612 32.6156C59.8977 32.8127 60.1322 32.9019 60.1692 33.2069C59.9407 33.5474 59.9272 34.0744 59.7982 34.5058C59.2182 36.4459 59.4367 38.8573 60.2807 40.2954C60.5387 40.7352 61.1477 41.6814 61.9857 41.3185C62.7182 41.0008 62.5542 40.0196 62.7632 39.1521C62.8122 38.9571 62.7827 38.8116 62.8747 38.6809V38.7202L63.5427 40.1376C64.0367 40.9823 64.9117 41.8641 65.6542 42.4597C66.0407 42.7689 66.3437 43.3044 66.8417 43.485V43.4435H66.8047C66.7072 43.2858 66.5567 43.2193 66.4337 43.0908C66.1427 42.788 65.8202 42.4124 65.5822 42.0655C64.9062 41.0922 64.3087 40.0255 63.7657 38.9152C63.5057 38.386 63.2792 37.8006 63.0607 37.2614C62.9767 37.0537 62.9787 36.7386 62.8027 36.6324C62.5627 37.0266 62.2092 37.3464 62.0232 37.8134C61.7262 38.5582 61.6892 39.4693 61.5777 40.4117L61.5037 40.451C60.9882 40.3182 60.8062 39.754 60.6152 39.27C60.1287 38.0455 60.0392 36.0719 60.4667 34.663C60.5762 34.2981 61.0762 33.1479 60.8732 32.8122C60.7777 32.4759 60.4592 32.2809 60.2812 32.0238C60.0485 31.679 59.8496 31.3098 59.6877 30.922C59.2912 29.9652 59.1057 28.8947 58.6877 27.9294C58.4887 27.4667 58.1507 26.9998 57.8732 26.5891C57.5647 26.1349 57.2207 25.8007 56.9827 25.2504C56.8987 25.0554 56.7837 24.7419 56.9087 24.5406C56.9477 24.4057 57.0062 24.3499 57.1312 24.3063C57.3462 24.1299 57.9457 24.3642 58.1682 24.462C58.7637 24.7255 59.2602 24.9746 59.7637 25.3295C60.0037 25.4995 60.2482 25.8294 60.5412 25.9208H60.8752C61.3967 26.0472 61.9807 25.958 62.4692 26.1158C63.3307 26.3936 64.1042 26.8276 64.8032 27.2989C66.9397 28.7306 68.6862 30.7706 69.8812 33.2048C70.0747 33.5968 70.1567 33.9703 70.3267 34.3857C70.6687 35.224 71.0982 36.0873 71.4382 36.907C71.7782 37.7268 72.1082 38.5507 72.5867 39.2313C72.8387 39.5883 73.8132 39.779 74.2547 39.9782C74.5652 40.1174 75.0732 40.2624 75.3662 40.4515C75.9287 40.8107 76.4717 41.2378 76.9992 41.6325C77.2607 41.8317 78.0697 42.2636 78.1107 42.618L78.1082 42.6185ZM61.5397 27.6149C61.3154 27.6111 61.0917 27.6375 60.8737 27.6936V27.7329H60.9107C61.0397 28.0171 61.2682 28.1999 61.4282 28.4426L61.7992 29.2687L61.8362 29.2315C62.0667 29.0594 62.1702 28.7832 62.1702 28.364C62.0767 28.2604 62.0647 28.1319 61.9847 28.0091C61.8792 27.845 61.6747 27.7541 61.5397 27.6149Z" fill="#00618A"/>
</g>
<defs>
<clipPath id="clip0_1966_456">
<rect width="64" height="68" fill="white" transform="translate(16 7)"/>
</clipPath>
</defs>
</svg>
