<svg width="80" height="80" viewBox="0 0 80 80" fill="none" xmlns="http://www.w3.org/2000/svg">
<circle cx="40" cy="40" r="40" fill="url(#paint0_linear_2046_394)"/>
<circle cx="40" cy="40" r="39.5" stroke="#9A9B9C" stroke-opacity="0.3"/>
<g clip-path="url(#clip0_2046_394)">
<path d="M13.332 46.2585H15.0995V38.8445L17.8354 45.3071C18.1574 46.0907 18.5987 46.3657 19.4662 46.3657C20.3337 46.3657 20.757 46.0907 21.0791 45.3071L23.8149 38.8445V46.2581H25.5824V38.8569C25.5824 38.1339 25.3108 37.7846 24.7491 37.6049C23.4062 37.1604 22.5062 37.5443 22.0979 38.5076L19.4141 44.887L16.8149 38.5076C16.4245 37.5443 15.5066 37.1604 14.1654 37.6049C13.6037 37.7846 13.332 38.1339 13.332 38.8569V46.2585ZM27.0529 40.2231H28.8187V44.308C28.8024 44.5293 28.8854 45.0499 29.8537 45.0672H33.6966V40.2023H35.4674C35.4758 40.2023 35.4641 46.8358 35.4641 46.8637C35.4737 48.4995 33.5549 48.8541 32.6695 48.882H27.0904V47.6194L32.6795 47.6176C33.817 47.4915 33.682 46.8894 33.682 46.6888V46.1961H29.927C28.1791 46.1788 27.0674 45.3678 27.0529 44.4355C27.0512 44.3509 27.0904 40.2647 27.0529 40.2231Z" fill="#00618A"/>
<path d="M36.8281 46.2583H41.9094C42.5035 46.2583 43.0815 46.125 43.5402 45.8971C44.3052 45.5252 44.6777 45.0187 44.6777 44.3564V42.9849C44.6777 42.4435 44.2544 41.937 43.421 41.6015C42.9798 41.4199 42.4348 41.3248 41.909 41.3248H39.7669C39.054 41.3248 38.714 41.0963 38.6294 40.5916C38.6131 40.531 38.6131 40.4827 38.6131 40.4221V39.5676C38.6131 39.5194 38.6131 39.4707 38.6294 39.4105C38.714 39.0267 38.901 38.9178 39.5294 38.8571L39.7002 38.8452H44.7456V37.5949H39.7852C39.0723 37.5949 38.6981 37.6432 38.3577 37.7508C37.3048 38.1001 36.8456 38.6535 36.8456 39.6168V40.7116C36.8456 41.5536 37.7456 42.2766 39.2577 42.4444L39.7673 42.4687H41.6031C41.6715 42.4687 41.7381 42.4687 41.7902 42.4807C42.3502 42.5289 42.5877 42.6378 42.7585 42.8543C42.8465 42.9406 42.8969 43.0637 42.8935 43.1899V44.2865C42.8935 44.418 42.809 44.5875 42.6398 44.731C42.4869 44.8762 42.2315 44.9713 41.8927 44.9957L41.7056 45.0076H36.8281V46.2583ZM55.7019 44.0793C55.7019 45.3676 56.6035 46.0887 58.4198 46.234L58.931 46.2583H63.5356V45.0063H58.8969C57.8602 45.0063 57.4694 44.7296 57.4694 44.0673V37.5923H55.7035V44.0788L55.7019 44.0793ZM45.806 44.1448V39.6814C45.806 38.5485 46.5565 37.8606 48.0373 37.6441C48.1953 37.6199 48.3547 37.6077 48.5144 37.6078H51.8673C52.0381 37.6078 52.191 37.6197 52.3623 37.6441C53.8435 37.8601 54.5923 38.5485 54.5923 39.6814V44.1448C54.5923 45.0648 54.2748 45.5562 53.541 45.8776L55.2827 47.5466H53.2302L51.8223 46.1959L50.4048 46.2911H48.5152C48.164 46.2899 47.8146 46.2375 47.4769 46.1352C46.3523 45.8103 45.8069 45.1825 45.8069 44.1448H45.806ZM47.7135 44.0359C47.7135 44.0966 47.7298 44.1568 47.7477 44.2298C47.8502 44.7487 48.3094 45.0373 49.0073 45.0373H50.6123L49.1377 43.6229H51.1902L52.476 44.8576C52.7135 44.7225 52.8681 44.5185 52.9235 44.2542C52.9398 44.1935 52.9398 44.1333 52.9398 44.0726V39.7925C52.9398 39.7443 52.9398 39.6836 52.9235 39.623C52.821 39.1404 52.3619 38.8637 51.6802 38.8637H49.0077C48.2248 38.8637 47.714 39.225 47.714 39.7925L47.7135 44.0359Z" fill="#E48E00"/>
<path d="M65.0888 35.5159C64.0034 35.4849 63.173 35.5921 62.4634 35.9104C62.2618 36.0002 61.9393 36.002 61.9068 36.2703C62.0176 36.3947 62.0355 36.5797 62.1234 36.7303C62.2926 37.0224 62.5793 37.4116 62.8347 37.6157L63.6988 38.2727C64.2293 38.6166 64.8234 38.8141 65.3363 39.1581C65.6376 39.3622 65.9368 39.618 66.2313 39.8483C66.3763 39.9607 66.4738 40.1387 66.6643 40.2095V40.1767C66.5651 40.0417 66.5388 39.8567 66.4476 39.7168L66.0455 39.2896C65.6534 38.7362 65.1551 38.2501 64.6247 37.8454C64.2013 37.5236 63.2576 37.088 63.0801 36.5656L63.0493 36.5328C63.3488 36.4983 63.7005 36.3823 63.9755 36.3044C64.4409 36.1711 64.8559 36.2057 65.3347 36.0742L65.9843 35.8754V35.7457C65.7418 35.4809 65.5693 35.1316 65.3038 34.8913C64.6138 34.267 63.8584 33.641 63.0805 33.1186C62.6493 32.83 62.1172 32.6432 61.6597 32.3975C61.5068 32.3147 61.2363 32.2731 61.1338 32.1345C60.8947 31.8096 60.7643 31.3978 60.5788 31.0189L59.4672 28.5251C59.233 27.9562 59.0797 27.394 58.7868 26.884C57.3855 24.4336 55.8751 22.9549 53.5359 21.5024C53.0397 21.193 52.4388 21.0717 51.8076 20.9127L50.7872 20.8472C50.5805 20.7538 50.3655 20.4842 50.1705 20.3545C49.3959 19.8339 47.4084 18.7032 46.8338 20.1902C46.4726 21.1292 47.3759 22.0456 47.6997 22.5215C47.9259 22.8553 48.2172 23.229 48.3784 23.604C48.4859 23.8497 48.5038 24.0967 48.5951 24.3579C48.8197 25.0011 49.0151 25.6997 49.3063 26.2947C49.453 26.5958 49.6138 26.9123 49.7997 27.1802C49.9134 27.3444 50.1088 27.4188 50.1397 27.6729C49.9493 27.9567 49.938 28.3958 49.8305 28.7553C49.3472 30.3721 49.5293 32.3815 50.2326 33.5799C50.4476 33.9465 50.9551 34.735 51.6534 34.4326C52.2638 34.1679 52.1272 33.3502 52.3013 32.6272C52.3422 32.4648 52.3176 32.3435 52.3943 32.2346V32.2673L52.9509 33.4485C53.3626 34.1524 54.0918 34.8873 54.7105 35.3835C55.0326 35.6412 55.2851 36.0874 55.7001 36.238V36.2034H55.6693C55.588 36.072 55.4626 36.0166 55.3601 35.9095C55.1176 35.6571 54.8488 35.3441 54.6505 35.055C54.0872 34.244 53.5893 33.3551 53.1368 32.4298C52.9201 31.9889 52.7313 31.501 52.5493 31.0516C52.4793 30.8785 52.4809 30.616 52.3343 30.5275C52.1343 30.856 51.8397 31.1225 51.6847 31.5116C51.4372 32.1323 51.4063 32.8915 51.3134 33.6769L51.2518 33.7097C50.8222 33.599 50.6705 33.1288 50.5113 32.7255C50.1059 31.7051 50.0313 30.0604 50.3876 28.8864C50.4788 28.5822 50.8955 27.6238 50.7263 27.344C50.6468 27.0637 50.3813 26.9013 50.233 26.687C50.0391 26.3997 49.8734 26.092 49.7384 25.7688C49.408 24.9715 49.2534 24.0794 48.9051 23.275C48.7393 22.8894 48.4576 22.5003 48.2263 22.1581C47.9693 21.7796 47.6826 21.5011 47.4843 21.0424C47.4143 20.88 47.3184 20.6188 47.4226 20.451C47.4551 20.3385 47.5038 20.2921 47.608 20.2558C47.7872 20.1088 48.2868 20.304 48.4722 20.3855C48.9684 20.6051 49.3822 20.8127 49.8018 21.1084C50.0018 21.2501 50.2055 21.525 50.4497 21.6011H50.728C51.1626 21.7065 51.6493 21.6321 52.0563 21.7636C52.7743 21.9952 53.4188 22.3568 54.0013 22.7495C55.7818 23.9426 57.2372 25.6426 58.233 27.6711C58.3943 27.9978 58.4626 28.3091 58.6043 28.6553C58.8893 29.3539 59.2472 30.0733 59.5305 30.7564C59.8138 31.4395 60.0888 32.1261 60.4876 32.6932C60.6976 32.9907 61.5097 33.1496 61.8776 33.3157C62.1363 33.4316 62.5597 33.5525 62.8038 33.7101C63.2726 34.0094 63.7251 34.3653 64.1647 34.6942C64.3826 34.8603 65.0568 35.2202 65.0909 35.5155L65.0888 35.5159ZM51.2818 23.0129C51.0949 23.0097 50.9084 23.0318 50.7268 23.0785V23.1112H50.7576C50.8651 23.3481 51.0555 23.5004 51.1888 23.7027L51.498 24.3911L51.5288 24.3601C51.7209 24.2167 51.8072 23.9865 51.8072 23.6372C51.7293 23.5508 51.7193 23.4437 51.6526 23.3414C51.5647 23.2046 51.3943 23.1289 51.2818 23.0129Z" fill="#00618A"/>
</g>
<defs>
<linearGradient id="paint0_linear_2046_394" x1="40" y1="0" x2="40" y2="80" gradientUnits="userSpaceOnUse">
<stop stop-color="#050A12"/>
<stop offset="1" stop-color="#251C31"/>
</linearGradient>
<clipPath id="clip0_2046_394">
<rect width="53.3333" height="56.6667" fill="white" transform="translate(13.332 5.8335)"/>
</clipPath>
</defs>
</svg>
