<svg width="113" height="113" viewBox="0 0 113 113" fill="none" xmlns="http://www.w3.org/2000/svg">
<circle cx="56.2873" cy="56.2873" r="56.2873" fill="#251C31"/>
<g clip-path="url(#clip0_1967_463)">
<path d="M62.3942 21C61.8736 21 61.3902 21.1105 60.9438 21.2578C61.8922 21.8835 62.4128 22.7118 62.6729 23.6507C62.6918 23.7796 62.7289 23.8717 62.7475 24.0004C62.766 24.1109 62.7846 24.2215 62.7846 24.3317C62.8591 25.9516 62.3571 26.154 62.0036 27.1113C61.4644 28.3447 61.6132 29.6701 62.264 30.7376C62.3197 30.8665 62.3942 31.0138 62.487 31.1427C61.7805 26.4854 65.704 25.786 66.429 24.3317C66.4847 23.0618 65.425 22.2148 64.5882 21.6259C63.7887 21.147 63.0636 21 62.3942 21ZM68.3069 22.0491C68.2327 22.4726 68.2884 22.3621 68.2698 22.5832C68.2512 22.7305 68.2512 22.9145 68.2327 23.0618C68.1956 23.2088 68.1584 23.3561 68.1025 23.5034C68.0653 23.6509 68.0097 23.798 67.954 23.9452C67.8794 24.0925 67.8237 24.2215 67.7492 24.3685C67.6935 24.4422 67.6564 24.516 67.6004 24.5895L67.4891 24.7552C67.3962 24.8841 67.3032 25.013 67.2101 25.1233C67.0984 25.2338 67.0056 25.3627 66.8754 25.4546V25.473C66.7637 25.5652 66.6523 25.6757 66.5221 25.7676C66.1317 26.0622 65.6854 26.283 65.2762 26.5592C65.1462 26.651 65.016 26.7248 64.9044 26.8354C64.7742 26.9272 64.6625 27.0191 64.5511 27.1299C64.4209 27.2402 64.3281 27.3507 64.2164 27.4797C64.1236 27.5899 64.012 27.7191 63.9374 27.8477C63.8446 27.9767 63.7518 28.1053 63.6773 28.2342C63.6027 28.3818 63.5471 28.5104 63.4725 28.6574C63.4168 28.805 63.3612 28.9339 63.324 29.0809C63.2681 29.2466 63.2309 29.3939 63.1938 29.5412C63.1752 29.6149 63.1752 29.7068 63.1567 29.7806C63.1378 29.8541 63.1378 29.9279 63.1196 30.0014C63.1196 30.1487 63.1007 30.3144 63.1007 30.4617C63.1007 30.5722 63.1007 30.6825 63.1196 30.793C63.1196 30.9403 63.1381 31.0876 63.1752 31.2532C63.1938 31.4005 63.2309 31.5475 63.2681 31.6948C63.324 31.8424 63.3612 31.9894 63.4171 32.1367C63.454 32.2286 63.5099 32.3207 63.5471 32.3945L59.2707 30.7562C58.5563 30.5548 57.8371 30.3706 57.1137 30.2038L55.9423 29.9279C54.8266 29.7068 53.6923 29.5412 52.5583 29.4309C52.5212 29.4309 52.5024 29.4122 52.4655 29.4122C51.3595 29.3019 50.2486 29.2466 49.1369 29.2466C48.3188 29.2466 47.5006 29.2833 46.7013 29.3385C45.5668 29.4122 44.4327 29.5595 43.2982 29.7436C43.0195 29.7806 42.7405 29.8357 42.4617 29.8911C41.8852 30.0014 41.3275 30.1303 40.7883 30.2592L39.9513 30.48C39.6726 30.5906 39.4122 30.7195 39.152 30.8297L38.5383 31.1059C38.5012 31.1243 38.4638 31.1243 38.4455 31.1427C38.2593 31.2346 38.092 31.3084 37.9246 31.4002C37.8797 31.4151 37.8362 31.4336 37.7944 31.4557C37.5899 31.5475 37.3855 31.6581 37.2181 31.7502C37.0879 31.8054 36.9577 31.8789 36.8463 31.934C36.7923 31.9678 36.7365 31.9986 36.679 32.0262C36.5116 32.118 36.3443 32.2102 36.1952 32.3024C36.0282 32.3942 35.8795 32.4863 35.7492 32.5786C35.6189 32.6705 35.489 32.7442 35.3773 32.8361C35.3588 32.8545 35.3402 32.8545 35.3214 32.8729C35.21 32.9467 35.0798 33.0385 34.9681 33.1307L34.931 33.1675L34.6523 33.3882C34.6149 33.4069 34.5778 33.4437 34.5406 33.462C34.4478 33.5355 34.3547 33.6277 34.2616 33.7015C34.2431 33.738 34.2059 33.7566 34.1874 33.775C34.0757 33.8855 33.9641 33.9774 33.8527 34.0879C33.8338 34.0879 33.8338 34.1063 33.8156 34.1247C33.7039 34.2166 33.5922 34.3271 33.4809 34.4377C33.462 34.456 33.462 34.4744 33.4435 34.4744C33.3507 34.5663 33.2578 34.6585 33.1647 34.769C33.1276 34.8057 33.0719 34.8425 33.0345 34.8792C32.9417 34.9898 32.8301 35.1003 32.7184 35.2106C32.6998 35.2476 32.6627 35.266 32.6439 35.3027C32.4954 35.45 32.3652 35.5973 32.2164 35.7446L32.1607 35.7997C31.8631 36.1127 31.547 36.4257 31.2123 36.7019C30.8824 36.9929 30.5346 37.2634 30.1708 37.5118C29.8103 37.7621 29.4381 37.9955 29.0554 38.2112C28.676 38.4174 28.2849 38.6018 27.884 38.7634C27.4884 38.9296 27.085 39.0771 26.6752 39.2052C25.8944 39.3709 25.0946 39.6839 24.4069 39.739C24.2578 39.739 24.0908 39.7757 23.942 39.7941C23.7866 39.829 23.6316 39.8659 23.4771 39.9047L23.0308 40.0703C22.882 40.1254 22.7335 40.1992 22.5847 40.2727C22.4545 40.3646 22.3057 40.4384 22.1755 40.5306C22.0453 40.6224 21.9153 40.733 21.8037 40.8435C21.6734 40.9354 21.5432 41.0643 21.4318 41.1749C21.3202 41.3038 21.2085 41.4143 21.1157 41.5429C21.0229 41.6902 20.9113 41.8191 20.8367 41.9662C20.7439 42.0954 20.6508 42.2424 20.5763 42.3897C20.502 42.5553 20.4278 42.7026 20.3718 42.8686C20.3132 43.027 20.2574 43.1865 20.2045 43.3469C20.1673 43.4942 20.1302 43.6415 20.1117 43.7888C20.1117 43.8071 20.0928 43.8255 20.0928 43.8439C20.0557 44.0096 20.0557 44.2306 20.0371 44.3409C20.0186 44.4698 20 44.5804 20 44.709C20 44.7828 20 44.8747 20.0186 44.9484C20.0371 45.0774 20.0557 45.1879 20.0931 45.2981C20.1302 45.4087 20.1673 45.5189 20.2233 45.6295V45.6479C20.279 45.7584 20.3532 45.8689 20.4278 45.9792C20.502 46.0897 20.5766 46.2003 20.6697 46.3105C20.7625 46.4024 20.8738 46.5132 20.9855 46.6051C21.0972 46.7156 21.2088 46.8075 21.3388 46.8997C21.7851 47.2861 21.8967 47.4151 22.473 47.7096C22.5658 47.7648 22.6589 47.8015 22.7706 47.8569C22.7892 47.8569 22.8077 47.8753 22.8263 47.8753C22.8263 47.9121 22.8263 47.9304 22.8451 47.9672C22.8637 48.1148 22.9008 48.2618 22.9379 48.4091C22.9751 48.5747 23.0307 48.722 23.0867 48.8509C23.1424 48.9615 23.1795 49.0717 23.2355 49.1823C23.2541 49.219 23.2726 49.256 23.2912 49.2741C23.3657 49.4217 23.4402 49.5504 23.5145 49.6793L23.7932 50.0657C23.886 50.1763 23.9977 50.3052 24.1093 50.4157C24.221 50.5263 24.3327 50.6181 24.4626 50.7284C24.4626 50.7284 24.4814 50.747 24.4997 50.747C24.6114 50.8389 24.723 50.9308 24.8344 51.0046C24.9646 51.0965 25.0948 51.1703 25.2436 51.244C25.3738 51.3176 25.5226 51.3913 25.6711 51.4465C25.7828 51.5016 25.913 51.5384 26.0432 51.5754C26.0618 51.5938 26.0803 51.5938 26.1175 51.6121C26.192 51.6305 26.2848 51.6489 26.3593 51.6673C26.3034 52.6613 26.2848 53.6001 26.4336 53.9315C26.6009 54.2996 27.4191 53.1769 28.2373 51.8883C28.1259 53.1583 28.0516 54.6493 28.2373 55.0911C28.4417 55.5514 29.5574 54.1155 30.5244 52.5324C43.7077 49.5136 55.7379 58.5334 57.0024 71.2716C56.7605 69.2836 54.2877 68.1791 53.1535 68.4553C52.5955 69.8174 51.6474 71.5662 50.1227 72.6521C50.2527 71.4373 50.197 70.1855 49.9365 68.9707C49.5276 70.6641 48.728 72.2472 47.6308 73.6093C45.8646 73.7382 44.0983 72.8915 43.1682 71.6213C43.094 71.5662 43.0754 71.4557 43.0197 71.3819C42.9638 71.2532 42.9081 71.1243 42.8707 70.9954C42.8166 70.872 42.7791 70.7421 42.7593 70.609C42.7407 70.48 42.7408 70.3511 42.7408 70.2038V69.9279C42.7593 69.799 42.7964 69.6701 42.8336 69.5412C42.8707 69.4123 42.9081 69.2836 42.9638 69.1547C43.0383 69.0258 43.094 68.8969 43.1868 68.7682C43.5029 67.8845 43.5029 67.1667 42.9267 66.7432C42.815 66.671 42.6968 66.6095 42.5734 66.5594C42.4989 66.5408 42.4061 66.5038 42.3315 66.4857C42.2758 66.467 42.2387 66.4486 42.1828 66.4303C42.0528 66.3935 41.9226 66.3567 41.7924 66.3384C41.6655 66.3018 41.5341 66.2832 41.402 66.283C41.2718 66.2646 41.123 66.2462 40.9928 66.2462C40.9 66.2462 40.8072 66.2646 40.7138 66.2646C40.5653 66.2646 40.4351 66.2832 40.3048 66.32C40.1746 66.3384 40.0444 66.3567 39.9145 66.3935C39.7842 66.4303 39.654 66.4673 39.5238 66.5224C39.3936 66.5775 39.2819 66.633 39.152 66.6881C39.0403 66.7432 38.929 66.817 38.7988 66.8721C34.4664 69.6704 37.0508 76.2232 40.0073 78.1194C38.8916 78.3218 37.7573 78.5612 37.4414 78.8004L37.4043 78.8372C38.2036 79.3161 39.0403 79.7209 39.9145 80.0706C41.1044 80.4571 42.3689 80.8068 42.9267 80.9541V80.9724C44.4672 81.285 46.0425 81.3964 47.6123 81.3038C55.8495 80.733 62.5992 74.5298 63.8263 66.3567C63.8635 66.5224 63.9009 66.6697 63.938 66.8354C63.9937 67.1667 64.0682 67.5164 64.1053 67.8661V67.8848C64.1425 68.0504 64.161 68.2161 64.1799 68.3634V68.4369C64.1984 68.6026 64.217 68.7682 64.217 68.9155C64.2356 69.118 64.2541 69.3204 64.2541 69.5231V69.8174C64.2541 69.9095 64.2727 70.0201 64.2727 70.112C64.2727 70.2225 64.2541 70.333 64.2541 70.4433V70.7011C64.2541 70.83 64.2356 70.9406 64.2356 71.0692C64.2356 71.143 64.2356 71.2165 64.2167 71.3086C64.2167 71.4373 64.1982 71.5662 64.1982 71.7135C64.1796 71.7686 64.1796 71.824 64.1796 71.8792C64.161 72.0264 64.1425 72.1554 64.1236 72.3024C64.1236 72.3578 64.1236 72.4129 64.1051 72.4683C64.0865 72.6521 64.0494 72.818 64.0308 73.0021V73.0388C63.9937 73.2045 63.9563 73.3888 63.9192 73.5545V73.6096L63.8075 74.1066C63.8075 74.125 63.7889 74.1617 63.7889 74.1801C63.7518 74.3458 63.7147 74.5114 63.6587 74.6774V74.7325C63.603 74.9166 63.5473 75.0822 63.5102 75.2479C63.4914 75.2663 63.4914 75.2846 63.4914 75.2846L63.324 75.8368C63.2498 76.0211 63.1941 76.1868 63.1196 76.3708C63.0453 76.5546 62.9893 76.7389 62.9151 76.9046C62.8406 77.0886 62.766 77.2543 62.6921 77.4383H62.6732C62.599 77.604 62.5244 77.788 62.4313 77.9537C62.4165 77.9981 62.3978 78.0413 62.3757 78.0826C62.3571 78.1013 62.3571 78.1194 62.3385 78.138C61.13 80.5492 59.3449 82.6661 57.1137 84.3228C56.9647 84.4147 56.8162 84.5255 56.6674 84.6358C56.6303 84.6725 56.5746 84.6912 56.5372 84.7276C56.407 84.8198 56.277 84.912 56.1282 85.0039L56.1839 85.1144H56.2025L56.9835 85.0039H57.0021C57.4858 84.9303 57.969 84.8382 58.4525 84.7463C58.5827 84.7279 58.7315 84.6912 58.8614 84.6544C58.9545 84.6358 59.0288 84.6174 59.1219 84.599C59.2521 84.5806 59.3823 84.5439 59.5122 84.5252C59.6239 84.4885 59.7356 84.4701 59.8469 84.4333C61.7066 83.9915 63.5102 83.3839 65.2393 82.6661C62.2828 86.6605 58.3223 89.882 53.6923 91.9989C55.8307 91.8516 57.969 91.5019 60.0331 90.913C67.5265 88.7223 73.8298 83.7339 77.6045 77.0151C76.8385 81.2772 75.1304 85.3189 72.6025 88.8512C74.4046 87.6746 76.0696 86.3041 77.5671 84.7647C81.7324 80.4573 84.4656 74.9901 85.3954 69.1179C86.0296 72.0312 86.2114 75.0232 85.9346 77.9907C99.3595 59.4539 87.0503 40.2363 81.8997 35.1741C81.8809 35.1374 81.8626 35.119 81.8626 35.0822C81.8438 35.1006 81.8438 35.1006 81.8438 35.119C81.8438 35.1003 81.8438 35.1003 81.8252 35.0822C81.8252 35.303 81.8067 35.5238 81.7881 35.7449C81.7324 36.1681 81.6764 36.5732 81.6022 36.9783C81.5094 37.3832 81.3977 37.788 81.2861 38.1931C81.1536 38.5916 81.0047 38.9845 80.8397 39.3709C80.6688 39.7524 80.4828 40.1271 80.282 40.4941C80.0775 40.8438 79.8545 41.2119 79.6126 41.5432C79.3734 41.8855 79.1191 42.2171 78.8504 42.5372C78.5712 42.8686 78.2739 43.1631 77.9763 43.4577C77.8012 43.6162 77.6214 43.7696 77.4372 43.9177C77.2881 44.0466 77.1582 44.1571 77.0094 44.2861C76.6747 44.5436 76.34 44.783 75.9682 45.0038C75.6149 45.2246 75.2428 45.4457 74.8713 45.6298C74.4804 45.8138 74.09 45.9795 73.6996 46.1451C73.3033 46.2931 72.9 46.422 72.4911 46.5316C72.08 46.6412 71.6643 46.7334 71.2452 46.8078C70.8177 46.8816 70.3902 46.9183 69.9809 46.9551C69.6834 46.9735 69.3858 46.9918 69.0882 46.9918C68.6607 46.9918 68.233 46.9551 67.824 46.9183C67.3963 46.8813 66.9685 46.8262 66.5595 46.734C66.132 46.6605 65.7228 46.5503 65.3136 46.4213H65.295C65.7042 46.3843 66.1135 46.3476 66.5224 46.2738C66.9419 46.2013 67.3577 46.1092 67.7683 45.9978C68.1771 45.8883 68.5803 45.7593 68.9766 45.6114C69.3858 45.4638 69.7762 45.28 70.1483 45.0957C70.5387 44.912 70.8919 44.7093 71.2637 44.4885C71.617 44.249 71.9705 44.0096 72.3052 43.752C72.6383 43.4957 72.955 43.2191 73.2533 42.9237C73.5694 42.6475 73.8484 42.3348 74.1274 42.0216C74.3992 41.6993 74.6596 41.3678 74.9082 41.0276C74.9453 40.9724 74.9827 40.8989 75.0198 40.8438C75.2057 40.5492 75.3916 40.2546 75.559 39.9601C75.7633 39.595 75.9496 39.2202 76.117 38.8371C76.285 38.452 76.4339 38.059 76.563 37.6594C76.6932 37.2724 76.7863 36.8675 76.8792 36.4627C76.9537 36.0395 77.0282 35.6344 77.0651 35.2292C77.1022 34.806 77.1396 34.3828 77.1396 33.9777C77.1396 33.6831 77.121 33.3885 77.1025 33.0939C77.0653 32.6707 77.0097 32.2656 76.9534 31.8605C76.8803 31.4453 76.7874 31.0338 76.675 30.6273C76.5445 30.2409 76.4145 29.8357 76.2657 29.4493C76.1167 29.0628 75.9311 28.6761 75.7452 28.308C75.5404 27.9399 75.3359 27.5715 75.1129 27.2221C74.8755 26.8771 74.6274 26.5394 74.369 26.2095C74.0891 25.8919 73.8039 25.5789 73.5137 25.2706C73.3571 25.1127 73.1959 24.9593 73.0302 24.8106C72.1972 24.1702 71.3347 23.5681 70.4456 23.0064C70.3256 22.9376 70.2014 22.8762 70.0737 22.8226C69.4603 22.4359 68.8841 22.2335 68.3075 22.0494" fill="#E0234E"/>
</g>
<defs>
<clipPath id="clip0_1967_463">
<rect width="72" height="71" fill="white" transform="translate(20 21)"/>
</clipPath>
</defs>
</svg>
