<svg width="80" height="80" viewBox="0 0 80 80" fill="none" xmlns="http://www.w3.org/2000/svg">
<circle cx="40" cy="40" r="40" fill="url(#paint0_linear_2046_316)"/>
<circle cx="40" cy="40" r="39.5" stroke="#9A9B9C" stroke-opacity="0.3"/>
<g clip-path="url(#clip0_2046_316)">
<path d="M44.3419 14.9233C43.9719 14.9233 43.6283 15.0019 43.3111 15.1066C43.9851 15.5512 44.3551 16.1398 44.5399 16.807C44.5533 16.8986 44.5797 16.9641 44.5929 17.0555C44.6061 17.1341 44.6193 17.2126 44.6193 17.291C44.6722 18.4422 44.3155 18.586 44.0642 19.2663C43.6811 20.1428 43.7868 21.0846 44.2493 21.8433C44.2889 21.9349 44.3419 22.0395 44.4078 22.1311C43.9057 18.8215 46.6939 18.3244 47.2092 17.291C47.2487 16.3885 46.4956 15.7866 45.901 15.3681C45.3328 15.0278 44.8175 14.9233 44.3419 14.9233ZM48.5437 15.6689C48.4909 15.9698 48.5305 15.8913 48.5173 16.0484C48.5041 16.1531 48.5041 16.2839 48.4909 16.3885C48.4645 16.493 48.4381 16.5977 48.3984 16.7023C48.372 16.8072 48.3324 16.9117 48.2928 17.0163C48.2399 17.121 48.2003 17.2126 48.1473 17.3171C48.1078 17.3695 48.0814 17.422 48.0416 17.4742L47.9625 17.5919C47.8965 17.6835 47.8303 17.7752 47.7642 17.8535C47.6848 17.9321 47.6189 18.0237 47.5263 18.089V18.102C47.447 18.1675 47.3679 18.2461 47.2753 18.3114C46.9979 18.5207 46.6807 18.6776 46.3899 18.8739C46.2976 18.9392 46.205 18.9916 46.1257 19.0702C46.0331 19.1355 45.9538 19.2008 45.8746 19.2795C45.7821 19.3579 45.7161 19.4364 45.6368 19.528C45.5708 19.6064 45.4915 19.6982 45.4385 19.7896C45.3726 19.8812 45.3066 19.9726 45.2537 20.0643C45.2007 20.1691 45.1611 20.2605 45.1082 20.365C45.0686 20.4699 45.029 20.5615 45.0026 20.666C44.9628 20.7837 44.9365 20.8884 44.9101 20.993C44.8969 21.0455 44.8969 21.1108 44.8837 21.1632C44.8703 21.2154 44.8703 21.2679 44.8573 21.3201C44.8573 21.4248 44.8439 21.5425 44.8439 21.6472C44.8439 21.7257 44.8439 21.8041 44.8573 21.8826C44.8573 21.9873 44.8705 22.092 44.8969 22.2097C44.9101 22.3144 44.9365 22.4188 44.9628 22.5235C45.0026 22.6284 45.029 22.7329 45.0688 22.8375C45.095 22.9028 45.1347 22.9683 45.1611 23.0207L42.1221 21.8565C41.6145 21.7134 41.1034 21.5825 40.5893 21.4639L39.7569 21.2679C38.964 21.1108 38.158 20.993 37.3521 20.9147C37.3257 20.9147 37.3123 20.9014 37.2861 20.9014C36.5002 20.823 35.7107 20.7837 34.9207 20.7837C34.3393 20.7837 33.7579 20.8098 33.1899 20.849C32.3836 20.9014 31.5777 21.0061 30.7715 21.1369C30.5734 21.1632 30.3751 21.2024 30.1771 21.2417C29.7673 21.3201 29.371 21.4117 28.9878 21.5033L28.393 21.6602C28.195 21.7388 28.0099 21.8304 27.825 21.9087L27.3889 22.105C27.3625 22.1181 27.3359 22.1181 27.3229 22.1311C27.1906 22.1964 27.0717 22.2489 26.9528 22.3142C26.9209 22.3247 26.8899 22.3379 26.8603 22.3535C26.715 22.4188 26.5696 22.4974 26.4507 22.5629C26.3582 22.6021 26.2656 22.6543 26.1865 22.6935C26.1481 22.7175 26.1084 22.7394 26.0676 22.759C25.9487 22.8243 25.8297 22.8898 25.7238 22.9552C25.6051 23.0205 25.4994 23.086 25.4068 23.1515C25.3143 23.2168 25.2219 23.2693 25.1426 23.3346C25.1294 23.3476 25.1162 23.3476 25.1028 23.3607C25.0237 23.4131 24.9311 23.4784 24.8518 23.5439L24.8254 23.57L24.6273 23.7269C24.6008 23.7402 24.5744 23.7663 24.548 23.7794C24.482 23.8316 24.4159 23.8971 24.3497 23.9495C24.3365 23.9754 24.3101 23.9887 24.297 24.0018C24.2176 24.0803 24.1383 24.1456 24.0591 24.2242C24.0457 24.2242 24.0457 24.2372 24.0327 24.2503C23.9534 24.3156 23.874 24.3941 23.7949 24.4727C23.7815 24.4857 23.7815 24.4988 23.7683 24.4988C23.7024 24.5641 23.6364 24.6296 23.5702 24.7081C23.5439 24.7342 23.5043 24.7604 23.4777 24.7865C23.4117 24.865 23.3324 24.9436 23.253 25.0219C23.2399 25.0483 23.2135 25.0613 23.2001 25.0874C23.0946 25.1921 23.002 25.2968 22.8963 25.4014L22.8567 25.4406C22.6453 25.663 22.4206 25.8854 22.1828 26.0817C21.9483 26.2885 21.7011 26.4808 21.4426 26.6573C21.1864 26.8352 20.9219 27.001 20.65 27.1543C20.3803 27.3009 20.1024 27.4319 19.8175 27.5467C19.5364 27.6648 19.2497 27.7696 18.9585 27.8607C18.4037 27.9784 17.8352 28.2008 17.3466 28.24C17.2406 28.24 17.1219 28.2661 17.0162 28.2792C16.9057 28.304 16.7956 28.3302 16.6858 28.3577L16.3686 28.4755C16.2629 28.5146 16.1574 28.5671 16.0516 28.6193C15.9591 28.6846 15.8534 28.737 15.7608 28.8025C15.6683 28.8678 15.5759 28.9464 15.4966 29.0249C15.4041 29.0902 15.3115 29.1818 15.2324 29.2604C15.153 29.352 15.0737 29.4306 15.0077 29.522C14.9418 29.6266 14.8624 29.7183 14.8094 29.8227C14.7435 29.9145 14.6773 30.019 14.6244 30.1237C14.5716 30.2414 14.5188 30.3461 14.4791 30.464C14.4374 30.5766 14.3977 30.6899 14.3601 30.8039C14.3338 30.9086 14.3074 31.0133 14.2942 31.1179C14.2942 31.131 14.2808 31.1441 14.2808 31.1571C14.2544 31.2749 14.2544 31.432 14.2412 31.5103C14.228 31.6019 14.2148 31.6805 14.2148 31.7719C14.2148 31.8243 14.2148 31.8896 14.228 31.9421C14.2412 32.0337 14.2544 32.1122 14.281 32.1906C14.3074 32.2691 14.3338 32.3475 14.3735 32.426V32.4391C14.4131 32.5176 14.4659 32.5962 14.5188 32.6745C14.5716 32.7531 14.6246 32.8316 14.6907 32.91C14.7567 32.9753 14.8358 33.0541 14.9152 33.1193C14.9945 33.1979 15.0739 33.2632 15.1662 33.3287C15.4834 33.6033 15.5627 33.6949 15.9723 33.9043C16.0382 33.9435 16.1044 33.9696 16.1837 34.0089C16.1969 34.0089 16.2101 34.022 16.2233 34.022C16.2233 34.0481 16.2233 34.0612 16.2367 34.0873C16.2499 34.1922 16.2763 34.2966 16.3027 34.4013C16.329 34.519 16.3686 34.6237 16.4084 34.7153C16.448 34.7939 16.4743 34.8722 16.5141 34.9508C16.5273 34.9769 16.5405 35.0032 16.5537 35.0161C16.6067 35.1209 16.6596 35.2124 16.7124 35.304L16.9105 35.5786C16.9764 35.6572 17.0558 35.7488 17.1351 35.8273C17.2145 35.9059 17.2938 35.9712 17.3861 36.0495C17.3861 36.0495 17.3995 36.0628 17.4125 36.0628C17.4919 36.1281 17.5712 36.1934 17.6504 36.2458C17.7429 36.3111 17.8354 36.3635 17.9412 36.416C18.0337 36.4682 18.1394 36.5206 18.245 36.5598C18.3243 36.599 18.4169 36.6251 18.5094 36.6514C18.5226 36.6645 18.5358 36.6645 18.5622 36.6775C18.6151 36.6906 18.6811 36.7037 18.734 36.7167C18.6943 37.4231 18.6811 38.0903 18.7868 38.3258C18.9057 38.5873 19.4871 37.7895 20.0686 36.8738C19.9894 37.7763 19.9366 38.8358 20.0686 39.1499C20.2139 39.4769 21.0067 38.4565 21.6939 37.3315C31.0625 35.1862 39.6116 41.5961 40.5102 50.6483C40.3383 49.2356 38.5811 48.4507 37.775 48.647C37.3785 49.6149 36.7047 50.8577 35.6212 51.6294C35.7136 50.7661 35.674 49.8765 35.4889 49.0132C35.1983 50.2166 34.6301 51.3417 33.8504 52.3096C32.5953 52.4012 31.3401 51.7995 30.6791 50.8969C30.6264 50.8577 30.6132 50.7791 30.5736 50.7267C30.5338 50.6353 30.4942 50.5437 30.4677 50.4521C30.4292 50.3644 30.4026 50.272 30.3885 50.1774C30.3753 50.0858 30.3753 49.9942 30.3753 49.8895V49.6935C30.3885 49.6018 30.4149 49.5102 30.4413 49.4186C30.4677 49.327 30.4942 49.2356 30.5338 49.144C30.5868 49.0524 30.6264 48.9608 30.6923 48.8694C30.917 48.2413 30.917 47.7312 30.5074 47.4303C30.4281 47.379 30.3441 47.3353 30.2564 47.2997C30.2034 47.2864 30.1375 47.2601 30.0845 47.2473C30.0449 47.234 30.0186 47.2209 29.9788 47.2079C29.8864 47.1818 29.7939 47.1557 29.7014 47.1426C29.6112 47.1166 29.5178 47.1034 29.424 47.1032C29.3314 47.0902 29.2257 47.0771 29.1331 47.0771C29.0672 47.0771 29.0012 47.0902 28.9349 47.0902C28.8294 47.0902 28.7368 47.1034 28.6443 47.1295C28.5517 47.1426 28.4592 47.1556 28.3669 47.1818C28.2743 47.2079 28.1818 47.2342 28.0892 47.2734C27.9967 47.3126 27.9174 47.3519 27.825 47.3911C27.7457 47.4303 27.6665 47.4827 27.574 47.5219C24.4952 49.5104 26.3318 54.1672 28.4328 55.5146C27.6399 55.6585 26.8339 55.8286 26.6094 55.9986L26.583 56.0247C27.1511 56.3651 27.7457 56.6527 28.3669 56.9013C29.2125 57.1759 30.1111 57.4244 30.5074 57.5291V57.5421C31.6022 57.7643 32.7217 57.8434 33.8372 57.7776C39.6909 57.372 44.4876 52.9638 45.3596 47.1556C45.386 47.2734 45.4125 47.378 45.4389 47.4958C45.4785 47.7312 45.5315 47.9798 45.5579 48.2283V48.2415C45.5842 48.3593 45.5974 48.477 45.6108 48.5817V48.6339C45.624 48.7516 45.6372 48.8694 45.6372 48.974C45.6504 49.1179 45.6636 49.2617 45.6636 49.4058V49.6149C45.6636 49.6804 45.6768 49.7589 45.6768 49.8242C45.6768 49.9028 45.6636 49.9813 45.6636 50.0597V50.2429C45.6636 50.3345 45.6504 50.4131 45.6504 50.5045C45.6504 50.5569 45.6504 50.6092 45.637 50.6747C45.637 50.7661 45.6238 50.8577 45.6238 50.9624C45.6106 51.0015 45.6106 51.0409 45.6106 51.0801C45.5974 51.1848 45.5842 51.2764 45.5708 51.3808C45.5708 51.4202 45.5708 51.4594 45.5577 51.4988C45.5445 51.6294 45.5181 51.7473 45.5049 51.8781V51.9042C45.4785 52.0219 45.4519 52.1529 45.4255 52.2706V52.3098L45.3462 52.663C45.3462 52.6761 45.333 52.7022 45.333 52.7152C45.3066 52.833 45.2802 52.9507 45.2405 53.0686V53.1078C45.2009 53.2386 45.1613 53.3563 45.1349 53.4741C45.1215 53.4871 45.1215 53.5002 45.1215 53.5002L45.0026 53.8925C44.9499 54.0235 44.9103 54.1413 44.8573 54.272C44.8046 54.4026 44.7648 54.5336 44.712 54.6513C44.659 54.7821 44.6061 54.8999 44.5535 55.0307H44.5401C44.4874 55.1484 44.4344 55.2792 44.3682 55.3969C44.3577 55.4285 44.3444 55.4591 44.3287 55.4885C44.3155 55.5018 44.3155 55.5146 44.3023 55.5279C43.4435 57.2414 42.1749 58.7458 40.5893 59.923C40.4834 59.9883 40.3779 60.0671 40.2722 60.1454C40.2458 60.1716 40.2062 60.1848 40.1796 60.2107C40.0871 60.2762 39.9947 60.3417 39.889 60.407L39.9286 60.4856H39.9418L40.4968 60.407H40.51C40.8538 60.3548 41.1971 60.2893 41.5407 60.224C41.6333 60.2109 41.739 60.1848 41.8313 60.1587C41.8975 60.1454 41.9502 60.1324 42.0164 60.1193C42.1089 60.1063 42.2015 60.0802 42.2938 60.0669C42.3732 60.0408 42.4525 60.0277 42.5317 60.0016C43.8532 59.6876 45.1349 59.2558 46.3637 58.7458C44.2627 61.5843 41.4482 63.8736 38.158 65.378C39.6776 65.2733 41.1971 65.0248 42.664 64.6063C47.989 63.0495 52.4685 59.5046 55.1509 54.7299C54.6065 57.7587 53.3927 60.6309 51.5962 63.1411C52.8769 62.3049 54.0601 61.331 55.1243 60.2371C58.0843 57.1761 60.0267 53.2908 60.6874 49.1179C61.1381 51.1882 61.2673 53.3144 61.0706 55.4232C70.6108 42.2502 61.8634 28.5934 58.2033 24.996C58.1899 24.9699 58.1769 24.9568 58.1769 24.9307C58.1635 24.9438 58.1635 24.9438 58.1635 24.9568C58.1635 24.9436 58.1635 24.9436 58.1503 24.9307C58.1503 25.0876 58.1371 25.2445 58.1239 25.4016C58.0843 25.7024 58.0446 25.9903 57.9918 26.2782C57.9258 26.5659 57.8465 26.8536 57.7672 27.1415C57.673 27.4246 57.5672 27.7039 57.45 27.9784C57.3285 28.2496 57.1963 28.5158 57.0536 28.7766C56.9083 29.0251 56.7498 29.2867 56.5779 29.5222C56.4079 29.7654 56.2272 30.0011 56.0363 30.2285C55.8378 30.464 55.6266 30.6733 55.4151 30.8827C55.2907 30.9953 55.1629 31.1043 55.032 31.2096C54.926 31.3012 54.8337 31.3797 54.728 31.4713C54.4901 31.6544 54.2523 31.8245 53.9881 31.9814C53.737 32.1383 53.4726 32.2954 53.2086 32.4262C52.9308 32.557 52.6533 32.6747 52.3759 32.7925C52.0943 32.8976 51.8077 32.9892 51.5171 33.0671C51.2249 33.145 50.9295 33.2105 50.6317 33.2634C50.3279 33.3158 50.0241 33.3419 49.7333 33.3681C49.5218 33.3811 49.3104 33.3942 49.0989 33.3942C48.7951 33.3942 48.4911 33.3681 48.2005 33.3419C47.8965 33.3156 47.5925 33.2765 47.3019 33.211C46.9981 33.1587 46.7073 33.0804 46.4165 32.9888H46.4033C46.6941 32.9624 46.9849 32.9363 47.2755 32.8839C47.5736 32.8324 47.8691 32.767 48.1609 32.6878C48.4514 32.6099 48.738 32.5183 49.0196 32.4132C49.3104 32.3083 49.5878 32.1777 49.8522 32.0467C50.1296 31.9161 50.3807 31.7721 50.6449 31.6152C50.8959 31.445 51.1471 31.2749 51.385 31.0918C51.6217 30.9097 51.8468 30.7131 52.0587 30.5032C52.2834 30.3069 52.4817 30.0847 52.6799 29.8621C52.8731 29.6331 53.0581 29.3975 53.2348 29.1557C53.2611 29.1165 53.2877 29.0643 53.3141 29.0251C53.4462 28.8158 53.5783 28.6065 53.6973 28.3971C53.8425 28.1377 53.9748 27.8714 54.0938 27.5991C54.2132 27.3254 54.319 27.0461 54.4108 26.7622C54.5033 26.4871 54.5695 26.1994 54.6354 25.9117C54.6884 25.611 54.7414 25.3231 54.7675 25.0352C54.7939 24.7344 54.8205 24.4337 54.8205 24.1458C54.8205 23.9365 54.8073 23.7271 54.7941 23.5178C54.7677 23.217 54.7282 22.9291 54.6882 22.6412C54.6362 22.3462 54.5702 22.0538 54.4903 21.7649C54.3976 21.4903 54.3053 21.2024 54.1995 20.9277C54.0936 20.6531 53.9617 20.3783 53.8296 20.1167C53.6841 19.8551 53.5388 19.5933 53.3803 19.345C53.2116 19.0998 53.0353 18.8598 52.8516 18.6254C52.6527 18.3997 52.45 18.1773 52.2438 17.9582C52.1325 17.846 52.0179 17.7369 51.9002 17.6313C51.3082 17.1762 50.6953 16.7484 50.0635 16.3492C49.9782 16.3003 49.8899 16.2567 49.7992 16.2186C49.3633 15.9437 48.9538 15.7999 48.5441 15.6691" fill="#E0234E"/>
</g>
<defs>
<linearGradient id="paint0_linear_2046_316" x1="40" y1="0" x2="40" y2="80" gradientUnits="userSpaceOnUse">
<stop stop-color="#050A12"/>
<stop offset="1" stop-color="#251C31"/>
</linearGradient>
<clipPath id="clip0_2046_316">
<rect width="51.1661" height="50.4554" fill="white" transform="translate(14.2148 14.9233)"/>
</clipPath>
</defs>
</svg>
