<svg width="80" height="80" viewBox="0 0 80 80" fill="none" xmlns="http://www.w3.org/2000/svg">
<circle cx="40" cy="40" r="40" fill="url(#paint0_linear_2364_1003)"/>
<circle cx="40" cy="40" r="39.5" stroke="#9A9B9C" stroke-opacity="0.3"/>
<path d="M39.7283 59.9999C39.5588 59.9999 39.4006 59.9409 39.2536 59.8375L37.7505 58.6711C37.5244 58.5086 37.6375 58.4496 37.7053 58.42C38.0104 58.2872 38.067 58.2575 38.3834 58.0214C38.4173 57.9918 38.4626 58.0066 38.4964 58.0361L39.6493 58.9368C39.6945 58.9663 39.751 58.9663 39.7848 58.9368L44.2943 55.526C44.3395 55.4965 44.3622 55.4373 44.3622 55.3636V48.5567C44.3622 48.4827 44.3395 48.4238 44.2943 48.3942L39.7848 44.9982C39.7396 44.9685 39.6831 44.9685 39.6493 44.9982L35.1398 48.3942C35.0946 48.4237 35.0719 48.4975 35.0719 48.5566V55.3635C35.0719 55.4226 35.0946 55.4963 35.1398 55.526L36.3717 56.4562C37.0385 56.8991 37.4567 56.3823 37.4567 55.8655V49.1472C37.4567 49.0587 37.5132 48.97 37.5923 48.97H38.1687C38.2365 48.97 38.3043 49.0438 38.3043 49.1472V55.8655C38.3043 57.032 37.8183 57.7113 36.9706 57.7113C36.7107 57.7113 36.5073 57.7113 35.9309 57.342L34.7442 56.4562C34.4503 56.2348 34.2695 55.8212 34.2695 55.3783V48.5714C34.2695 48.1285 34.4503 47.7149 34.7442 47.4935L39.2536 44.0826C39.5362 43.8759 39.9205 43.8759 40.2031 44.0826L44.7125 47.4935C45.0063 47.7149 45.1872 48.1285 45.1872 48.5714V55.3783C45.1872 55.8212 45.0063 56.2348 44.7125 56.4562L40.2031 59.867C40.0561 59.9557 39.8865 59.9999 39.7283 59.9999ZM41.1185 55.3193C39.1408 55.3193 38.7339 54.138 38.7339 53.134C38.7339 53.0453 38.7904 52.9568 38.8695 52.9568H39.4572C39.525 52.9568 39.5815 53.0158 39.5815 53.1045C39.672 53.887 39.9319 54.2709 41.1299 54.2709C42.0792 54.2709 42.4862 53.9903 42.4862 53.3259C42.4862 52.942 42.3731 52.6615 40.8926 52.4695C39.6606 52.307 38.8921 51.9527 38.8921 50.6681C38.8921 49.4721 39.6607 48.7633 40.9491 48.7633C42.3957 48.7633 43.1078 49.4131 43.1982 50.8304C43.1982 50.8748 43.1869 50.9191 43.1643 50.9634C43.1416 50.9929 43.1078 51.0224 43.0738 51.0224H42.4861C42.4296 51.0224 42.3731 50.9634 42.3618 50.8895C42.2262 50.0775 41.8758 49.8117 40.9491 49.8117C39.9093 49.8117 39.7849 50.2842 39.7849 50.6385C39.7849 51.0667 39.9319 51.1996 41.3333 51.4358C42.7235 51.6722 43.379 52.0118 43.379 53.2815C43.3677 54.5809 42.554 55.3193 41.1185 55.3193Z" fill="#539E43"/>
<path d="M25.7369 33.3777C25.7369 33.112 25.6239 32.8608 25.443 32.728L20.651 29.1252C20.5718 29.0661 20.4814 29.0365 20.3911 29.0217H20.3458C20.2555 29.0217 20.165 29.0661 20.0859 29.1252L15.2939 32.728C15.1129 32.8608 15 33.1119 15 33.3777L15.0113 43.0639C15.0113 43.1967 15.0679 43.3296 15.1582 43.3888C15.2487 43.4626 15.3616 43.4626 15.4408 43.3888L18.2889 41.2625C18.4697 41.1296 18.5828 40.8786 18.5828 40.6129V36.0798C18.5828 35.8141 18.6957 35.563 18.8766 35.4301L20.0859 34.5146C20.1763 34.4408 20.278 34.4112 20.3797 34.4112C20.4814 34.4112 20.5831 34.4408 20.6624 34.5146L21.8716 35.4301C22.0525 35.563 22.1655 35.8139 22.1655 36.0798V40.6129C22.1655 40.8786 22.2785 41.1296 22.4593 41.2625L25.3074 43.3888C25.3514 43.425 25.4023 43.4442 25.4543 43.4442C25.5063 43.4442 25.5573 43.425 25.6013 43.3888C25.6917 43.3296 25.7482 43.1967 25.7482 43.0639L25.7369 33.3777ZM48.7703 20.0444C48.68 19.9852 48.5669 19.9852 48.4877 20.0444C48.3974 20.1182 48.3408 20.2363 48.3408 20.3691V29.9669C48.3408 30.0554 48.307 30.1439 48.2391 30.2031C48.1713 30.2473 48.1035 30.2473 48.0357 30.2031L46.8377 29.3024C46.7499 29.2371 46.6506 29.2028 46.5495 29.2028C46.4484 29.2028 46.3491 29.2371 46.2613 29.3024L41.4692 32.92C41.2884 33.0528 41.1754 33.3039 41.1754 33.5696V40.7899C41.1754 41.0557 41.2884 41.3068 41.4692 41.4397L46.2613 45.0573C46.3491 45.1226 46.4484 45.1569 46.5495 45.1569C46.6506 45.1569 46.7499 45.1226 46.8377 45.0573L51.6298 41.4397C51.8106 41.3068 51.9236 41.0558 51.9236 40.7899V22.7908C51.9236 22.5102 51.8106 22.2593 51.6298 22.1263L48.7703 20.0444ZM48.3296 38.4128C48.3296 38.4866 48.307 38.5456 48.2617 38.5751L46.623 39.8154C46.6001 39.83 46.575 39.8376 46.5495 39.8376C46.524 39.8376 46.4989 39.83 46.476 39.8154L44.8373 38.5751C44.792 38.5456 44.7694 38.4718 44.7694 38.4128V35.9321C44.7694 35.8583 44.792 35.7992 44.8373 35.7697L46.476 34.5293C46.4989 34.5147 46.524 34.5071 46.5495 34.5071C46.575 34.5071 46.6001 34.5147 46.623 34.5293L48.2617 35.7697C48.307 35.7991 48.3296 35.8731 48.3296 35.9321V38.4128ZM64.7174 35.8731C64.8983 35.7402 65 35.4892 65 35.2233V33.4663C65 33.2005 64.887 32.9495 64.7174 32.8166L59.9593 29.2139C59.8715 29.1486 59.7721 29.1142 59.6711 29.1142C59.57 29.1142 59.4707 29.1486 59.3828 29.2139L54.5908 32.8313C54.4099 32.9642 54.2969 33.2152 54.2969 33.481V40.7014C54.2969 40.9671 54.41 41.2182 54.5908 41.351L59.3489 44.8948C59.5298 45.0276 59.7445 45.0276 59.9141 44.8948L62.796 42.7983C62.8865 42.7391 62.943 42.6063 62.943 42.4734C62.943 42.3405 62.8865 42.2077 62.796 42.1485L57.9814 38.5309C57.891 38.4571 57.8344 38.339 57.8344 38.2062V35.947C57.8344 35.8142 57.891 35.6813 57.9814 35.6222L59.4845 34.4999C59.5285 34.4638 59.5795 34.4445 59.6315 34.4445C59.6834 34.4445 59.7344 34.4638 59.7784 34.4999L61.2816 35.6222C61.372 35.696 61.4285 35.8141 61.4285 35.947V37.7189C61.4285 37.8518 61.485 37.9846 61.5754 38.0437C61.6194 38.0799 61.6704 38.0991 61.7224 38.0991C61.7744 38.0991 61.8253 38.0799 61.8693 38.0437L64.7174 35.8731Z" fill="#333333"/>
<path d="M59.5969 35.5333C59.6137 35.5189 59.6333 35.5112 59.6534 35.5112C59.6735 35.5112 59.6932 35.5189 59.71 35.5333L60.6255 36.2273C60.6593 36.2569 60.6819 36.3011 60.6819 36.3602V37.7482C60.6819 37.8073 60.6594 37.8516 60.6255 37.8811L59.71 38.5751C59.6932 38.5895 59.6735 38.5972 59.6534 38.5972C59.6333 38.5972 59.6137 38.5895 59.5969 38.5751L58.6815 37.8811C58.6476 37.8516 58.625 37.8073 58.625 37.7482V36.3603C58.625 36.3011 58.6475 36.2568 58.6815 36.2274L59.5969 35.5333Z" fill="#539E43"/>
<path d="M33.7499 29.2433C33.6621 29.178 33.5628 29.1437 33.4617 29.1437C33.3607 29.1437 33.2614 29.178 33.1735 29.2433L28.4154 32.8311C28.2345 32.9639 28.1328 33.215 28.1328 33.4807V40.6717C28.1328 40.9374 28.2459 41.1884 28.4154 41.3213L33.1735 44.9094C33.2614 44.9746 33.3607 45.009 33.4617 45.009C33.5628 45.009 33.6621 44.9746 33.7499 44.9094L38.5081 41.3213C38.6889 41.1884 38.7907 40.9374 38.7907 40.6717V33.4808C38.7907 33.2151 38.6776 32.9641 38.5081 32.8312L33.7499 29.2433Z" fill="url(#paint1_linear_2364_1003)"/>
<mask id="mask0_2364_1003" style="mask-type:luminance" maskUnits="userSpaceOnUse" x="28" y="29" width="11" height="17">
<path d="M33.7499 29.2433C33.6621 29.178 33.5628 29.1437 33.4617 29.1437C33.3607 29.1437 33.2614 29.178 33.1735 29.2433L28.4154 32.8311C28.2345 32.9639 28.1328 33.215 28.1328 33.4807V40.6717C28.1328 40.9374 28.2459 41.1884 28.4154 41.3213L33.1735 44.9094C33.2614 44.9746 33.3607 45.009 33.4617 45.009C33.5628 45.009 33.6621 44.9746 33.7499 44.9094L38.5081 41.3213C38.6889 41.1884 38.7907 40.9374 38.7907 40.6717V33.4808C38.7907 33.2151 38.6776 32.9641 38.5081 32.8312L33.7499 29.2433Z" fill="white"/>
</mask>
<g mask="url(#mask0_2364_1003)">
<path d="M38.5192 32.8312L33.7385 29.2433C33.6915 29.2123 33.6423 29.1875 33.5915 29.1694L28.2344 41.1592C28.2788 41.2299 28.3324 41.2899 28.3927 41.3364L33.1734 44.9244C33.309 45.0278 33.4672 45.0573 33.6141 44.9981L38.6436 32.979C38.6096 32.92 38.5644 32.8754 38.5192 32.8312Z" fill="url(#paint2_linear_2364_1003)"/>
</g>
<mask id="mask1_2364_1003" style="mask-type:luminance" maskUnits="userSpaceOnUse" x="28" y="29" width="11" height="17">
<path d="M33.7499 29.2433C33.6621 29.178 33.5628 29.1437 33.4617 29.1437C33.3607 29.1437 33.2614 29.178 33.1735 29.2433L28.4154 32.8311C28.2345 32.9639 28.1328 33.215 28.1328 33.4807V40.6717C28.1328 40.9374 28.2459 41.1884 28.4154 41.3213L33.1735 44.9094C33.2614 44.9746 33.3607 45.009 33.4617 45.009C33.5628 45.009 33.6621 44.9746 33.7499 44.9094L38.5081 41.3213C38.6889 41.1884 38.7907 40.9374 38.7907 40.6717V33.4808C38.7907 33.2151 38.6776 32.9641 38.5081 32.8312L33.7499 29.2433Z" fill="white"/>
</mask>
<g mask="url(#mask1_2364_1003)">
<path fill-rule="evenodd" clip-rule="evenodd" d="M38.5294 41.3215C38.665 41.2181 38.7667 41.0409 38.812 40.849L33.5677 29.1547C33.4321 29.1252 33.2851 29.1399 33.1609 29.2432L28.4141 32.8166L33.5338 45.0129C33.6083 44.9971 33.6806 44.9673 33.7485 44.9244L38.5294 41.3215Z" fill="url(#paint3_linear_2364_1003)"/>
<path fill-rule="evenodd" clip-rule="evenodd" d="M38.5311 41.3216L33.7616 44.9097C33.6943 44.9545 33.6217 44.9844 33.5469 44.9982L33.6373 45.2197L38.9266 41.2184V41.1297L38.791 40.8344C38.7684 41.0411 38.6667 41.2183 38.5311 41.3216Z" fill="url(#paint4_linear_2364_1003)"/>
<path fill-rule="evenodd" clip-rule="evenodd" d="M38.5311 41.3216L33.7616 44.9097C33.6943 44.9545 33.6217 44.9844 33.5469 44.9982L33.6373 45.2197L38.9266 41.2184V41.1297L38.791 40.8344C38.7684 41.0411 38.6667 41.2183 38.5311 41.3216Z" fill="url(#paint5_linear_2364_1003)"/>
</g>
<defs>
<linearGradient id="paint0_linear_2364_1003" x1="40" y1="0" x2="40" y2="80" gradientUnits="userSpaceOnUse">
<stop stop-color="#050A12"/>
<stop offset="1" stop-color="#251C31"/>
</linearGradient>
<linearGradient id="paint1_linear_2364_1003" x1="754.873" y1="306.58" x2="15.3832" y2="1195.98" gradientUnits="userSpaceOnUse">
<stop stop-color="#41873F"/>
<stop offset="0.3288" stop-color="#418B3D"/>
<stop offset="0.6352" stop-color="#419637"/>
<stop offset="0.9319" stop-color="#3FA92D"/>
<stop offset="1" stop-color="#3FAE2A"/>
</linearGradient>
<linearGradient id="paint2_linear_2364_1003" x1="478.714" y1="904.088" x2="1920.99" y2="304.302" gradientUnits="userSpaceOnUse">
<stop offset="0.1376" stop-color="#41873F"/>
<stop offset="0.4032" stop-color="#54A044"/>
<stop offset="0.7136" stop-color="#66B848"/>
<stop offset="0.9081" stop-color="#6CC04A"/>
</linearGradient>
<linearGradient id="paint3_linear_2364_1003" x1="-17.2226" y1="822.677" x2="1083.8" y2="822.677" gradientUnits="userSpaceOnUse">
<stop offset="0.09192" stop-color="#6CC04A"/>
<stop offset="0.2864" stop-color="#66B848"/>
<stop offset="0.5968" stop-color="#54A044"/>
<stop offset="0.8624" stop-color="#41873F"/>
</linearGradient>
<linearGradient id="paint4_linear_2364_1003" x1="-525.199" y1="261.31" x2="575.809" y2="261.31" gradientUnits="userSpaceOnUse">
<stop offset="0.09192" stop-color="#6CC04A"/>
<stop offset="0.2864" stop-color="#66B848"/>
<stop offset="0.5968" stop-color="#54A044"/>
<stop offset="0.8624" stop-color="#41873F"/>
</linearGradient>
<linearGradient id="paint5_linear_2364_1003" x1="736.211" y1="-884.785" x2="271.664" y2="978.427" gradientUnits="userSpaceOnUse">
<stop stop-color="#41873F"/>
<stop offset="0.3288" stop-color="#418B3D"/>
<stop offset="0.6352" stop-color="#419637"/>
<stop offset="0.9319" stop-color="#3FA92D"/>
<stop offset="1" stop-color="#3FAE2A"/>
</linearGradient>
</defs>
</svg>
