<svg width="80" height="80" viewBox="0 0 80 80" fill="none" xmlns="http://www.w3.org/2000/svg">
<circle cx="40" cy="40" r="40" fill="url(#paint0_linear_2046_421)"/>
<circle cx="40" cy="40" r="39.5" stroke="#9A9B9C" stroke-opacity="0.3"/>
<path d="M48.8286 44.7566C49.0883 42.5947 49.0106 42.2776 50.6207 42.6276L51.0295 42.6637C52.2677 42.72 53.8877 42.4645 54.8388 42.0224C56.8872 41.0722 58.1016 39.4847 56.082 39.9017C51.4744 40.8519 51.1576 39.2924 51.1576 39.2924C56.0232 32.0736 58.0573 22.9102 56.3018 20.667C51.5138 14.5488 43.2256 17.442 43.0867 17.5171L43.0424 17.5258C42.1319 17.3364 41.1135 17.2238 39.9689 17.2053C37.8839 17.1712 36.3017 17.7521 35.1017 18.6621C35.1017 18.6621 20.316 12.5706 21.0037 26.3226C21.15 29.2482 25.1972 48.4594 30.0241 42.6568C31.7883 40.5352 33.4932 38.7411 33.4932 38.7411C34.34 39.3035 35.3535 39.5903 36.4168 39.4871L36.4989 39.4173C36.4735 39.6806 36.4845 39.9382 36.5322 40.2431C35.2886 41.6329 35.6542 41.877 33.1678 42.3885C30.6527 42.907 32.1305 43.8297 33.0947 44.0709C34.2648 44.3638 36.9702 44.7783 38.7988 42.2184L38.7261 42.5105C39.2142 42.9008 39.1809 45.3153 39.2499 47.0404C39.3189 48.7655 39.4348 50.3752 39.7865 51.325C40.1381 52.2741 40.5531 54.719 43.8205 54.0189C46.5509 53.4331 48.6384 52.5908 48.8286 44.7566Z" fill="black"/>
<path d="M42.7546 55.7239C41.3093 55.7239 40.3684 55.1652 39.7965 54.6254C38.9338 53.8115 38.5916 52.7626 38.3874 52.1361L38.299 51.8744C37.8874 50.7631 37.7481 49.1633 37.6655 47.1033C37.6534 46.7813 37.6431 46.4592 37.6347 46.137C37.6277 45.8901 37.6191 45.5803 37.6068 45.2554C37.086 45.5035 36.5334 45.6782 35.9647 45.7747C34.9458 45.9489 33.8505 45.8922 32.7083 45.6066C31.9027 45.4053 31.0654 44.9879 30.5884 44.3429C29.1977 45.561 27.8711 45.3955 27.1485 45.1547C25.8736 44.7295 24.7327 43.5352 23.66 41.5023C22.8963 40.055 22.1572 38.1684 21.4633 35.896C20.2554 31.9384 19.488 27.7701 19.4198 26.402C19.2053 22.1182 20.3581 19.0549 22.8462 17.2978C26.7717 14.525 32.7186 16.1553 34.8866 16.8956C36.343 16.0176 38.0566 15.5899 39.9933 15.6212C41.0336 15.638 42.0237 15.7296 42.9436 15.8931C43.9029 15.5916 45.7985 15.1586 47.9681 15.1853C51.9656 15.2329 55.2782 16.7908 57.5472 19.6905C59.1664 21.7595 58.366 26.1037 57.7444 28.5096C56.8706 31.8928 55.3386 35.4922 53.4569 38.6252C53.968 38.6289 54.7079 38.5673 55.7605 38.3504C57.8369 37.9215 58.4437 39.0349 58.6084 39.5332C59.2687 41.5327 56.3989 43.0434 55.5037 43.4588C54.3567 43.9916 52.4869 44.3158 50.9553 44.2455L50.8884 44.241L50.4862 44.2057L50.4463 44.5409L50.4081 44.8692C50.3054 48.8395 49.738 51.3538 48.5708 53.0157C47.3478 54.7572 45.6473 55.2457 44.1498 55.5666C43.6917 55.6687 43.2239 55.7214 42.7546 55.7239ZM39.7136 41.2731C40.6466 42.0196 40.7283 43.4242 40.801 46.0495C40.8101 46.3769 40.8187 46.6871 40.8302 46.9768C40.8655 47.8535 40.9481 49.9069 41.2694 50.7746C41.315 50.897 41.3557 51.0219 41.3984 51.1534C41.7567 52.2511 41.9366 52.8012 43.4859 52.4693C44.787 52.1907 45.4554 51.9405 45.9788 51.1953C46.7397 50.1115 47.1653 47.9328 47.2434 44.7176L48.826 44.7562L47.2541 44.5676L47.3001 44.1753C47.4509 42.8819 47.5593 41.9469 48.4242 41.329C49.1177 40.8331 49.9085 40.8812 50.5383 40.9946C49.8465 40.4724 49.655 39.8586 49.6041 39.6071L49.4722 38.9572L49.8428 38.4067C51.9791 35.2366 53.7412 31.3407 54.6771 27.7175C55.6385 23.9945 55.3451 22.0171 55.0522 21.6432C51.1714 16.684 44.4407 18.7312 43.7381 18.9642L43.619 19.0282L43.0233 19.1396L42.718 19.0763C41.877 18.9017 40.9428 18.8052 39.9408 18.7887C38.3668 18.7624 37.0973 19.1342 36.0563 19.9243L35.334 20.4719L34.4955 20.1264C32.7051 19.3943 27.4447 17.9223 24.6691 19.8881C23.1284 20.9793 22.4267 23.1177 22.5828 26.2438C22.6342 27.2758 23.3359 31.1825 24.492 34.9721C26.0906 40.2086 27.5433 41.9477 28.1497 42.1502C28.2553 42.186 28.5301 41.9723 28.8033 41.6445C30.5806 39.5069 32.2708 37.7251 32.3419 37.6499L33.2585 36.6857L34.3665 37.4219C34.8131 37.7189 35.3057 37.887 35.8118 37.9186L38.4547 35.6647L38.0718 39.5718C38.0632 39.6597 38.0591 39.7789 38.0936 40.0007L38.2087 40.7415L37.7103 41.2994L37.6528 41.3639L39.1047 42.0344L39.7136 41.2731Z" fill="black"/>
<path d="M56.0836 39.9014C51.4756 40.8517 51.1589 39.2917 51.1589 39.2917C56.024 32.0729 58.0577 22.9091 56.3026 20.6663C51.5143 14.5481 43.226 17.4417 43.0875 17.5168L43.0428 17.5247C42.1323 17.3361 41.1139 17.2235 39.9689 17.205C37.8839 17.1709 36.3021 17.7514 35.1021 18.6614C35.1021 18.6614 20.316 12.5704 21.0037 26.3224C21.15 29.2479 25.1972 48.4592 30.0241 42.6565C31.7882 40.5349 33.4928 38.7408 33.4928 38.7408C34.3396 39.3032 35.3531 39.59 36.4159 39.4869L36.4985 39.417C36.473 39.6804 36.4845 39.938 36.5314 40.2428C35.2882 41.6327 35.653 41.8767 33.1674 42.3882C30.6519 42.9067 32.1297 43.8294 33.0947 44.0706C34.2644 44.3635 36.9702 44.778 38.7984 42.2181L38.7253 42.5102C39.2125 42.9005 39.5547 45.0488 39.4972 46.9962C39.4397 48.9435 39.4015 50.2804 39.7856 51.3248C40.1698 52.3691 40.5523 54.7187 43.8201 54.0186C46.5505 53.4332 47.9654 51.9168 48.1626 49.3877C48.3023 47.5894 48.6183 47.8552 48.6384 46.2472L48.8923 45.4859C49.1844 43.048 48.9387 42.2617 50.6211 42.6277L51.0299 42.6635C52.2681 42.7202 53.8885 42.4642 54.8396 42.0221C56.888 41.0715 58.1029 39.4844 56.0836 39.9014Z" fill="#336791"/>
<path d="M42.92 54.7474C40.1957 54.7479 39.333 52.5905 38.9797 51.7085C38.4632 50.416 38.3515 45.3988 38.4665 41.2843C38.4742 41.1469 38.5351 41.0179 38.6364 40.9248C38.7377 40.8317 38.8713 40.7817 39.0088 40.7856C39.1464 40.7894 39.277 40.8468 39.3729 40.9454C39.4688 41.0441 39.5224 41.1763 39.5224 41.3138C39.3897 46.0594 39.5782 50.3597 39.9603 51.3161C40.5573 52.8083 41.4623 54.1135 44.0223 53.5655C46.4524 53.0441 47.3624 52.1226 47.7675 49.7734C48.0789 47.9703 48.6935 42.8409 48.7691 41.8286C48.7795 41.689 48.845 41.5592 48.9511 41.4678C49.0572 41.3765 49.1952 41.331 49.3348 41.3414C49.4745 41.3518 49.6042 41.4172 49.6956 41.5233C49.787 41.6294 49.8325 41.7675 49.8221 41.9071C49.7432 42.9605 49.1311 48.0804 48.8077 49.953C48.3291 52.7282 47.0921 53.987 44.2433 54.5979C43.8087 54.6939 43.3651 54.744 42.92 54.7474ZM28.1499 44.2115C27.9118 44.2115 27.6754 44.1725 27.4499 44.096C25.6804 43.5057 23.9951 40.624 22.4405 35.5305C21.2573 31.653 20.5075 27.6062 20.4418 26.2911C20.2466 22.3923 21.2511 19.6335 23.4265 18.092C27.7305 15.0424 34.9711 17.9466 35.2772 18.0715C35.4056 18.1252 35.5076 18.2276 35.561 18.3562C35.6143 18.4848 35.6147 18.6293 35.5621 18.7581C35.5094 18.887 35.408 18.9899 35.2798 19.0444C35.1516 19.0988 35.0072 19.1004 34.8778 19.0489V19.0493C34.808 19.0205 27.8648 16.2391 24.035 18.9552C22.1747 20.2744 21.3206 22.7246 21.496 26.2389C21.5515 27.3466 22.2519 31.2968 23.4504 35.2228C24.8382 39.7695 26.4179 42.6392 27.7839 43.0944C27.9979 43.1663 28.6503 43.3836 29.5838 42.2621C31.3389 40.1504 32.9514 38.4651 32.9674 38.4482C33.0656 38.3531 33.1969 38.2997 33.3336 38.2993C33.4703 38.299 33.6019 38.3516 33.7006 38.4462C33.7993 38.5407 33.8575 38.6699 33.863 38.8065C33.8685 38.9431 33.8208 39.0765 33.73 39.1787C33.7139 39.1952 32.126 40.8554 30.3956 42.9371C29.576 43.9223 28.79 44.2115 28.1499 44.2115ZM51.124 39.7625C51.0282 39.7627 50.9341 39.7367 50.8519 39.6873C50.7697 39.638 50.7024 39.5672 50.6574 39.4826C50.6125 39.3979 50.5914 39.3026 50.5965 39.2068C50.6016 39.1111 50.6327 39.0186 50.6865 38.9392C55.6046 31.6411 57.331 22.8232 55.8524 20.9342C53.9913 18.5563 51.3631 17.3139 48.0415 17.2428C45.5818 17.1894 43.6266 17.8176 43.3074 17.9273L43.2273 17.9597C42.906 18.0608 42.6595 17.8845 42.5667 17.6787C42.5138 17.5608 42.5058 17.4276 42.5442 17.3042C42.5827 17.1808 42.6649 17.0757 42.7754 17.0086L42.9175 16.9503L42.9106 16.9524L42.9179 16.9499C43.4607 16.7515 45.4454 16.1557 47.9043 16.1841C51.5801 16.2227 54.6162 17.6405 56.6843 20.283C57.6629 21.5336 57.665 24.4148 56.6905 28.1876C55.6971 32.0338 53.8278 36.1681 51.5624 39.5296C51.5142 39.6015 51.4489 39.6604 51.3724 39.701C51.296 39.7417 51.2106 39.7628 51.124 39.7625ZM51.3751 43.1408C50.5353 43.1408 49.7826 43.0229 49.332 42.7526C48.8685 42.4753 48.7802 42.0977 48.7687 41.8976C48.6422 39.6775 49.8673 39.2909 50.4922 39.1146C50.4051 38.9832 50.281 38.8283 50.1532 38.6685C49.7888 38.2132 49.2901 37.5896 48.9055 36.657C48.8455 36.5116 48.6565 36.1726 48.438 35.7807C47.2535 33.657 44.7893 29.2377 46.3723 26.9743C47.1052 25.9271 48.5637 25.515 50.7132 25.7451C50.0809 23.8187 47.0695 17.7921 39.925 17.675C37.7759 17.6389 36.0134 18.2999 34.6893 19.6368C31.7242 22.6314 31.8319 28.0495 31.8331 28.1033C31.8349 28.1726 31.8231 28.2416 31.7982 28.3063C31.7734 28.371 31.736 28.4302 31.6883 28.4805C31.6406 28.5308 31.5834 28.5712 31.5201 28.5994C31.4567 28.6276 31.3885 28.643 31.3192 28.6448C31.2499 28.6466 31.1809 28.6348 31.1162 28.6099C31.0514 28.5851 30.9922 28.5477 30.942 28.5C30.8917 28.4523 30.8513 28.3951 30.8231 28.3318C30.7949 28.2684 30.7795 28.2002 30.7777 28.1309C30.7711 27.8905 30.6602 22.2049 33.9391 18.8936C35.4736 17.3439 37.4932 16.5789 39.9422 16.6188C44.5141 16.6939 47.4561 19.0176 49.1196 20.9543C50.9322 23.0644 51.8212 25.3922 51.8944 26.1687C51.949 26.7463 51.5345 26.8622 51.4507 26.879L51.2604 26.8836C49.1508 26.5458 47.7975 26.78 47.2379 27.5799C46.0337 29.3005 48.3648 33.4808 49.3603 35.2663C49.6146 35.7215 49.7978 36.0506 49.8817 36.254C50.2087 37.0469 50.6351 37.5797 50.9778 38.0078C51.2789 38.3846 51.5402 38.7108 51.6339 39.0945C51.677 39.1705 52.2925 40.0801 55.9428 39.3266C56.8577 39.138 57.4062 39.2995 57.5738 39.8065C57.9037 40.8044 56.0529 41.9679 55.0282 42.4441C54.1088 42.8709 52.6433 43.1408 51.3751 43.1408ZM49.8217 41.8106C49.9371 41.9276 50.5164 42.129 51.7165 42.0776C52.783 42.0316 53.9083 41.7995 54.5837 41.4864C55.4473 41.0854 56.0233 40.6372 56.322 40.3311L56.156 40.3615C53.822 40.8434 52.1713 40.7793 51.2498 40.1705C51.1878 40.1295 51.1282 40.0852 51.071 40.0378C50.9712 40.0772 50.8788 40.1031 50.813 40.1216C50.29 40.2683 49.7494 40.4199 49.8217 41.8106ZM34.7451 44.76C34.1654 44.76 33.5553 44.6815 32.9321 44.525C32.2867 44.3635 31.198 43.8775 31.2148 43.0792C31.2333 42.1832 32.5361 41.9145 33.027 41.8134C34.7985 41.4486 34.914 41.3023 35.4678 40.5994C35.6293 40.3944 35.8302 40.1393 36.1038 39.8332C36.5105 39.3784 36.955 39.1475 37.425 39.1475C37.7521 39.1475 38.0208 39.2588 38.1978 39.332C38.7631 39.5661 39.2348 40.1323 39.4287 40.8102C39.6037 41.4215 39.5203 42.0098 39.1937 42.4667C38.1222 43.9675 36.5841 44.76 34.7451 44.76ZM32.3553 43.1248C32.5147 43.2477 32.8335 43.412 33.1881 43.5012C33.7279 43.6359 34.2513 43.7045 34.7451 43.7045C36.2496 43.7045 37.4571 43.0813 38.3346 41.8533C38.5175 41.5969 38.4628 41.2719 38.4139 41.1006C38.3112 40.7424 38.0565 40.4166 37.794 40.3073C37.6514 40.2481 37.5335 40.2029 37.425 40.2029C37.3667 40.2029 37.1896 40.2029 36.8909 40.537C36.6387 40.8188 36.4575 41.0489 36.2969 41.2522C35.6075 42.1277 35.2916 42.4248 33.2398 42.8475C32.7394 42.951 32.4826 43.0554 32.3553 43.1248ZM36.4152 40.6894C36.2892 40.6892 36.1674 40.6439 36.0718 40.5618C35.9762 40.4797 35.9131 40.3661 35.8938 40.2416C35.8803 40.1539 35.8715 40.0656 35.8675 39.977C34.5225 39.9515 33.225 39.3747 32.2403 38.3468C30.995 37.0473 30.428 35.247 30.6852 33.4077C30.9646 31.4102 30.8602 29.6469 30.804 28.6995C30.79 28.5046 30.7814 28.3094 30.7781 28.114C30.7789 27.9472 30.7822 27.5039 32.2633 26.7533C32.79 26.4863 33.8462 26.0204 34.9999 25.9008C36.9119 25.7036 38.1719 26.5549 38.5491 28.2985C39.5672 33.0067 38.6296 35.0892 37.9452 36.6097C37.8174 36.8924 37.697 37.1603 37.6009 37.4191L37.5158 37.6479C37.1543 38.6175 36.8416 39.4552 36.9378 40.0813C36.9589 40.2197 36.9243 40.3609 36.8415 40.4738C36.7587 40.5867 36.6345 40.6622 36.4961 40.6836L36.4152 40.6894ZM31.8372 28.2599L31.8582 28.637C31.9165 29.621 32.025 31.4525 31.7308 33.5543C31.5188 35.0712 31.9822 36.5522 33.0024 37.6167C33.8084 38.4581 34.87 38.9224 35.9608 38.9224H35.9834C36.1058 38.4076 36.3084 37.8644 36.5265 37.279L36.6112 37.0518C36.72 36.7593 36.8474 36.4762 36.9822 36.1767C37.6411 34.7125 38.4612 32.89 37.5167 28.5216C37.3293 27.6567 36.8757 27.1559 36.1301 26.9908C34.5985 26.6523 32.3163 27.8042 31.8372 28.2599ZM35.0237 28.036C34.9974 28.2225 35.3659 28.7208 35.8458 28.7874C36.3252 28.8543 36.7357 28.4649 36.7615 28.2783C36.7874 28.0918 36.4193 27.886 35.939 27.819C35.4596 27.7521 35.0492 27.849 35.0237 28.036ZM35.9563 28.9714L35.8215 28.962C35.5237 28.9205 35.2225 28.7327 35.0167 28.4595C34.9444 28.3638 34.8261 28.1773 34.8495 28.0113C34.8832 27.7677 35.1798 27.6222 35.6436 27.6222C35.748 27.6222 35.8548 27.6298 35.9641 27.6448C36.2172 27.6802 36.4526 27.7533 36.6264 27.8503C36.9275 28.0187 36.9497 28.206 36.9361 28.3034C36.8988 28.5717 36.4707 28.9714 35.9563 28.9714ZM35.1987 28.0672C35.2139 28.1822 35.4986 28.5622 35.87 28.6136L35.9559 28.6198C36.2985 28.6198 36.5549 28.3498 36.5849 28.2615C36.5532 28.2015 36.333 28.0516 35.9148 27.9941C35.8248 27.9815 35.7341 27.9749 35.6432 27.9743C35.3754 27.9739 35.232 28.0343 35.1987 28.0672ZM49.6278 27.6551C49.6536 27.842 49.2859 28.3404 48.8057 28.4069C48.3258 28.4735 47.9154 28.0844 47.8891 27.8975C47.8636 27.711 48.2317 27.5052 48.7116 27.4386C49.1915 27.3712 49.6015 27.469 49.6278 27.6551ZM48.6952 28.5023C48.233 28.5023 47.8349 28.1428 47.802 27.9098C47.7642 27.63 48.2247 27.4172 48.6997 27.3515C48.8046 27.3367 48.9072 27.3293 49.0074 27.3293C49.417 27.3293 49.6882 27.4497 49.7153 27.6432C49.7329 27.7689 49.6368 27.9624 49.4708 28.1366C49.3615 28.2516 49.1315 28.4509 48.8184 28.494L48.6952 28.5023ZM49.007 27.5052C48.915 27.5052 48.8205 27.5119 48.7235 27.5253C48.2461 27.5914 47.9622 27.7833 47.9758 27.886C47.9918 27.9986 48.2962 28.3264 48.6947 28.3264L48.7929 28.3194C49.0534 28.2829 49.249 28.1132 49.3422 28.015C49.4885 27.8609 49.5468 27.7163 49.5398 27.6666C49.5312 27.6021 49.3554 27.5052 49.007 27.5052ZM50.3192 38.3731C50.2236 38.373 50.1298 38.347 50.0478 38.2978C49.9658 38.2486 49.8987 38.178 49.8537 38.0936C49.8087 38.0093 49.7874 37.9143 49.7922 37.8188C49.797 37.7233 49.8276 37.6308 49.8808 37.5514C51.0049 35.8723 50.7991 34.1595 50.6002 32.5038C50.5152 31.798 50.4277 31.0688 50.4507 30.3683C50.4737 29.6481 50.5649 29.054 50.6536 28.4788C50.7584 27.7981 50.8574 27.1543 50.8163 26.391C50.8133 26.2538 50.8638 26.1208 50.9571 26.0202C51.0504 25.9195 51.1791 25.8591 51.3162 25.8518C51.4532 25.8444 51.5877 25.8906 51.6912 25.9807C51.7948 26.0707 51.8592 26.1975 51.8709 26.3343C51.9178 27.2069 51.8056 27.9349 51.6972 28.6395C51.6133 29.183 51.5267 29.745 51.5057 30.402C51.4856 31.0219 51.5649 31.6805 51.6487 32.3773C51.8607 34.1386 52.1002 36.1348 50.7584 38.1385C50.6565 38.2905 50.4893 38.3731 50.3192 38.3731Z" fill="white"/>
<path d="M14.6641 55.894C15.2539 55.7978 15.8507 55.7514 16.4483 55.7551C17.3666 55.7551 18.0399 55.9687 18.4672 56.3533C18.8624 56.6951 19.0974 57.2185 19.0974 57.8598C19.0974 58.5114 18.9047 59.0241 18.5416 59.398C18.0502 59.9214 17.2491 60.1884 16.3411 60.1884C16.0634 60.1884 15.807 60.1778 15.5938 60.1244V63.0089H14.6641V55.894ZM15.5938 59.3655C15.7967 59.4189 16.0531 59.4403 16.3629 59.4403C17.4841 59.4403 18.1681 58.8955 18.1681 57.9021C18.1681 56.9514 17.4952 56.4921 16.4697 56.4921C16.0638 56.4921 15.754 56.5242 15.5938 56.5669V59.3655ZM24.7267 60.3803C24.7267 62.2924 23.4018 63.1259 22.152 63.1259C20.7527 63.1259 19.6738 62.1005 19.6738 60.4658C19.6738 58.7353 20.8061 57.7205 22.2375 57.7205C23.7226 57.7201 24.7267 58.7994 24.7267 60.3803ZM20.6249 60.4337C20.6249 61.566 21.2765 62.4205 22.1951 62.4205C23.0924 62.4205 23.765 61.5767 23.765 60.4124C23.765 59.5364 23.3274 58.4255 22.2161 58.4255C21.1048 58.4255 20.6249 59.451 20.6249 60.4337ZM25.7838 62.0467C26.0615 62.2283 26.5529 62.4205 27.0229 62.4205C27.7065 62.4205 28.027 62.0787 28.027 61.6514C28.027 61.2028 27.7604 60.9571 27.0656 60.7008C26.1363 60.3696 25.6984 59.8569 25.6984 59.2374C25.6984 58.4042 26.3713 57.7205 27.4822 57.7205C28.0056 57.7205 28.4654 57.8701 28.7538 58.041L28.5188 58.7246C28.2008 58.5288 27.8347 58.4252 27.4613 58.4255C26.9058 58.4255 26.596 58.746 26.596 59.1305C26.596 59.5578 26.9062 59.7501 27.5792 60.0064C28.4765 60.3483 28.9358 60.7969 28.9358 61.566C28.9358 62.4739 28.2308 63.1149 27.0024 63.1149C26.4362 63.1149 25.9128 62.976 25.5496 62.7624L25.7838 62.0467ZM31.2747 56.3529V57.8376H32.6202V58.5533H31.2747V61.3413C31.2747 61.9822 31.4559 62.3454 31.9797 62.3454C32.1633 62.3484 32.3465 62.3269 32.5244 62.2813L32.5672 62.9863C32.386 63.061 32.0972 63.1144 31.7344 63.1144C31.2965 63.1144 30.9435 62.9756 30.7192 62.7192C30.4526 62.4415 30.356 61.9822 30.356 61.3733V58.5533H29.5549V57.8376H30.356V56.5985L31.2747 56.3529ZM38.0683 57.838C38.0465 58.2119 38.0256 58.6285 38.0256 59.2587V62.2603C38.0256 63.446 37.7906 64.1723 37.2885 64.6214C36.7865 65.0914 36.0601 65.2409 35.4085 65.2409C34.789 65.2409 34.1054 65.0914 33.6884 64.8137L33.9234 64.098C34.2652 64.3116 34.7993 64.5039 35.4402 64.5039C36.4015 64.5039 37.1065 64.0019 37.1065 62.6987V62.1219H37.0852C36.7968 62.6025 36.2413 62.9871 35.4402 62.9871C34.1584 62.9871 33.2397 61.8975 33.2397 60.4658C33.2397 58.7139 34.3827 57.7205 35.5684 57.7205C36.466 57.7205 36.9574 58.1905 37.1817 58.6178H37.2031L37.2458 57.838H38.0683ZM37.0963 59.8783C37.0963 59.718 37.0856 59.5792 37.0429 59.451C36.8719 58.9062 36.4126 58.4576 35.729 58.4576C34.8313 58.4576 34.1908 59.216 34.1908 60.4124C34.1908 61.4271 34.7035 62.271 35.7183 62.271C36.2951 62.271 36.8185 61.9078 37.0215 61.3096C37.0749 61.1494 37.0967 60.9678 37.0967 60.8076L37.0963 59.8783ZM39.5206 59.451C39.5206 58.8421 39.5099 58.3187 39.4779 57.838H40.3008L40.3324 58.8528H40.3752C40.6102 58.1585 41.1763 57.7205 41.8065 57.7205C41.9133 57.7205 41.9877 57.7312 42.0732 57.7526V58.6392C41.9681 58.6162 41.8607 58.6055 41.7531 58.6071C41.0908 58.6071 40.6204 59.1092 40.4927 59.8142C40.4662 59.9587 40.4519 60.1052 40.4499 60.2521V63.008H39.5206V59.451ZM43.4306 60.5939C43.4519 61.8651 44.2633 62.3885 45.2033 62.3885C45.8767 62.3885 46.2822 62.271 46.6347 62.1214L46.7949 62.7944C46.4638 62.9439 45.8977 63.1149 45.0752 63.1149C43.4836 63.1149 42.5329 62.068 42.5329 60.5085C42.5329 58.9489 43.4515 57.7201 44.9577 57.7201C46.6454 57.7201 47.094 59.2049 47.094 60.1556C47.094 60.3479 47.0727 60.4974 47.062 60.5935L43.4306 60.5939ZM46.1865 59.921C46.1967 59.3228 45.9404 58.3935 44.8833 58.3935C43.9326 58.3935 43.516 59.2694 43.4408 59.921H46.1865Z" fill="white"/>
<path d="M48.1612 61.8757C48.6647 62.1785 49.2401 62.3408 49.8276 62.3457C50.7782 62.3457 51.3337 61.8436 51.3337 61.1173C51.3337 60.4443 50.9491 60.0598 49.9771 59.6859C48.8021 59.2693 48.0757 58.6605 48.0757 57.6457C48.0757 56.5241 49.0051 55.6909 50.4044 55.6909C51.1414 55.6909 51.6755 55.8618 51.996 56.0434L51.7396 56.8018C51.3192 56.5762 50.8494 56.4588 50.3723 56.46C49.3896 56.46 49.0157 57.0475 49.0157 57.5389C49.0157 58.2118 49.4533 58.543 50.4471 58.9275C51.6648 59.3979 52.2844 59.985 52.2844 61.0425C52.2844 62.1534 51.4619 63.1148 49.7635 63.1148C49.0691 63.1148 48.3107 62.9118 47.9258 62.6555L48.1612 61.8757ZM59.4946 64.0654C58.566 63.8217 57.6468 63.5438 56.7387 63.2323C56.5891 63.1789 56.4396 63.1255 56.3007 63.1255C54.5916 63.0614 53.1282 61.8009 53.1282 59.483C53.1282 57.1757 54.5382 55.6909 56.4823 55.6909C58.4371 55.6909 59.7086 57.2077 59.7086 59.3334C59.7086 61.1814 58.8541 62.367 57.6577 62.7836V62.8264C58.3734 63.008 59.1532 63.1789 59.762 63.2857L59.4946 64.0654ZM58.7255 59.3761C58.7255 57.9341 57.9782 56.4489 56.4503 56.4489C54.88 56.4489 54.111 57.9016 54.1216 59.4616C54.111 60.9891 54.9548 62.367 56.4075 62.367C57.8927 62.367 58.7255 61.0211 58.7255 59.3761ZM60.9149 55.8084H61.8446V62.2282H64.9209V63.008H60.9149V55.8084Z" fill="#336791"/>
<defs>
<linearGradient id="paint0_linear_2046_421" x1="40" y1="0" x2="40" y2="80" gradientUnits="userSpaceOnUse">
<stop stop-color="#050A12"/>
<stop offset="1" stop-color="#251C31"/>
</linearGradient>
</defs>
</svg>
