<svg width="113" height="113" viewBox="0 0 113 113" fill="none" xmlns="http://www.w3.org/2000/svg">
<circle cx="56.2873" cy="56.2873" r="56.2873" fill="#251C31"/>
<path d="M68.7109 62.9809C69.0762 59.9388 68.967 59.4925 71.2326 59.9851L71.8079 60.036C73.5503 60.1152 75.8299 59.7556 77.1682 59.1335C80.0508 57.7963 81.7597 55.5624 78.9176 56.1492C72.434 57.4864 71.9882 55.2919 71.9882 55.2919C78.835 45.1336 81.6973 32.2391 79.2269 29.0826C72.4895 20.4731 60.8264 24.5443 60.631 24.6501L60.5685 24.6622C59.2874 24.3957 57.8542 24.2373 56.2436 24.2113C53.3096 24.1633 51.0832 24.9808 49.3945 26.2613C49.3945 26.2613 28.5884 17.6894 29.5562 37.041C29.762 41.1579 35.4571 68.1916 42.2495 60.0261C44.732 57.0407 47.1312 54.516 47.1312 54.516C48.3227 55.3075 49.7489 55.711 51.2451 55.5659L51.3607 55.4676C51.3249 55.8382 51.3405 56.2007 51.4076 56.6296C49.6576 58.5854 50.1721 58.9288 46.6733 59.6486C43.134 60.3782 45.2135 61.6767 46.5704 62.016C48.2169 62.4282 52.0239 63.0116 54.5971 59.4093L54.4948 59.8203C55.1816 60.3695 55.1347 63.7672 55.2319 66.1947C55.329 68.6223 55.492 70.8874 55.9869 72.224C56.4818 73.5595 57.0657 76.9999 61.6635 76.0147C65.5057 75.1903 68.4432 74.0052 68.7109 62.9809Z" fill="black"/>
<path d="M60.1687 78.4137C58.1349 78.4137 56.811 77.6274 56.0062 76.8678C54.7922 75.7225 54.3106 74.2466 54.0233 73.3649L53.899 72.9967C53.3197 71.4328 53.1237 69.1816 53.0075 66.2829C52.9904 65.8297 52.9759 65.3765 52.9641 64.9231C52.9543 64.5757 52.9422 64.1398 52.9248 63.6825C52.192 64.0316 51.4144 64.2775 50.6141 64.4132C49.1803 64.6584 47.639 64.5786 46.0319 64.1768C44.8981 63.8935 43.7199 63.3061 43.0487 62.3985C41.0918 64.1126 39.225 63.8796 38.2081 63.5408C36.4142 62.9425 34.8087 61.2619 33.2992 58.4013C32.2245 56.3646 31.1844 53.7098 30.208 50.5122C28.5083 44.9431 27.4284 39.0775 27.3324 37.1523C27.0306 31.1242 28.6528 26.8137 32.154 24.3411C37.6779 20.4393 46.0463 22.7333 49.0971 23.7751C51.1465 22.5396 53.5579 21.9378 56.2832 21.9817C57.747 22.0055 59.1403 22.1344 60.4347 22.3645C61.7846 21.9401 64.4521 21.3308 67.5051 21.3684C73.1303 21.4354 77.7917 23.6277 80.9847 27.7081C83.2631 30.6195 82.1369 36.7326 81.2622 40.1181C80.0325 44.879 77.8767 49.9439 75.2289 54.3527C75.9481 54.3579 76.9893 54.2712 78.4704 53.9659C81.3923 53.3624 82.2462 54.9291 82.478 55.6304C83.4071 58.4441 79.3688 60.5699 78.1091 61.1543C76.495 61.9042 73.8639 62.3603 71.7087 62.2615L71.6145 62.2551L71.0485 62.2054L70.9924 62.6771L70.9386 63.139C70.7941 68.726 69.9957 72.2642 68.3533 74.6027C66.6322 77.0534 64.2393 77.7407 62.1321 78.1923C61.4874 78.336 60.8292 78.4102 60.1687 78.4137ZM55.8895 58.0787C57.2024 59.1292 57.3174 61.1058 57.4198 64.8C57.4325 65.2608 57.4446 65.6972 57.4608 66.1048C57.5105 67.3385 57.6267 70.228 58.0788 71.449C58.143 71.6213 58.2002 71.797 58.2603 71.982C58.7645 73.5268 59.0177 74.3009 61.1978 73.8338C63.0287 73.4418 63.9693 73.0897 64.7059 72.041C65.7766 70.5159 66.3755 67.4501 66.4853 62.9257L68.7123 62.9801L66.5004 62.7147L66.5651 62.1626C66.7773 60.3427 66.9299 59.0268 68.1469 58.1573C69.1227 57.4595 70.2356 57.5272 71.1219 57.6867C70.1483 56.952 69.8789 56.0882 69.8072 55.7344L69.6217 54.8198L70.1431 54.0451C73.1494 49.5843 75.629 44.102 76.9459 39.0035C78.2987 33.7645 77.886 30.982 77.4738 30.4559C72.0128 23.4774 62.5414 26.3582 61.5528 26.686L61.3851 26.7761L60.5468 26.9328L60.1173 26.8438C58.9339 26.5981 57.6192 26.4622 56.2092 26.4391C53.9944 26.4021 52.208 26.9253 50.743 28.037L49.7266 28.8077L48.5467 28.3215C46.0272 27.2912 38.6249 25.2198 34.7191 27.9862C32.5511 29.5217 31.5637 32.5308 31.7834 36.9297C31.8556 38.382 32.8431 43.8794 34.4699 49.212C36.7194 56.5808 38.7637 59.028 39.617 59.313C39.7656 59.3633 40.1523 59.0627 40.5368 58.6013C43.0377 55.5934 45.4161 53.086 45.5162 52.9802L46.806 51.6234L48.3652 52.6594C48.9936 53.0774 49.6868 53.3138 50.399 53.3583L54.1181 50.1867L53.5793 55.6847C53.5671 55.8084 53.5613 55.9761 53.6099 56.2883L53.7718 57.3306L53.0705 58.1157L52.9896 58.2065L55.0327 59.15L55.8895 58.0787Z" fill="black"/>
<path d="M78.92 56.149C72.4357 57.4862 71.99 55.2911 71.99 55.2911C78.8361 45.1328 81.6979 32.2378 79.2281 29.0818C72.4901 20.4723 60.827 24.5441 60.6321 24.6499L60.5691 24.6609C59.288 24.3955 57.8548 24.2371 56.2436 24.2111C53.3096 24.1631 51.0838 24.98 49.3951 26.2605C49.3951 26.2605 28.5884 17.6892 29.5562 37.0408C29.762 41.1576 35.4571 68.1913 42.2495 60.0259C44.732 57.0405 47.1306 54.5158 47.1306 54.5158C48.3221 55.3073 49.7484 55.7108 51.244 55.5657L51.3602 55.4674C51.3243 55.838 51.3405 56.2005 51.4064 56.6294C49.657 58.5852 50.1704 58.9286 46.6727 59.6484C43.1329 60.378 45.2124 61.6765 46.5704 62.0158C48.2163 62.428 52.0239 63.0114 54.5965 59.4091L54.4936 59.8201C55.1793 60.3693 55.6608 63.3923 55.5799 66.1326C55.499 68.873 55.4452 70.7542 55.9857 72.2238C56.5263 73.6934 57.0645 76.9997 61.6629 76.0145C65.5051 75.1907 67.4962 73.0569 67.7737 69.4979C67.9703 66.9675 68.4149 67.3415 68.4432 65.0787L68.8005 64.0075C69.2115 60.5769 68.8658 59.4703 71.2332 59.9854L71.8084 60.0357C73.5509 60.1155 75.831 59.7553 77.1694 59.1333C80.0519 57.7955 81.7614 55.5622 78.92 56.149Z" fill="#336791"/>
<path d="M60.3989 77.0405C56.5653 77.0411 55.3512 74.0054 54.8541 72.7641C54.1274 70.9453 53.9701 63.8853 54.132 58.0954C54.1428 57.9021 54.2285 57.7206 54.3711 57.5895C54.5136 57.4585 54.7016 57.3882 54.8951 57.3936C55.0886 57.3991 55.2724 57.4798 55.4074 57.6186C55.5423 57.7574 55.6178 57.9434 55.6178 58.137C55.431 64.8149 55.6964 70.8661 56.234 72.212C57.0741 74.3118 58.3477 76.1485 61.95 75.3773C65.3696 74.6436 66.6501 73.3469 67.2201 70.0412C67.6584 67.5038 68.5232 60.2859 68.6296 58.8614C68.6443 58.6649 68.7364 58.4823 68.8857 58.3537C69.0349 58.2251 69.2292 58.1611 69.4257 58.1757C69.6222 58.1904 69.8048 58.2825 69.9334 58.4318C70.062 58.581 70.126 58.7753 70.1114 58.9718C70.0004 60.4541 69.1389 67.6587 68.684 70.2938C68.0104 74.199 66.2697 75.9704 62.261 76.8301C61.6493 76.9651 61.0252 77.0356 60.3989 77.0405ZM39.6147 62.2145C39.2796 62.2146 38.9468 62.1597 38.6296 62.052C36.1396 61.2213 33.7681 57.1663 31.5805 49.9987C29.9155 44.5424 28.8604 38.8478 28.7679 36.9973C28.4933 31.5109 29.9068 27.6288 32.968 25.4596C39.0244 21.1682 49.2133 25.255 49.644 25.4307C49.8247 25.5064 49.9683 25.6503 50.0434 25.8313C50.1185 26.0123 50.119 26.2156 50.0449 26.397C49.9708 26.5784 49.828 26.7231 49.6477 26.7998C49.4674 26.8764 49.2641 26.8786 49.0821 26.8061V26.8067C48.9838 26.7662 39.2135 22.8523 33.8242 26.6743C31.2064 28.5306 30.0045 31.9786 30.2514 36.9238C30.3294 38.4825 31.3151 44.0411 33.0015 49.5657C34.9544 55.9638 37.1773 60.002 39.0996 60.6426C39.4008 60.7438 40.3188 61.0496 41.6323 59.4713C44.1021 56.4997 46.3712 54.1283 46.3938 54.1046C46.5319 53.9707 46.7166 53.8956 46.909 53.895C47.1014 53.8945 47.2865 53.9685 47.4254 54.1016C47.5644 54.2347 47.6463 54.4165 47.654 54.6087C47.6617 54.8009 47.5946 54.9887 47.4668 55.1325C47.4442 55.1556 45.2098 57.4918 42.7747 60.4212C41.6214 61.8075 40.5154 62.2145 39.6147 62.2145ZM71.9434 55.954C71.8085 55.9542 71.6761 55.9176 71.5604 55.8482C71.4447 55.7788 71.3502 55.6792 71.2869 55.56C71.2235 55.4409 71.1939 55.3068 71.2011 55.1721C71.2083 55.0373 71.2521 54.9071 71.3277 54.7954C78.2485 44.5256 80.6777 32.1173 78.5971 29.4591C75.9782 26.1129 72.2799 24.3647 67.6058 24.2646C64.1445 24.1895 61.3932 25.0734 60.944 25.2278L60.8313 25.2735C60.3792 25.4157 60.0323 25.1677 59.9017 24.878C59.8272 24.7121 59.816 24.5246 59.8701 24.351C59.9242 24.1773 60.0398 24.0294 60.1954 23.9351L60.3954 23.853L60.3856 23.8559L60.396 23.8524C61.1597 23.5732 63.9526 22.7349 67.4127 22.7748C72.5851 22.8292 76.8575 24.8243 79.7678 28.5428C81.1449 30.3026 81.1478 34.357 79.7764 39.6659C78.3785 45.0783 75.7481 50.896 72.5603 55.6262C72.4924 55.7274 72.4006 55.8103 72.293 55.8675C72.1854 55.9246 72.0653 55.9544 71.9434 55.954ZM72.2967 60.7079C71.115 60.7079 70.0559 60.542 69.4217 60.1616C68.7695 59.7713 68.6452 59.24 68.629 58.9585C68.451 55.8343 70.1749 55.2903 71.0543 55.0423C70.9317 54.8573 70.7571 54.6393 70.5773 54.4144C70.0645 53.7739 69.3627 52.8963 68.8216 51.5839C68.7371 51.3793 68.4712 50.9023 68.1636 50.3508C66.4969 47.3625 63.0293 41.1436 65.2568 37.9587C66.2882 36.485 68.3406 35.9052 71.3653 36.2289C70.4756 33.5181 66.2379 25.0376 56.1843 24.8728C53.1602 24.822 50.68 25.7522 48.8167 27.6334C44.6444 31.8473 44.7958 39.4716 44.7976 39.5474C44.8001 39.6449 44.7834 39.742 44.7485 39.833C44.7135 39.9241 44.6609 40.0074 44.5938 40.0781C44.5266 40.1489 44.4462 40.2057 44.357 40.2454C44.2679 40.2851 44.1719 40.3068 44.0743 40.3093C43.9768 40.3119 43.8798 40.2952 43.7887 40.2602C43.6976 40.2253 43.6143 40.1727 43.5436 40.1055C43.4728 40.0384 43.416 39.9579 43.3763 39.8688C43.3366 39.7797 43.3149 39.6836 43.3124 39.5861C43.3031 39.2479 43.147 31.2472 47.761 26.5875C49.9203 24.4069 52.7624 23.3304 56.2086 23.3865C62.642 23.4923 66.7819 26.7621 69.1228 29.4874C71.6734 32.4567 72.9245 35.7323 73.0274 36.825C73.1043 37.6378 72.521 37.8009 72.403 37.8246L72.1354 37.8309C69.1667 37.3557 67.2624 37.6852 66.4749 38.8108C64.7805 41.232 68.0607 47.1145 69.4615 49.627C69.8194 50.2675 70.0772 50.7306 70.1952 51.0168C70.6554 52.1326 71.2555 52.8824 71.7376 53.4848C72.1614 54.015 72.5291 54.474 72.6609 55.014C72.7216 55.1209 73.5876 56.4009 78.7243 55.3406C80.0117 55.0752 80.7835 55.3024 81.0194 56.0158C81.4836 57.4201 78.8792 59.0574 77.4374 59.7274C76.1435 60.3281 74.0813 60.7079 72.2967 60.7079ZM70.1108 58.8359C70.2732 59.0007 71.0884 59.284 72.7771 59.2117C74.2779 59.147 75.8614 58.8203 76.8118 58.3798C78.027 57.8155 78.8376 57.1848 79.2579 56.7541L79.0243 56.7969C75.74 57.475 73.4171 57.3848 72.1203 56.5281C72.0332 56.4704 71.9492 56.4081 71.8689 56.3413C71.7284 56.3968 71.5983 56.4333 71.5058 56.4593C70.7698 56.6657 70.009 56.879 70.1108 58.8359ZM48.8953 62.9863C48.0796 62.9863 47.2211 62.8759 46.3441 62.6556C45.4358 62.4284 43.9038 61.7445 43.9275 60.6212C43.9535 59.3603 45.7867 58.9822 46.4776 58.84C48.9705 58.3266 49.1329 58.1208 49.9122 57.1316C50.1394 56.8431 50.4222 56.4841 50.8072 56.0534C51.3795 55.4134 52.0051 55.0885 52.6664 55.0885C53.1266 55.0885 53.5047 55.2452 53.7539 55.3481C54.5494 55.6776 55.2131 56.4743 55.4859 57.4282C55.7322 58.2885 55.6149 59.1163 55.1553 59.7592C53.6475 61.8711 51.483 62.9863 48.8953 62.9863ZM45.5324 60.6854C45.7567 60.8582 46.2053 61.0895 46.7042 61.2149C47.4639 61.4045 48.2004 61.5011 48.8953 61.5011C51.0124 61.5011 52.7115 60.6241 53.9464 58.8961C54.2037 58.5353 54.1268 58.078 54.058 57.8369C53.9134 57.3328 53.555 56.8744 53.1856 56.7206C52.985 56.6373 52.8191 56.5737 52.6664 56.5737C52.5843 56.5737 52.3352 56.5737 51.9149 57.0438C51.5599 57.4403 51.3049 57.7641 51.0789 58.0503C50.1088 59.2823 49.6642 59.7002 46.7771 60.2951C46.0729 60.4408 45.7116 60.5877 45.5324 60.6854ZM51.2454 57.2582C51.0681 57.258 50.8966 57.1943 50.7621 57.0788C50.6276 56.9632 50.5388 56.8034 50.5118 56.6281C50.4927 56.5047 50.4804 56.3804 50.4748 56.2558C48.582 56.2199 46.7563 55.4082 45.3705 53.9618C43.6182 52.1332 42.8204 49.5998 43.1823 47.0115C43.5754 44.2007 43.4286 41.7194 43.3494 40.3862C43.3297 40.112 43.3176 39.8373 43.3129 39.5624C43.3141 39.3277 43.3187 38.7039 45.4029 37.6477C46.144 37.2719 47.6304 36.6163 49.2538 36.448C51.9444 36.1705 53.7175 37.3684 54.2482 39.822C55.6808 46.4473 54.3615 49.3778 53.3983 51.5175C53.2185 51.9152 53.0492 52.2921 52.9139 52.6564L52.7942 52.9784C52.2854 54.3428 51.8455 55.5215 51.9808 56.4026C52.0105 56.5974 51.9618 56.796 51.8453 56.9549C51.7288 57.1138 51.554 57.2199 51.3593 57.2501L51.2454 57.2582ZM44.8034 39.7676L44.8328 40.2984C44.9149 41.683 45.0676 44.2603 44.6536 47.2179C44.3553 49.3524 45.0074 51.4365 46.4429 52.9344C47.5772 54.1184 49.0711 54.7717 50.606 54.7717H50.6378C50.8101 54.0473 51.0951 53.283 51.4021 52.4592L51.5212 52.1395C51.6744 51.7279 51.8536 51.3296 52.0432 50.9081C52.9705 48.8477 54.1245 46.2831 52.7954 40.1359C52.5317 38.919 51.8935 38.2142 50.8442 37.9818C48.6889 37.5054 45.4774 39.1265 44.8034 39.7676ZM49.2873 39.4526C49.2503 39.715 49.7689 40.4163 50.4441 40.51C51.1188 40.6042 51.6963 40.0561 51.7328 39.7937C51.7692 39.5312 51.2512 39.2415 50.5754 39.1473C49.9007 39.0531 49.3231 39.1895 49.2873 39.4526ZM50.5996 40.769L50.41 40.7557C49.9909 40.6973 49.5671 40.4331 49.2775 40.0486C49.1757 39.9139 49.0092 39.6514 49.0422 39.4179C49.0896 39.075 49.507 38.8704 50.1597 38.8704C50.3065 38.8704 50.4568 38.881 50.6106 38.9022C50.9667 38.9519 51.298 39.0548 51.5426 39.1913C51.9663 39.4283 51.9975 39.6919 51.9785 39.8289C51.9259 40.2064 51.3234 40.769 50.5996 40.769ZM49.5336 39.4965C49.555 39.6584 49.9556 40.1931 50.4782 40.2654L50.5991 40.2741C51.0812 40.2741 51.442 39.8943 51.4842 39.77C51.4397 39.6855 51.1298 39.4745 50.5412 39.3936C50.4146 39.3759 50.287 39.3666 50.1591 39.3658C49.7822 39.3653 49.5804 39.4503 49.5336 39.4965ZM69.8379 38.9166C69.8743 39.1797 69.3569 39.881 68.6811 39.9746C68.0058 40.0683 67.4283 39.5208 67.3913 39.2577C67.3554 38.9953 67.8734 38.7056 68.5487 38.612C69.2239 38.5172 69.8009 38.6548 69.8379 38.9166ZM68.5256 40.1087C67.8752 40.1087 67.315 39.6029 67.2687 39.2751C67.2155 38.8814 67.8636 38.5819 68.5319 38.4894C68.6795 38.4686 68.8239 38.4582 68.9649 38.4582C69.5413 38.4582 69.9229 38.6276 69.961 38.8999C69.9859 39.0768 69.8506 39.3491 69.6171 39.5942C69.4633 39.7561 69.1395 40.0365 68.699 40.0972L68.5256 40.1087ZM68.9644 38.7056C68.8349 38.7056 68.7019 38.7151 68.5654 38.734C67.8937 38.827 67.4942 39.097 67.5133 39.2415C67.5358 39.4 67.9642 39.8613 68.525 39.8613L68.6631 39.8515C69.0297 39.8 69.3049 39.5613 69.4361 39.4231C69.6419 39.2063 69.724 39.0028 69.7142 38.9328C69.702 38.8421 69.4546 38.7056 68.9644 38.7056ZM70.8109 53.9988C70.6763 53.9987 70.5443 53.9621 70.4289 53.8928C70.3136 53.8236 70.2192 53.7243 70.1558 53.6056C70.0925 53.4868 70.0626 53.3531 70.0693 53.2188C70.0761 53.0844 70.1192 52.9543 70.194 52.8425C71.7758 50.4797 71.4861 48.0695 71.2063 45.7397C71.0866 44.7465 70.9635 43.7203 70.9959 42.7346C71.0283 41.7211 71.1566 40.8852 71.2815 40.0758C71.4289 39.1178 71.5682 38.2119 71.5104 37.1378C71.5062 36.9447 71.5772 36.7576 71.7085 36.616C71.8398 36.4743 72.021 36.3894 72.2138 36.379C72.4066 36.3686 72.5959 36.4337 72.7416 36.5604C72.8873 36.6871 72.978 36.8656 72.9945 37.058C73.0604 38.2859 72.9025 39.3103 72.7499 40.3018C72.632 41.0667 72.51 41.8576 72.4805 42.782C72.4522 43.6544 72.5638 44.5811 72.6817 45.5616C72.98 48.04 73.3171 50.8491 71.4289 53.6687C71.2855 53.8826 71.0502 53.9988 70.8109 53.9988Z" fill="white"/>
<path d="M20.6406 78.6532C21.4706 78.518 22.3105 78.4526 23.1514 78.4578C24.4435 78.4578 25.3911 78.7584 25.9923 79.2996C26.5485 79.7806 26.8792 80.5171 26.8792 81.4195C26.8792 82.3364 26.608 83.0579 26.097 83.584C25.4055 84.3206 24.2782 84.6964 23.0005 84.6964C22.6097 84.6964 22.249 84.6813 21.9489 84.6062V88.6652H20.6406V78.6532ZM21.9489 83.5384C22.2345 83.6135 22.5953 83.6436 23.0312 83.6436C24.6089 83.6436 25.5715 82.877 25.5715 81.4791C25.5715 80.1413 24.6245 79.495 23.1815 79.495C22.6103 79.495 22.1744 79.5401 21.9489 79.6002V83.5384ZM34.8006 84.9663C34.8006 87.6569 32.9362 88.83 31.1775 88.83C29.2084 88.83 27.6903 87.3869 27.6903 85.0866C27.6903 82.6515 29.2836 81.2236 31.2978 81.2236C33.3877 81.223 34.8006 82.7417 34.8006 84.9663ZM29.0286 85.0415C29.0286 86.6348 29.9455 87.8373 31.2382 87.8373C32.5009 87.8373 33.4473 86.6498 33.4473 85.0114C33.4473 83.7789 32.8315 82.2156 31.2677 82.2156C29.7039 82.2156 29.0286 83.6586 29.0286 85.0415ZM36.2882 87.3112C36.679 87.5667 37.3704 87.8373 38.0318 87.8373C38.9938 87.8373 39.4447 87.3563 39.4447 86.7551C39.4447 86.1237 39.0695 85.778 38.0919 85.4173C36.7842 84.9513 36.1679 84.2298 36.1679 83.358C36.1679 82.1856 37.1149 81.2236 38.6781 81.2236C39.4147 81.2236 40.0616 81.434 40.4674 81.6745L40.1367 82.6365C39.6893 82.3609 39.1741 82.2152 38.6486 82.2156C37.867 82.2156 37.4311 82.6666 37.4311 83.2077C37.4311 83.8089 37.8676 84.0795 38.8146 84.4402C40.0772 84.9212 40.7235 85.5526 40.7235 86.6348C40.7235 87.9125 39.7315 88.8143 38.0029 88.8143C37.2062 88.8143 36.4697 88.6189 35.9586 88.3183L36.2882 87.3112ZM44.0148 79.299V81.3883H45.9082V82.3954H44.0148V86.3186C44.0148 87.2204 44.2697 87.7315 45.0069 87.7315C45.2653 87.7359 45.5231 87.7055 45.7735 87.6413L45.8336 88.6334C45.5786 88.7386 45.1722 88.8138 44.6617 88.8138C44.0454 88.8138 43.5488 88.6184 43.2332 88.2576C42.858 87.8668 42.7221 87.2205 42.7221 86.3637V82.3954H41.5948V81.3883H42.7221V79.6447L44.0148 79.299ZM53.5747 81.3889C53.544 81.915 53.5145 82.5012 53.5145 83.3881V87.6118C53.5145 89.2803 53.1839 90.3024 52.4774 90.9343C51.7709 91.5957 50.7488 91.8061 49.8319 91.8061C48.9601 91.8061 47.9981 91.5957 47.4113 91.2049L47.742 90.1978C48.223 90.4984 48.9745 90.769 49.8764 90.769C51.2292 90.769 52.2213 90.0625 52.2213 88.2287V87.417H52.1912C51.7854 88.0934 51.0037 88.6345 49.8764 88.6345C48.0727 88.6345 46.78 87.1014 46.78 85.0866C46.78 82.6215 48.3883 81.2236 50.0568 81.2236C51.32 81.2236 52.0114 81.8849 52.3271 82.4862H52.3571L52.4173 81.3889H53.5747ZM52.2068 84.2599C52.2068 84.0344 52.1918 83.839 52.1317 83.6586C51.8912 82.892 51.2448 82.2607 50.2828 82.2607C49.0196 82.2607 48.1183 83.3279 48.1183 85.0114C48.1183 86.4394 48.8398 87.6269 50.2678 87.6269C51.0795 87.6269 51.816 87.1158 52.1016 86.2741C52.1768 86.0486 52.2074 85.7931 52.2074 85.5676L52.2068 84.2599ZM55.6183 83.6586C55.6183 82.8018 55.6033 82.0653 55.5582 81.3889H56.7162L56.7607 82.8169H56.8208C57.1515 81.8398 57.9482 81.2236 58.835 81.2236C58.9853 81.2236 59.09 81.2386 59.2102 81.2687V82.5162C59.0624 82.4839 58.9112 82.4688 58.7599 82.4712C57.8279 82.4712 57.166 83.1776 56.9862 84.1697C56.949 84.3731 56.9288 84.5792 56.9261 84.786V88.664H55.6183V83.6586ZM61.1204 85.267C61.1504 87.0557 62.2922 87.7922 63.615 87.7922C64.5625 87.7922 65.1331 87.6269 65.6292 87.4164L65.8546 88.3634C65.3887 88.5738 64.592 88.8143 63.4346 88.8143C61.1949 88.8143 59.8572 87.3413 59.8572 85.1467C59.8572 82.9522 61.1498 81.223 63.2693 81.223C65.6442 81.223 66.2755 83.3123 66.2755 84.6501C66.2755 84.9207 66.2454 85.1311 66.2304 85.2664L61.1204 85.267ZM64.9984 84.32C65.0129 83.4782 64.6521 82.1705 63.1646 82.1705C61.8268 82.1705 61.2406 83.4031 61.1348 84.32H64.9984Z" fill="white"/>
<path d="M67.7766 87.0708C68.485 87.4968 69.2948 87.7252 70.1215 87.7321C71.4592 87.7321 72.2409 87.0257 72.2409 86.0036C72.2409 85.0566 71.6997 84.5155 70.3319 83.9894C68.6785 83.4031 67.6563 82.5464 67.6563 81.1184C67.6563 79.5401 68.964 78.3677 70.9331 78.3677C71.9703 78.3677 72.7219 78.6082 73.1728 78.8637L72.812 79.9309C72.2205 79.6135 71.5593 79.4482 70.888 79.4499C69.5052 79.4499 68.9791 80.2766 68.9791 80.9681C68.9791 81.9151 69.5948 82.381 70.9933 82.9221C72.7068 83.5841 73.5786 84.4102 73.5786 85.8983C73.5786 87.4616 72.4212 88.8144 70.0313 88.8144C69.0542 88.8144 67.987 88.5288 67.4453 88.168L67.7766 87.0708ZM83.7247 90.1522C82.4181 89.8092 81.1245 89.4181 79.8467 88.9797C79.6362 88.9046 79.4258 88.8294 79.2304 88.8294C76.8254 88.7392 74.7661 86.9655 74.7661 83.7038C74.7661 80.457 76.7502 78.3677 79.4859 78.3677C82.2366 78.3677 84.0259 80.5021 84.0259 83.4933C84.0259 86.0937 82.8234 87.7622 81.1399 88.3484V88.4085C82.147 88.6641 83.2443 88.9046 84.1011 89.0549L83.7247 90.1522ZM82.6425 83.5535C82.6425 81.5242 81.5909 79.4343 79.4408 79.4343C77.2312 79.4343 76.149 81.4786 76.164 83.6737C76.149 85.8232 77.3365 87.7622 79.3807 87.7622C81.4706 87.7622 82.6425 85.8683 82.6425 83.5535ZM85.7233 78.533H87.0316V87.5668H91.3606V88.6641H85.7233V78.533Z" fill="#336791"/>
</svg>
