<svg width="113" height="113" viewBox="0 0 113 113" fill="none" xmlns="http://www.w3.org/2000/svg">
<circle cx="56.2873" cy="56.2873" r="56.2873" fill="#251C31"/>
<path d="M87.4668 31.6985C74.0463 14.3196 49.0767 11.1114 31.6972 24.5344C14.3202 37.9574 11.1152 62.9271 24.5382 80.304C37.9638 97.6803 62.9353 100.883 80.3097 87.4579C97.6796 74.0349 100.885 49.0729 87.4668 31.6985Z" fill="#F37036"/>
<path d="M73.3463 30.48C71.9776 30.5895 70.6798 31.1341 69.6428 32.0342C68.4293 33.0881 67.6549 34.5585 67.4722 36.1553C67.2896 37.7522 67.7121 39.3595 68.6563 40.6602C69.5996 41.9611 70.9962 42.8613 72.5706 43.1833C74.145 43.5052 75.7829 43.2256 77.1612 42.3995H77.1625L77.2624 42.4994C77.7164 42.2393 78.1388 41.9276 78.5213 41.5705C79.7012 40.3225 80.3503 38.6651 80.3316 36.9477C80.313 35.2304 79.6281 33.5874 78.4213 32.3654V32.3641L72.7556 37.9945L72.6557 37.8952L78.3214 32.2622C77.6655 31.63 76.8829 31.1443 76.0252 30.8372C75.1675 30.5302 74.2544 30.4089 73.3463 30.4813V30.48ZM65.8868 39.6967C63.1706 39.6922 58.7356 42.771 47.9064 53.6002L47.9602 53.6553C47.9013 53.6348 47.8417 53.6328 47.8417 53.6328L43.7648 57.6739C43.6601 57.7735 43.5908 57.9045 43.5674 58.0471C43.5441 58.1897 43.5679 58.336 43.6354 58.4638C43.7028 58.5916 43.8102 58.6939 43.9411 58.755C44.072 58.8162 44.2193 58.8329 44.3606 58.8027L51.3523 57.3113C51.3835 57.2825 51.4042 57.2442 51.4113 57.2024L51.5663 57.3625L49.1832 59.7265H49.0679L34.919 73.9868L39.4585 78.3584C39.5853 78.4732 39.7454 78.5444 39.9156 78.5616C40.0857 78.5787 40.2569 78.541 40.4041 78.4538C40.5524 78.3675 40.6713 78.2384 40.745 78.0834C40.8187 77.9284 40.8439 77.7547 40.8173 77.5852L40.1542 74.7023C40.1125 74.6445 40.0901 74.575 40.0901 74.5038C40.0901 74.4325 40.1125 74.363 40.1542 74.3052C46.3517 71.3506 52.115 67.5606 57.2833 63.041L54.378 60.1345L54.4331 60.1256L52.7098 58.4029L52.82 58.2915L52.9366 58.4106L52.8764 58.4689L57.4485 63.141V63.1391C66.2123 54.8404 72.4328 48.1696 70.8152 43.6801C70.7415 43.1432 70.4921 42.6458 70.106 42.2656V42.2681C70.0077 42.1955 69.9043 42.13 69.7966 42.0721C69.7434 42.0157 69.6966 41.9581 69.6403 41.903L69.598 41.9453C69.479 41.8733 69.3543 41.8112 69.2251 41.7595L69.4103 41.5724C68.2597 40.5474 67.309 39.6992 65.8868 39.6954V39.6967ZM34.8204 74.072L31.5077 77.3853V77.3878C31.3888 77.4615 31.2964 77.5709 31.2438 77.7005C31.1912 77.83 31.1811 77.9729 31.2149 78.1086C31.2476 78.2442 31.3222 78.366 31.4282 78.4567C31.5341 78.5475 31.6659 78.6025 31.805 78.614L39.923 79.1746L34.8204 74.072Z" fill="white"/>
<path d="M73.9043 29.9331C72.045 29.931 70.2596 30.6605 68.9337 31.9639C67.9905 32.9294 67.3447 34.1457 67.0732 35.4679C66.8017 36.79 66.9161 38.1624 67.4026 39.4214C64.3654 38.1209 60.2564 40.3887 47.4753 53.1673C47.4664 53.187 47.4585 53.2071 47.4516 53.2275C47.4253 53.239 47.3998 53.2523 47.3754 53.2672L43.3336 57.3442C43.1399 57.5343 43.0127 57.7819 42.9708 58.0501C42.9289 58.3183 42.9746 58.5928 43.1011 58.833C43.2139 59.0231 43.3738 59.1809 43.5653 59.2914C43.7569 59.4018 43.9736 59.461 44.1947 59.4634L44.3952 59.3333L49.7918 58.1821L47.2101 60.7875C47.1955 60.8219 47.1839 60.8575 47.1755 60.8939L34.5231 73.5776C34.4727 73.6201 34.4309 73.6718 34.4001 73.7301L31.1419 76.9909C30.9797 77.1624 30.8689 77.376 30.822 77.6073C30.7751 77.8387 30.7941 78.0785 30.8767 78.2997C30.962 78.5192 31.1061 78.711 31.2932 78.8539C31.4804 78.9969 31.7033 79.0855 31.9376 79.11L40.021 79.6738C40.1591 79.6258 40.2767 79.532 40.3541 79.4079C40.4232 79.3112 40.4604 79.1953 40.4604 79.0764C40.4604 78.9575 40.4232 78.8416 40.3541 78.7449L40.3374 78.7289C40.5123 78.638 40.6662 78.5114 40.7891 78.3573C40.9188 78.1888 41.0094 77.9935 41.0544 77.7857C41.0994 77.5778 41.0976 77.3626 41.0492 77.1555L40.4188 74.4732C46.4666 71.5831 52.1332 67.9549 57.289 63.6716C57.3388 63.7007 57.3922 63.7229 57.4479 63.7376C57.6106 63.7254 57.7631 63.6556 57.8784 63.5403C66.5589 55.3211 71.6614 49.6887 71.6614 45.2171C71.6807 44.5969 71.5872 43.9782 71.3853 43.3914C72.1678 43.7152 73.0022 43.8953 73.8485 43.9231L73.8389 43.9256C75.0048 43.8905 76.1445 43.5716 77.1593 42.9967L77.1619 42.9974C77.2933 43.0364 77.4347 43.0238 77.5571 42.9621C78.0469 42.6737 78.4933 42.3174 78.8832 41.9038C79.5439 41.2557 80.0688 40.4823 80.4272 39.629C80.7856 38.7756 80.9702 37.8594 80.9704 36.9339C80.9703 36.0084 80.7857 35.0922 80.4275 34.2388C80.0692 33.3855 79.5445 32.6121 78.8839 31.9639C78.8601 31.9426 78.8349 31.9231 78.8083 31.9056C77.4893 30.6397 75.7318 29.9331 73.9036 29.9338L73.9043 29.9331ZM73.8485 31.0683C75.1431 31.076 76.3998 31.5066 77.4271 32.2945L72.2585 37.4944C72.241 37.5143 72.2247 37.5353 72.2098 37.5572C72.1167 37.6514 72.0621 37.7771 72.0567 37.9095C72.0566 37.9896 72.0746 38.0686 72.1094 38.1407C72.1441 38.2128 72.1946 38.2761 72.2572 38.3259H72.2585L76.1663 42.2338C75.0967 42.7006 73.911 42.8333 72.7647 42.6146C71.6183 42.3959 70.5648 41.836 69.7421 41.0082C68.0855 39.3426 67.605 36.8416 68.491 34.6718C69.377 32.5001 71.4891 31.0811 73.8485 31.0683ZM78.4098 33.2669C79.2549 34.2894 79.7156 35.5753 79.7122 36.9018C79.7098 38.4559 79.0904 39.9453 77.9902 41.0428C77.7696 41.2503 77.5345 41.4419 77.2868 41.6162L74.133 38.5111L73.5161 37.8942L73.6858 37.7244L78.4092 33.2656L78.4098 33.2669ZM78.1753 35.9531C78.0594 35.9166 77.9341 35.9237 77.823 35.9729C77.713 36.0298 77.6301 36.1279 77.5924 36.2458C77.5738 36.3047 77.5671 36.3666 77.5726 36.4281C77.5781 36.4895 77.5957 36.5493 77.6244 36.6039C77.738 36.8433 77.7827 37.1096 77.7536 37.373C77.7245 37.6364 77.6228 37.8864 77.4597 38.0953C77.418 38.1356 77.3853 38.1843 77.3637 38.2382C77.3422 38.2921 77.3323 38.35 77.3348 38.4079C77.3374 38.5258 77.3797 38.6386 77.4597 38.7231C77.5451 38.7558 77.6396 38.7558 77.725 38.7231C77.802 38.7423 77.8828 38.7402 77.9587 38.7168C78.0346 38.6934 78.1026 38.6498 78.1555 38.5905C78.4283 38.2563 78.601 37.8518 78.6537 37.4237C78.7064 36.9956 78.6369 36.5612 78.4534 36.1709V36.1734C78.3908 36.0684 78.2918 35.99 78.1753 35.9531ZM65.826 40.26C66.599 40.2864 67.3428 40.5618 67.9465 41.0454C67.2965 41.1391 66.6941 41.4402 66.2289 41.9038L51.6182 56.4492L48.7508 53.5818C56.3281 46.0403 60.9611 42.1011 63.8413 40.8103C64.4348 40.4366 65.1248 40.2457 65.826 40.26ZM68.3661 42.1562C68.8566 42.1566 69.3271 42.351 69.6749 42.6969C69.8594 42.8708 70.005 43.0817 70.1021 43.3159C70.1992 43.5501 70.2455 43.8023 70.238 44.0557C70.2296 44.3082 70.1692 44.5563 70.0606 44.7845C69.9521 45.0126 69.7976 45.216 69.607 45.3818L54.0718 58.9028L52.3953 57.2263L67.0573 42.6969C67.4052 42.3512 67.8756 42.1564 68.3661 42.1562ZM70.2841 46.4471C69.2014 50.7406 63.4634 56.5581 57.4799 62.211L55.0603 59.7939L70.2841 46.4471ZM47.9058 54.4287L48.0813 54.6017L50.3318 56.8522L44.1626 58.1719L47.9058 54.4287ZM51.6169 58.1699L51.6195 58.1725L52.3677 58.938L52.3793 58.9919L52.4292 58.9995L52.5881 59.1623L53.1134 59.7004L49.6637 60.1232L51.6169 58.1699ZM54.0942 60.7811L56.3864 63.072C51.3179 67.2866 45.756 70.8696 39.823 73.7423C39.6304 73.834 39.4755 73.9896 39.3848 74.1827C39.294 74.3758 39.273 74.5944 39.3253 74.8012L39.9883 77.684C40.0127 77.7179 40.0259 77.7585 40.0259 77.8003C40.0259 77.842 40.0127 77.8827 39.9883 77.9166C39.9519 77.9492 39.9046 77.9673 39.8557 77.9673C39.8067 77.9673 39.7595 77.9492 39.7231 77.9166L35.814 73.9754L47.8629 61.7497L54.0942 60.7811ZM34.9184 74.8364L35.4751 75.3579L38.3528 78.2356L31.9363 77.8205L34.9184 74.8364Z" fill="#F37036"/>
</svg>
