<svg width="80" height="80" viewBox="0 0 80 80" fill="none" xmlns="http://www.w3.org/2000/svg">
<circle cx="40" cy="40" r="40" fill="url(#paint0_linear_2046_375)"/>
<circle cx="40" cy="40" r="39.5" stroke="#9A9B9C" stroke-opacity="0.3"/>
<g clip-path="url(#clip0_2046_375)">
<path d="M62.158 22.5261C52.6209 10.176 34.8765 7.89611 22.5259 17.435C10.1771 26.974 7.89951 44.7184 17.4384 57.0671C26.9792 69.4154 44.725 71.6917 57.0719 62.151C69.4156 52.612 71.6937 34.8731 62.158 22.5261Z" fill="#F37036"/>
<path d="M52.1221 21.6605C51.1495 21.7383 50.2272 22.1253 49.4903 22.765C48.6279 23.5139 48.0776 24.5588 47.9478 25.6936C47.818 26.8284 48.1182 27.9706 48.7892 28.895C49.4596 29.8194 50.4521 30.4592 51.5709 30.688C52.6897 30.9168 53.8536 30.718 54.8332 30.131H54.8341L54.9051 30.202C55.2277 30.0171 55.5279 29.7956 55.7997 29.5419C56.6382 28.655 57.0994 27.4772 57.0862 26.2567C57.0729 25.0363 56.5862 23.8688 55.7286 23.0003V22.9994L51.7024 27.0006L51.6314 26.9301L55.6576 22.927C55.1916 22.4777 54.6354 22.1326 54.0259 21.9144C53.4164 21.6962 52.7675 21.61 52.1221 21.6614V21.6605ZM46.8212 28.2103C44.8909 28.2071 41.7392 30.395 34.0436 38.0906L34.0818 38.1298C34.0399 38.1152 33.9976 38.1138 33.9976 38.1138L31.1003 40.9856C31.0259 41.0563 30.9767 41.1495 30.9601 41.2508C30.9435 41.3521 30.9604 41.4561 31.0084 41.5469C31.0563 41.6377 31.1326 41.7104 31.2256 41.7539C31.3186 41.7973 31.4233 41.8092 31.5237 41.7877L36.4924 40.7279C36.5145 40.7074 36.5292 40.6802 36.5342 40.6505L36.6444 40.7643L34.9509 42.4442H34.8689L24.8142 52.5782L28.0401 55.6848C28.1302 55.7664 28.244 55.817 28.3649 55.8292C28.4859 55.8414 28.6075 55.8146 28.7121 55.7526C28.8175 55.6913 28.902 55.5995 28.9543 55.4894C29.0067 55.3792 29.0246 55.2558 29.0057 55.1353L28.5345 53.0867C28.5049 53.0456 28.4889 52.9962 28.4889 52.9456C28.4889 52.8949 28.5049 52.8455 28.5345 52.8044C32.9387 50.7048 37.0343 48.0115 40.7071 44.7997L38.6425 42.7342L38.6817 42.7278L37.457 41.5037L37.5353 41.4244L37.6182 41.5091L37.5754 41.5505L40.8246 44.8707V44.8693C47.0524 38.972 51.4729 34.2314 50.3234 31.041C50.271 30.6595 50.0938 30.306 49.8195 30.0358V30.0376C49.7496 29.986 49.6761 29.9395 49.5996 29.8983C49.5618 29.8583 49.5285 29.8173 49.4885 29.7781L49.4584 29.8082C49.3738 29.7571 49.2852 29.7129 49.1935 29.6762L49.325 29.5432C48.5074 28.8148 47.8318 28.2121 46.8212 28.2093V28.2103ZM24.7441 52.6387L22.39 54.9933V54.9951C22.3055 55.0474 22.2398 55.1252 22.2024 55.2173C22.1651 55.3093 22.1579 55.4109 22.1819 55.5073C22.2051 55.6036 22.2582 55.6902 22.3334 55.7547C22.4087 55.8192 22.5024 55.8583 22.6012 55.8665L28.3702 56.2648L24.7441 52.6387Z" fill="white"/>
<path d="M52.5205 21.2715C51.1993 21.27 49.9305 21.7884 48.9882 22.7146C48.318 23.4008 47.859 24.2651 47.6661 25.2047C47.4732 26.1443 47.5545 27.1195 47.9002 28.0142C45.7418 27.0901 42.8218 28.7017 33.7391 37.7826C33.7327 37.7966 33.7271 37.8109 33.7222 37.8254C33.7035 37.8336 33.6854 37.843 33.668 37.8536L30.7958 40.7509C30.6582 40.886 30.5678 41.0619 30.538 41.2525C30.5082 41.4431 30.5407 41.6382 30.6306 41.8089C30.7108 41.944 30.8244 42.0562 30.9605 42.1346C31.0966 42.2131 31.2506 42.2552 31.4077 42.2569L31.5502 42.1644L35.3853 41.3463L33.5506 43.1979C33.5402 43.2223 33.532 43.2476 33.526 43.2734L24.5347 52.287C24.4989 52.3172 24.4692 52.354 24.4473 52.3954L22.1319 54.7126C22.0167 54.8345 21.9379 54.9863 21.9046 55.1507C21.8713 55.3151 21.8847 55.4855 21.9434 55.6427C22.004 55.7987 22.1065 55.935 22.2395 56.0366C22.3725 56.1382 22.5309 56.2011 22.6973 56.2186L28.4417 56.6192C28.5399 56.5851 28.6234 56.5184 28.6785 56.4303C28.7276 56.3615 28.754 56.2792 28.754 56.1947C28.754 56.1102 28.7276 56.0278 28.6785 55.9591L28.6666 55.9477C28.7909 55.8831 28.9002 55.7931 28.9876 55.6837C29.0797 55.5639 29.1441 55.4251 29.1761 55.2774C29.2081 55.1297 29.2068 54.9768 29.1724 54.8296L28.7244 52.9234C33.0223 50.8696 37.0492 48.2913 40.7131 45.2474C40.7484 45.2681 40.7864 45.2838 40.826 45.2943C40.9416 45.2857 41.05 45.236 41.1319 45.1541C47.3006 39.3132 50.9267 35.3106 50.9267 32.1329C50.9404 31.6921 50.8739 31.2525 50.7305 30.8355C51.2865 31.0656 51.8795 31.1936 52.4809 31.2133L52.4741 31.2151C53.3026 31.1902 54.1125 30.9636 54.8337 30.555L54.8355 30.5555C54.9289 30.5832 55.0294 30.5743 55.1164 30.5304C55.4644 30.3255 55.7817 30.0723 56.0588 29.7784C56.5283 29.3178 56.9013 28.7682 57.156 28.1618C57.4107 27.5553 57.5419 26.9042 57.542 26.2465C57.5419 25.5888 57.4108 24.9377 57.1562 24.3313C56.9016 23.7249 56.5287 23.1753 56.0592 22.7146C56.0424 22.6995 56.0244 22.6857 56.0055 22.6732C55.0682 21.7736 53.8193 21.2714 52.5201 21.2719L52.5205 21.2715ZM52.4809 22.0782C53.4009 22.0837 54.2939 22.3897 55.024 22.9496L51.351 26.6448C51.3386 26.659 51.327 26.6739 51.3164 26.6895C51.2502 26.7564 51.2114 26.8457 51.2076 26.9399C51.2076 26.9967 51.2203 27.0529 51.245 27.1041C51.2697 27.1553 51.3056 27.2003 51.3501 27.2358H51.351L54.128 30.0128C53.3679 30.3445 52.5254 30.4389 51.7107 30.2835C50.8961 30.1281 50.1474 29.7302 49.5628 29.1419C48.3855 27.9583 48.044 26.1809 48.6737 24.639C49.3033 23.0957 50.8042 22.0873 52.4809 22.0782ZM55.7223 23.6406C56.3229 24.3672 56.6503 25.2811 56.6479 26.2237C56.6462 27.3281 56.206 28.3866 55.4242 29.1665C55.2674 29.314 55.1003 29.4501 54.9243 29.5739L52.6831 27.3673L52.2447 26.9289L52.3653 26.8083L55.7219 23.6397L55.7223 23.6406ZM55.5557 25.5495C55.4733 25.5236 55.3843 25.5286 55.3053 25.5636C55.2272 25.604 55.1683 25.6738 55.1414 25.7576C55.1283 25.7994 55.1235 25.8434 55.1274 25.8871C55.1313 25.9308 55.1438 25.9732 55.1642 26.012C55.2449 26.1822 55.2767 26.3714 55.256 26.5586C55.2354 26.7457 55.1631 26.9234 55.0472 27.0719C55.0175 27.1005 54.9943 27.1351 54.979 27.1734C54.9637 27.2117 54.9567 27.2528 54.9584 27.294C54.9603 27.3778 54.9903 27.4579 55.0472 27.518C55.1079 27.5412 55.175 27.5412 55.2357 27.518C55.2904 27.5317 55.3479 27.5301 55.4018 27.5135C55.4557 27.4969 55.504 27.4659 55.5416 27.4238C55.7355 27.1863 55.8582 26.8989 55.8957 26.5946C55.9331 26.2903 55.8838 25.9817 55.7533 25.7043V25.7061C55.7088 25.6315 55.6385 25.5758 55.5557 25.5495ZM46.7798 28.6102C47.3291 28.6289 47.8577 28.8247 48.2867 29.1683C47.8248 29.2349 47.3967 29.4489 47.0662 29.7784L36.6832 40.1149L34.6455 38.0772C40.0302 32.7179 43.3226 29.9186 45.3694 29.0012C45.7912 28.7357 46.2815 28.6 46.7798 28.6102ZM48.5849 29.9577C48.9335 29.958 49.2678 30.0961 49.515 30.342C49.6461 30.4655 49.7496 30.6154 49.8186 30.7819C49.8875 30.9483 49.9205 31.1275 49.9151 31.3076C49.9092 31.487 49.8662 31.6633 49.7891 31.8255C49.7119 31.9876 49.6022 32.1321 49.4667 32.2499L38.4268 41.8585L37.2354 40.6671L47.6548 30.342C47.902 30.0963 48.2363 29.9579 48.5849 29.9577ZM49.9479 33.007C49.1785 36.0581 45.1008 40.1923 40.8488 44.2094L39.1293 42.4918L49.9479 33.007ZM34.045 38.679L34.1697 38.8019L35.769 40.4012L31.3849 41.3391L34.045 38.679ZM36.6823 41.3377L36.6841 41.3395L37.2158 41.8835L37.224 41.9218L37.2595 41.9273L37.3724 42.0429L37.7457 42.4253L35.2942 42.7258L36.6823 41.3377ZM38.4427 43.1933L40.0716 44.8213C36.4698 47.8164 32.5173 50.3626 28.3011 52.404C28.1642 52.4692 28.0541 52.5798 27.9896 52.717C27.9251 52.8542 27.9102 53.0095 27.9473 53.1565L28.4185 55.2052C28.4359 55.2292 28.4452 55.2581 28.4452 55.2878C28.4452 55.3175 28.4359 55.3464 28.4185 55.3704C28.3926 55.3937 28.3591 55.4065 28.3243 55.4065C28.2895 55.4065 28.2559 55.3937 28.23 55.3704L25.4521 52.5697L34.0145 43.8817L38.4427 43.1933ZM24.8156 53.1816L25.2113 53.5522L27.2563 55.5972L22.6964 55.3021L24.8156 53.1816Z" fill="#F37036"/>
</g>
<defs>
<linearGradient id="paint0_linear_2046_375" x1="40" y1="0" x2="40" y2="80" gradientUnits="userSpaceOnUse">
<stop stop-color="#050A12"/>
<stop offset="1" stop-color="#251C31"/>
</linearGradient>
<clipPath id="clip0_2046_375">
<rect width="58.2725" height="58.2725" fill="white" transform="translate(10.6602 10.6597)"/>
</clipPath>
</defs>
</svg>
