<svg width="80" height="80" viewBox="0 0 80 80" fill="none" xmlns="http://www.w3.org/2000/svg">
<circle cx="40" cy="40" r="40" fill="url(#paint0_linear_2364_1072)"/>
<circle cx="40" cy="40" r="39.5" stroke="#9A9B9C" stroke-opacity="0.3"/>
<path d="M48.9223 15C46.3871 15 43.0688 16.807 39.7137 19.941C36.3582 16.8254 33.0402 15.0367 30.5055 15.0367V15.0457C29.7313 15.0457 29.0305 15.2121 28.4219 15.5625C25.832 17.0555 25.2516 21.7105 26.5879 27.5543C20.8547 29.3238 17.1215 32.1539 17.1215 35.1402C17.1215 38.1363 20.873 40.9746 26.6246 42.7348C25.2973 48.5973 25.8875 53.2609 28.4871 54.7543C29.0859 55.1043 29.7863 55.2707 30.5605 55.2707C33.0957 55.2707 36.4141 53.4637 39.7691 50.3301C43.1246 53.4453 46.4426 55.2344 48.9773 55.2344C49.7508 55.2344 50.4516 55.0684 51.0602 54.718C53.65 53.2246 54.2309 48.5695 52.8941 42.7258C58.609 40.9656 62.3422 38.127 62.3422 35.1398C62.3422 32.1449 58.591 29.3059 52.8391 27.5453C54.1664 21.6832 53.5762 17.0195 50.977 15.5262C50.3805 15.177 49.6828 15.0113 48.9223 15.0102V15ZM48.9125 17.0562V17.0645C49.3363 17.0645 49.6781 17.1477 49.9633 17.3043C51.2172 18.023 51.7609 20.7613 51.3371 24.282C51.2355 25.1484 51.0699 26.0609 50.8668 26.9918C49.0602 26.5496 47.0875 26.2086 45.0137 25.9871C43.7695 24.282 42.4785 22.7332 41.1793 21.3777C44.1793 18.5906 46.9953 17.0617 48.9125 17.0562ZM30.5055 17.0922C32.4137 17.0922 35.243 18.6129 38.2477 21.3875C36.8751 22.8318 35.6032 24.3686 34.441 25.9871C32.3578 26.2086 30.3863 26.5496 28.5793 27.0012C28.3757 26.1184 28.2155 25.2262 28.0992 24.3277C27.6664 20.8066 28.2008 18.0699 29.4453 17.3414C29.7215 17.1758 30.082 17.102 30.5055 17.102V17.0922ZM39.7047 22.8344C40.609 23.773 41.4643 24.7576 42.2672 25.7844C41.4227 25.7442 40.5775 25.7229 39.732 25.7203C38.8652 25.7203 38.0086 25.7383 37.1699 25.7844C37.9609 24.7562 38.8069 23.7715 39.7043 22.8348L39.7047 22.8344ZM39.732 27.7848C41.1238 27.7848 42.516 27.8496 43.8801 27.9602C44.671 29.0968 45.4151 30.2654 46.1105 31.4629C46.8021 32.6574 47.4419 33.8812 48.0281 35.1309C47.4416 36.3817 46.805 37.6085 46.1199 38.8082C45.4012 40.0523 44.6629 41.2328 43.8984 42.3297C42.5246 42.4496 41.1328 42.5133 39.732 42.5133C38.3398 42.5133 36.9484 42.4496 35.5844 42.3391C34.7934 41.2025 34.0493 40.0341 33.3539 38.8367C32.6623 37.6418 32.0225 36.4176 31.4363 35.1676C32.0192 33.9149 32.6559 32.688 33.3445 31.4902C34.0633 30.2461 34.8004 29.066 35.5656 27.9691C36.9511 27.8474 38.3412 27.7859 39.732 27.7848ZM32.8828 28.2637C32.4312 28.9734 31.9805 29.7012 31.5562 30.448C31.1391 31.1758 30.7395 31.9135 30.3578 32.6605C29.8739 31.4595 29.4494 30.2354 29.0859 28.9926C30.293 28.7066 31.5648 28.4574 32.8828 28.2637ZM46.5625 28.2637C47.8711 28.4574 49.1336 28.6973 50.3414 28.9926C50 30.1816 49.5758 31.4066 49.0969 32.6332C48.7156 31.8843 48.3128 31.1464 47.8891 30.4207C47.4652 29.6832 47.0141 28.9645 46.5625 28.2637ZM52.332 29.5363C53.2098 29.8088 54.0743 30.1224 54.9227 30.4762C58.1855 31.868 60.2961 33.693 60.2961 35.1402C60.2867 36.5875 58.1758 38.4215 54.9129 39.8043C54.1199 40.1449 53.2543 40.4496 52.3602 40.7352C51.8348 38.9289 51.143 37.0477 50.2859 35.1219C51.1336 33.2047 51.8156 31.334 52.3316 29.5359L52.332 29.5363ZM27.0945 29.5457C27.6199 31.352 28.3117 33.232 29.1687 35.1586C28.3211 37.0758 27.6387 38.9473 27.1227 40.7445C26.2476 40.4732 25.3862 40.1593 24.5418 39.8039C21.2789 38.4121 19.1676 36.5875 19.1676 35.1398C19.1676 33.693 21.2789 31.8586 24.5418 30.4758C25.3348 30.1352 26.2004 29.8312 27.0945 29.5457ZM39.7227 30.9281C37.3965 30.9281 35.5105 32.8137 35.5105 35.1402C35.5105 37.4668 37.3965 39.3523 39.7227 39.3523C42.0492 39.3523 43.9348 37.4668 43.9348 35.1402C43.9348 32.8137 42.0492 30.9281 39.7227 30.9281ZM49.0969 37.6105C49.5808 38.8116 50.0052 40.0357 50.3688 41.2785C49.1153 41.5836 47.8483 41.83 46.5719 42.0168C47.0322 41.2996 47.4745 40.571 47.8984 39.8316C48.3157 39.101 48.7153 38.3604 49.0969 37.6105ZM30.3578 37.6473C30.739 38.3962 31.1416 39.134 31.5652 39.8598C31.9931 40.5876 32.4359 41.3065 32.8934 42.016C31.5848 41.8227 30.3207 41.5824 29.1133 41.2875C29.4543 40.0984 29.8789 38.8734 30.3578 37.6473ZM50.8852 43.2695C51.0973 44.2008 51.2629 45.0949 51.3645 45.9523C51.7973 49.473 51.2629 52.2102 50.0187 52.9383C49.7422 53.1043 49.3832 53.1789 48.959 53.1789C47.0508 53.1789 44.2207 51.6578 41.2156 48.8832C42.589 47.4393 43.8611 45.9025 45.023 44.2836C47.1059 44.0625 49.0789 43.7211 50.8852 43.2695ZM28.5977 43.2879C30.4043 43.7305 32.3762 44.0715 34.45 44.2926C35.6941 45.998 36.9852 47.5465 38.2848 48.902C35.2797 51.6949 32.4594 53.2246 30.5426 53.2246C30.1277 53.2152 29.7773 53.1324 29.5008 52.9758C28.2473 52.257 27.7039 49.5191 28.1277 45.998C28.2293 45.1316 28.3945 44.2191 28.5977 43.2879ZM37.1883 44.4957C38.018 44.5324 38.8656 44.5598 39.7227 44.5598C40.5891 44.5598 41.4465 44.5418 42.2852 44.4957C41.494 45.5238 40.6477 46.5083 39.75 47.4449C38.893 46.5602 38.0363 45.5738 37.1883 44.4957ZM53.7469 58.9168C53.6005 58.9171 53.4895 58.9592 53.4137 59.0434C53.3408 59.1277 53.3042 59.2307 53.3039 59.3523C53.3039 59.4742 53.3404 59.5758 53.4133 59.657C53.4893 59.738 53.6007 59.7786 53.7473 59.7789C53.9672 59.7793 54.0047 59.7379 54.0805 59.657C54.1567 59.5742 54.1973 59.4648 54.1938 59.3523C54.1938 59.2305 54.156 59.1276 54.0805 59.0437C54.0044 58.9591 53.893 58.9168 53.7469 58.9168ZM17 58.9988V64.918H17.7844V62.5234H19.175L20.4602 64.918H21.2977V64.8691L19.907 62.357C20.2622 62.2214 20.5387 62.0165 20.7363 61.7426C20.9368 61.4691 21.0371 61.148 21.0371 60.7793C21.0374 60.1991 20.8572 59.7573 20.4965 59.4539C20.1389 59.1503 19.6266 58.9984 18.9594 58.9984L17 58.9988ZM40.2277 58.9988V64.918H41.0129V60.3566L43.993 64.918H44.7781V58.9988H44.0008V63.5809L41.0129 58.9988H40.2277ZM35.5891 59.4539V60.5191H34.7883V61.1004H35.5891V63.8285C35.5891 64.2027 35.6742 64.4914 35.8445 64.6945C36.0159 64.8977 36.2695 64.9993 36.6055 64.9996C36.793 64.9996 36.9854 64.9724 37.1828 64.918V64.3086C37.031 64.3411 36.9117 64.3574 36.825 64.3574C36.649 64.3574 36.5243 64.3139 36.4512 64.227C36.3783 64.1374 36.3418 64.0046 36.3418 63.8285V61.1004H37.1621V60.5191H36.3418V59.4539H35.5891ZM50.8441 59.4539V60.5191H50.043V61.1004H50.8437V63.8285C50.844 64.2027 50.9294 64.4914 51.1 64.6945C51.2708 64.8977 51.5241 64.9993 51.8598 64.9996C52.0473 64.9996 52.2398 64.9724 52.4375 64.918V64.3086C52.2854 64.3411 52.1661 64.3574 52.0797 64.3574C51.9036 64.3574 51.779 64.3139 51.7059 64.227C51.6329 64.1374 51.5964 64.0046 51.5961 63.8285V61.1004H52.4164V60.5191H51.5961V59.4539H50.8441ZM17.7844 59.6414H18.9797C19.3917 59.6437 19.7061 59.7427 19.923 59.9383C20.1426 60.1328 20.2523 60.4132 20.2523 60.7793C20.2523 61.1152 20.1372 61.3835 19.907 61.584C19.6794 61.7848 19.3716 61.8853 18.9836 61.8855H17.7844V59.6414ZM23.7492 60.4375C23.3992 60.4375 23.074 60.5352 22.7734 60.7305C22.4753 60.9229 22.2422 61.1914 22.0742 61.5359C21.9083 61.8773 21.8255 62.2661 21.8258 62.7023V62.8406C21.8258 63.4964 22.0129 64.0207 22.3871 64.4137C22.7613 64.8043 23.2466 64.9996 23.843 64.9996C24.5799 64.9996 25.1328 64.7163 25.5016 64.1496L25.0422 63.7918C24.9096 63.965 24.7452 64.1113 24.5578 64.223C24.3734 64.3314 24.1486 64.3855 23.8832 64.3855C23.5092 64.3855 23.2003 64.2527 22.9562 63.9871C22.7151 63.7189 22.5891 63.368 22.5781 62.9344H25.5578V62.6207C25.5581 61.9186 25.3997 61.3793 25.0828 61.0027C24.7656 60.6259 24.3211 60.4375 23.7492 60.4375ZM28.1445 60.4375C27.8411 60.4344 27.5405 60.4957 27.2625 60.6172C26.9966 60.7359 26.785 60.8983 26.6277 61.1043C26.4733 61.3077 26.396 61.5193 26.3957 61.7391H27.1523C27.1523 61.5464 27.2432 61.3823 27.425 61.2469C27.6065 61.1115 27.8312 61.0438 28.0992 61.0438C28.406 61.0438 28.638 61.1224 28.7953 61.2797C28.9523 61.4339 29.0309 61.6423 29.0309 61.9051V62.2508H28.2984C27.6669 62.2508 27.1763 62.3783 26.8266 62.6332C26.4797 62.8855 26.3062 63.2408 26.3062 63.6988C26.3062 64.0754 26.4447 64.387 26.7215 64.6336C27.0007 64.8776 27.3569 64.9996 27.7902 64.9996C28.2757 64.9996 28.6932 64.8181 29.043 64.4551C29.0703 64.6772 29.1055 64.8315 29.1484 64.918H29.9375V64.8531C29.8346 64.6148 29.7832 64.2936 29.7832 63.8895V61.8648C29.7723 61.4203 29.6229 61.0721 29.3352 60.8203C29.0482 60.5651 28.6513 60.4375 28.1445 60.4375ZM32.7219 60.4375C32.3211 60.4375 31.9729 60.5299 31.6773 60.7148C31.3846 60.8984 31.1596 61.1572 31.0023 61.491C30.8451 61.8241 30.7664 62.2048 30.7664 62.6332V62.759C30.7664 63.4533 30.9427 64.001 31.2953 64.4023C31.6505 64.8008 32.1276 65 32.7266 65C33.0247 65 33.3065 64.932 33.5719 64.7961C33.828 64.6706 34.0488 64.4833 34.2145 64.2512C34.3746 64.0236 34.4616 63.7837 34.4754 63.5316H33.7633C33.7417 63.7757 33.6306 63.9789 33.4301 64.1414C33.2319 64.3034 32.9828 64.3899 32.727 64.3855C32.3389 64.3855 32.0405 64.2488 31.8316 63.9754C31.6233 63.7014 31.5191 63.3109 31.5191 62.8039V62.6621C31.5191 62.1415 31.6233 61.7444 31.8316 61.4707C32.0431 61.1941 32.34 61.0561 32.7223 61.0566C33.0069 61.0564 33.2453 61.1483 33.4375 61.3324C33.6333 61.5139 33.7419 61.747 33.7633 62.0316H34.4754C34.4533 61.5603 34.2783 61.1768 33.9504 60.8813C33.6249 60.5857 33.2154 60.4378 32.7219 60.4375ZM47.7578 60.4375C47.4545 60.4345 47.1541 60.4957 46.8762 60.6172C46.6103 60.7359 46.3987 60.8983 46.2414 61.1043C46.087 61.3077 46.0099 61.5193 46.0102 61.7391H46.766C46.766 61.5464 46.8569 61.3823 47.0387 61.2469C47.2202 61.1115 47.4449 61.0438 47.7129 61.0438C48.0197 61.0438 48.2517 61.1224 48.409 61.2797C48.566 61.4339 48.6445 61.6423 48.6445 61.9051V62.2508H47.9129C47.2809 62.2508 46.79 62.3783 46.4402 62.6332C46.0934 62.8855 45.9199 63.2408 45.9199 63.6988C45.9199 64.0754 46.0583 64.387 46.3352 64.6336C46.6141 64.8776 46.9703 64.9996 47.4039 64.9996C47.8893 64.9996 48.3069 64.8181 48.6566 64.4551C48.6835 64.6772 48.7186 64.8315 48.7621 64.918H49.5512V64.8531C49.4483 64.6148 49.3969 64.2936 49.3969 63.8895V61.8648C49.3857 61.4203 49.2363 61.0721 48.9488 60.8203C48.6618 60.5651 48.2651 60.4375 47.7578 60.4375ZM61.0332 60.4375C60.6862 60.4367 60.3466 60.5386 60.0574 60.7305C59.759 60.9229 59.5258 61.1914 59.3578 61.5359C59.1924 61.8773 59.1098 62.2661 59.1098 62.7023V62.8406C59.1098 63.4964 59.297 64.0207 59.6715 64.4137C60.0452 64.8043 60.5301 64.9996 61.1262 64.9996C61.8637 64.9996 62.4168 64.7163 62.7855 64.1496L62.3262 63.7918C62.1935 63.965 62.0292 64.1113 61.8418 64.223C61.6577 64.3314 61.4329 64.3855 61.1676 64.3855C60.7931 64.3855 60.4841 64.2527 60.2406 63.9871C59.9992 63.7189 59.8729 63.368 59.8617 62.9344H62.8422V62.6207C62.8422 61.9186 62.6837 61.3793 62.3668 61.0027C62.0499 60.6262 61.6053 60.4378 61.0332 60.4375ZM53.3648 60.5195V64.918H54.1172V60.5195H53.3648ZM54.8898 60.5195L56.4828 64.918H57.057L58.6344 60.5195H57.8648L56.7758 63.898L55.6586 60.5191L54.8898 60.5195ZM23.7492 61.0562C24.0633 61.0562 24.3128 61.1617 24.4977 61.3727C24.6818 61.5815 24.7846 61.8771 24.8062 62.2594V62.3164H22.6023C22.651 61.918 22.7786 61.6087 22.9852 61.3887C23.0812 61.2817 23.1991 61.1966 23.331 61.1393C23.4628 61.082 23.6055 61.0534 23.7492 61.0562ZM61.0332 61.0562C61.3475 61.0562 61.5967 61.1617 61.7809 61.3727C61.9652 61.5815 62.0681 61.8771 62.0895 62.2594V62.3164H59.8863C59.935 61.918 60.0625 61.6087 60.2687 61.3887C60.3648 61.2816 60.4828 61.1965 60.6147 61.1392C60.7467 61.0819 60.8894 61.0534 61.0332 61.0562ZM28.441 62.784H29.0309V63.6863C28.9361 63.8816 28.7829 64.0402 28.5715 64.1621C28.368 64.2816 28.1364 64.3447 27.9004 64.3449C27.6535 64.3449 27.4517 64.2785 27.2949 64.1457C27.1374 64.0129 27.0586 63.8286 27.0586 63.593C27.0586 63.0539 27.5195 62.7844 28.4414 62.7844L28.441 62.784ZM48.0543 62.784H48.6441V63.6863C48.5496 63.8816 48.3966 64.0402 48.1852 64.1621C47.9814 64.2817 47.7495 64.3448 47.5133 64.3449C47.2672 64.3449 47.0654 64.2785 46.9078 64.1457C46.751 64.0129 46.6725 63.8286 46.6723 63.593C46.6723 63.0539 47.1332 62.7844 48.0551 62.7844L48.0543 62.784Z" fill="#61DAFB"/>
<defs>
<linearGradient id="paint0_linear_2364_1072" x1="40" y1="0" x2="40" y2="80" gradientUnits="userSpaceOnUse">
<stop stop-color="#050A12"/>
<stop offset="1" stop-color="#251C31"/>
</linearGradient>
</defs>
</svg>
