<svg width="80" height="80" viewBox="0 0 80 80" fill="none" xmlns="http://www.w3.org/2000/svg">
<circle cx="40" cy="40" r="40" fill="url(#paint0_linear_2364_1007)"/>
<circle cx="40" cy="40" r="39.5" stroke="#9A9B9C" stroke-opacity="0.3"/>
<path d="M48.0787 47.8896C48.8415 47.8088 49.5443 47.4382 50.0418 46.8543C50.5394 46.2705 50.7939 45.5179 50.7527 44.7519C50.7115 43.9859 50.3779 43.2649 49.8206 42.7377C49.2634 42.2105 48.525 41.9174 47.7578 41.9188H47.6537C47.2613 41.9316 46.8753 42.022 46.518 42.1845C46.1606 42.3471 45.8389 42.5787 45.5713 42.866C45.3038 43.1533 45.0956 43.4907 44.9589 43.8587C44.8221 44.2267 44.7595 44.6181 44.7745 45.0104C44.8266 45.8104 45.1474 46.5042 45.6287 46.9833C43.8162 50.5542 41.0433 53.1667 36.8849 55.3521C34.0599 56.8458 31.1266 57.3771 28.1974 57.0042C25.7974 56.6854 23.9308 55.6188 22.7599 53.8583C21.0516 51.2479 20.8933 48.4208 22.3328 45.5979C23.3453 43.5708 24.9433 42.0771 25.9578 41.3333C25.6831 40.4387 25.4516 39.5314 25.2641 38.6146C17.5349 44.2104 18.3349 51.7813 20.6808 55.3521C22.4391 58.0188 26.0099 59.6708 29.9537 59.6708C31.0317 59.6777 32.1065 59.5518 33.1537 59.2958C39.9766 57.9625 45.1474 53.9125 48.0787 47.8896Z" fill="#FF6E40" stroke="#FF6E40" stroke-width="0.435" stroke-linejoin="round"/>
<path d="M57.4601 41.2792C53.4101 36.5354 47.4392 33.925 40.6163 33.925H39.7622C39.5165 33.4437 39.1428 33.0395 38.6823 32.7568C38.2217 32.4741 37.6921 32.324 37.1517 32.3229H37.0455C36.6529 32.3358 36.2668 32.4262 35.9093 32.5889C35.5518 32.7516 35.23 32.9833 34.9624 33.2709C34.6948 33.5584 34.4867 33.896 34.3501 34.2643C34.2135 34.6325 34.151 35.0242 34.1663 35.4167C34.1964 36.1888 34.524 36.9194 35.0804 37.4556C35.6368 37.9919 36.379 38.2922 37.1517 38.2937H37.2559C37.8178 38.2671 38.3609 38.0831 38.8232 37.7626C39.2856 37.4421 39.6485 36.9981 39.8705 36.4812H40.8288C44.8809 36.4812 48.7184 37.6542 52.183 39.9458C54.8497 41.7062 56.7663 43.9979 57.833 46.7708C58.7392 49.0083 58.6872 51.1937 57.7288 53.0604C56.2351 55.8854 53.7288 57.4312 50.4247 57.4312C48.626 57.4091 46.8497 57.0287 45.1997 56.3125C44.6142 56.8458 43.5476 57.6979 42.8017 58.2292C45.0934 59.2979 47.4392 59.8833 49.6767 59.8833C54.7955 59.8833 58.5809 57.0583 60.0205 54.2333C61.5663 51.1417 61.458 45.8104 57.4601 41.2792Z" fill="#FF6E40" stroke="#FF6E40" stroke-width="0.435" stroke-linejoin="round"/>
<path d="M30.3814 48.7958C30.411 49.5684 30.7383 50.2995 31.2948 50.8362C31.8513 51.3728 32.5938 51.6734 33.3669 51.675H33.4731C33.8655 51.6621 34.2515 51.5718 34.6088 51.4092C34.9662 51.2467 35.2879 51.0151 35.5555 50.7278C35.823 50.4405 36.0312 50.1031 36.1679 49.7351C36.3047 49.3671 36.3673 48.9756 36.3523 48.5833C36.3227 47.8108 35.9954 47.0797 35.4389 46.543C34.8825 46.0063 34.14 45.7058 33.3669 45.7042H33.2606C33.1544 45.7042 32.9939 45.7042 32.8856 45.7562C30.7023 42.1312 29.796 38.1875 30.1148 33.9229C30.3294 30.725 31.3939 27.9521 33.2606 25.6604C34.8064 23.6875 37.7919 22.7292 39.8169 22.675C45.4669 22.5708 47.8669 29.6063 48.0252 32.4313C48.7189 32.5896 49.8919 32.9646 50.6919 33.2292C50.0523 24.5938 44.721 20.1167 39.6044 20.1167C34.8064 20.1167 30.3814 23.5813 28.6231 28.7C26.171 35.5229 27.7689 42.0792 30.7544 47.25C30.4577 47.7078 30.3261 48.2531 30.3814 48.7958Z" fill="#FF6E40" stroke="#FF6E40" stroke-width="0.435" stroke-linejoin="round"/>
<defs>
<linearGradient id="paint0_linear_2364_1007" x1="40" y1="0" x2="40" y2="80" gradientUnits="userSpaceOnUse">
<stop stop-color="#050A12"/>
<stop offset="1" stop-color="#251C31"/>
</linearGradient>
</defs>
</svg>
