<svg width="81" height="80" viewBox="0 0 81 80" fill="none" xmlns="http://www.w3.org/2000/svg">
<circle cx="40.332" cy="40" r="40" fill="url(#paint0_linear_2046_342)"/>
<circle cx="40.332" cy="40" r="39.5" stroke="#9A9B9C" stroke-opacity="0.3"/>
<g clip-path="url(#clip0_2046_342)">
<path d="M25.4414 33.7554H60.8561V59.9318H25.4414V33.7554Z" fill="white"/>
<path d="M17.918 39.7636V61.9711H62.333V17.5562H17.918V39.7636ZM53.7093 37.987C54.7731 38.2339 55.74 38.7903 56.4879 39.586C56.8997 40.0147 57.2576 40.492 57.5539 41.0073C57.5539 41.0641 55.6352 42.361 54.4662 43.0859C54.4235 43.1143 54.253 42.9295 54.0647 42.6488C53.8513 42.2806 53.548 41.9724 53.1833 41.7531C52.8186 41.5338 52.4042 41.4104 51.9789 41.3946C50.6323 41.3022 49.7653 42.0093 49.7724 43.1712C49.7616 43.4604 49.8278 43.7473 49.9643 44.0026C50.2592 44.6173 50.8099 44.9833 52.5368 45.7295C55.7169 47.0974 57.0778 48 57.9234 49.2827C58.8686 50.7039 59.0782 52.9993 58.4386 54.6977C57.728 56.5454 55.9869 57.7997 53.5246 58.2154C52.3999 58.3443 51.2636 58.3324 50.1419 58.1799C48.4228 57.8965 46.8392 57.0711 45.6223 55.8241C45.2136 55.3728 44.4177 54.1967 44.4675 54.1115C44.5969 54.0148 44.7335 53.9281 44.8761 53.8521L46.5212 52.9425L47.7968 52.2034L48.0633 52.5978C48.5132 53.241 49.0855 53.7892 49.7475 54.2109C51.1688 54.9571 53.1088 54.8541 54.0682 53.9906C54.3903 53.6743 54.5913 53.2549 54.6361 52.8056C54.6809 52.3564 54.5667 51.9056 54.3134 51.5318C53.9581 51.0379 53.2474 50.6222 51.2612 49.7552C48.9694 48.7674 47.9816 48.1563 47.0791 47.1827C46.5158 46.5401 46.0999 45.7822 45.8603 44.962C45.6818 44.0248 45.6554 43.065 45.7822 42.1194C46.2547 39.9058 47.9141 38.3601 50.3374 37.9018C51.4596 37.7631 52.5964 37.7943 53.7093 37.9942V37.987ZM43.2843 39.8489V41.6682H37.5174V58.0946H33.4277V41.6646H27.6466V39.888C27.6285 39.2753 27.6427 38.6622 27.6893 38.051C27.7177 38.019 31.2425 38.019 35.5063 38.019H43.2629L43.2843 39.8489Z" fill="#007ACC"/>
</g>
<defs>
<linearGradient id="paint0_linear_2046_342" x1="40.332" y1="0" x2="40.332" y2="80" gradientUnits="userSpaceOnUse">
<stop stop-color="#050A12"/>
<stop offset="1" stop-color="#251C31"/>
</linearGradient>
<clipPath id="clip0_2046_342">
<rect width="45.4809" height="45.4809" fill="white" transform="translate(17.3867 17.0552)"/>
</clipPath>
</defs>
</svg>
