<svg width="113" height="113" viewBox="0 0 113 113" fill="none" xmlns="http://www.w3.org/2000/svg">
<circle cx="56.2873" cy="56.2873" r="56.2873" fill="#251C31"/>
<g clip-path="url(#clip0_1964_453)">
<path d="M35.3359 47.5H85.1709V84.335H35.3359V47.5Z" fill="white"/>
<path d="M24.75 55.9551V87.2051H87.25V24.7051H24.75V55.9551ZM75.115 53.4551C76.6119 53.8025 77.9725 54.5854 79.025 55.7051C79.6044 56.3084 80.1081 56.98 80.525 57.7051C80.525 57.7851 77.825 59.6101 76.18 60.6301C76.12 60.6701 75.88 60.4101 75.615 60.0151C75.3147 59.4969 74.888 59.0633 74.3748 58.7546C73.8615 58.446 73.2785 58.2724 72.68 58.2501C70.785 58.1201 69.565 59.1151 69.575 60.7501C69.5598 61.1571 69.653 61.5609 69.845 61.9201C70.26 62.7851 71.035 63.3001 73.465 64.3501C77.94 66.2751 79.855 67.5451 81.045 69.3501C82.375 71.3501 82.67 74.5801 81.77 76.9701C80.77 79.5701 78.32 81.3351 74.855 81.9201C73.2724 82.1014 71.6734 82.0846 70.095 81.8701C67.6758 81.4713 65.4474 80.3098 63.735 78.5551C63.16 77.9201 62.04 76.2651 62.11 76.1451C62.2922 76.0091 62.4844 75.887 62.685 75.7801L65 74.5001L66.795 73.4601L67.17 74.0151C67.8031 74.9202 68.6084 75.6916 69.54 76.2851C71.54 77.3351 74.27 77.1901 75.62 75.9751C76.0733 75.5299 76.356 74.9398 76.4191 74.3076C76.4821 73.6753 76.3214 73.041 75.965 72.5151C75.465 71.8201 74.465 71.2351 71.67 70.0151C68.445 68.6251 67.055 67.7651 65.785 66.3951C64.9924 65.4908 64.4071 64.4243 64.07 63.2701C63.8188 61.9513 63.7816 60.6007 63.96 59.2701C64.625 56.1551 66.96 53.9801 70.37 53.3351C71.9492 53.14 73.5488 53.1838 75.115 53.4651V53.4551ZM60.445 56.0751V58.6351H52.33V81.7501H46.575V58.6301H38.44V56.1301C38.4145 55.268 38.4345 54.4051 38.5 53.5451C38.54 53.5001 43.5 53.5001 49.5 53.5001H60.415L60.445 56.0751Z" fill="#007ACC"/>
</g>
<defs>
<clipPath id="clip0_1964_453">
<rect width="64" height="64" fill="white" transform="translate(24 24)"/>
</clipPath>
</defs>
</svg>
