<svg width="80" height="80" viewBox="0 0 80 80" fill="none" xmlns="http://www.w3.org/2000/svg">
<circle cx="40" cy="40" r="40" fill="url(#paint0_linear_2046_381)"/>
<circle cx="40" cy="40" r="39.5" stroke="#9A9B9C" stroke-opacity="0.3"/>
<g clip-path="url(#clip0_2046_381)">
<mask id="mask0_2046_381" style="mask-type:alpha" maskUnits="userSpaceOnUse" x="13" y="13" width="54" height="53">
<path fill-rule="evenodd" clip-rule="evenodd" d="M50.7946 65.7301C51.2131 65.8932 51.6607 65.9685 52.1095 65.9512C52.5583 65.934 52.9987 65.8246 53.4035 65.6299L64.2303 60.42C64.7879 60.1516 65.2583 59.7312 65.5876 59.2073C65.9168 58.6833 66.0915 58.0771 66.0914 57.4583V22.1331C66.0915 21.5143 65.9169 20.9079 65.5877 20.3839C65.2584 19.8599 64.7879 19.4394 64.2303 19.171L53.4035 13.962C52.7917 13.6676 52.1035 13.5707 51.4342 13.6846C50.765 13.7986 50.1476 14.1177 49.6677 14.5979L28.9409 33.5072L19.9131 26.654C19.5058 26.345 19.0032 26.1882 18.4924 26.2108C17.9816 26.2335 17.4949 26.4342 17.1166 26.7781L14.221 29.412C13.9953 29.6172 13.815 29.8673 13.6915 30.1462C13.568 30.4251 13.5041 30.7267 13.5039 31.0318C13.5037 31.3368 13.5671 31.6385 13.6902 31.9176C13.8132 32.1967 13.9932 32.4471 14.2185 32.6527L22.0479 39.7955L14.2189 46.9388C13.9937 47.1444 13.8139 47.3947 13.6909 47.6738C13.5679 47.9528 13.5045 48.2545 13.5047 48.5594C13.505 48.8644 13.5688 49.166 13.6922 49.4448C13.8156 49.7237 13.9958 49.9738 14.2214 50.179L17.117 52.8129C17.4953 53.1569 17.982 53.3577 18.4928 53.3804C19.0036 53.4031 19.5062 53.2464 19.9135 52.9374L28.9413 46.0846L49.6681 64.9935C49.9889 65.3141 50.3722 65.5649 50.7946 65.7301ZM52.9524 27.8578L37.2259 39.7955L52.9528 51.7337L52.9524 27.8578Z" fill="white"/>
</mask>
<g mask="url(#mask0_2046_381)">
<path d="M64.2313 19.1797L53.3958 13.962C52.7838 13.6673 52.0953 13.5702 51.4257 13.6841C50.7561 13.798 50.1385 14.1174 49.6584 14.598L14.1874 46.9388C13.962 47.1443 13.782 47.3946 13.659 47.6737C13.5359 47.9528 13.4724 48.2545 13.4727 48.5595C13.4729 48.8645 13.5368 49.1661 13.6603 49.445C13.7838 49.7239 13.9642 49.9739 14.1899 50.1791L17.0871 52.813C17.4655 53.1574 17.9526 53.3584 18.4637 53.3811C18.9749 53.4039 19.4779 53.2469 19.8853 52.9375L62.6007 20.5326C64.0337 19.4455 66.092 20.4676 66.092 22.2663V22.1406C66.092 21.5219 65.9174 20.9157 65.5882 20.3919C65.259 19.868 64.7887 19.4481 64.2313 19.1797Z" fill="#0065A9"/>
<g filter="url(#filter0_d_2046_381)">
<path d="M64.2313 60.412L53.3958 65.6289C52.7839 65.9237 52.0955 66.021 51.4258 65.9072C50.7562 65.7934 50.1386 65.4741 49.6584 64.9937L14.1874 32.6525C13.962 32.447 13.782 32.1967 13.659 31.9176C13.5359 31.6385 13.4724 31.3368 13.4727 31.0318C13.4729 30.7268 13.5368 30.4252 13.6603 30.1463C13.7838 29.8674 13.9642 29.6174 14.1899 29.4122L17.0871 26.7783C17.4655 26.4339 17.9526 26.2329 18.4637 26.2102C18.9749 26.1874 19.4779 26.3444 19.8853 26.6538L62.6007 59.0583C64.0337 60.1458 66.092 59.1236 66.092 57.325V57.4507C66.092 58.0694 65.9174 58.6755 65.5882 59.1994C65.259 59.7233 64.7887 60.1436 64.2313 60.412Z" fill="#007ACC"/>
</g>
<g filter="url(#filter1_d_2046_381)">
<path d="M53.398 65.6299C52.7858 65.924 52.0973 66.0208 51.4277 65.9068C50.7582 65.7928 50.1405 65.4737 49.6602 64.9935C50.873 66.2063 52.9469 65.3472 52.9469 63.632V15.9587C52.9469 14.2434 50.873 13.3843 49.6602 14.5975C50.1405 14.1174 50.7582 13.7982 51.4277 13.6842C52.0973 13.5702 52.7858 13.667 53.398 13.9612L64.2314 19.1714C64.7892 19.4397 65.26 19.86 65.5895 20.3841C65.9189 20.9081 66.0937 21.5145 66.0937 22.1336V57.4583C66.0937 58.0773 65.9189 58.6837 65.5895 59.2078C65.26 59.7318 64.7892 60.1522 64.2314 60.4204L53.398 65.6299Z" fill="#1F9CF0"/>
</g>
<path opacity="0.25" fill-rule="evenodd" clip-rule="evenodd" d="M50.7949 65.5939C51.2133 65.7569 51.6607 65.8322 52.1095 65.8149C52.5582 65.7977 52.9986 65.6883 53.4033 65.4936L64.2301 60.2838C64.7877 60.0153 65.2582 59.5949 65.5875 59.0709C65.9167 58.5469 66.0913 57.9405 66.0912 57.3216V21.9969C66.0913 21.378 65.9167 20.7717 65.5875 20.2477C65.2582 19.7236 64.7877 19.3032 64.2301 19.0348L53.4033 13.8257C52.7915 13.5314 52.1033 13.4345 51.434 13.5484C50.7648 13.6623 50.1474 13.9815 49.6675 14.4617L28.9407 33.371L19.9129 26.5182C19.5056 26.2091 19.003 26.0523 18.4922 26.075C17.9814 26.0977 17.4947 26.2983 17.1164 26.6423L14.2208 29.2761C13.9952 29.4814 13.8149 29.7315 13.6915 30.0104C13.568 30.2893 13.5041 30.5909 13.5039 30.8959C13.5037 31.201 13.5671 31.5027 13.6901 31.7818C13.8131 32.0609 13.993 32.3112 14.2183 32.5168L22.0477 39.6593L14.2187 46.8021C13.9934 47.0077 13.8134 47.258 13.6904 47.5371C13.5673 47.8163 13.5039 48.118 13.5041 48.423C13.5044 48.728 13.5682 49.0297 13.6917 49.3086C13.8152 49.5875 13.9955 49.8376 14.2212 50.0428L17.1168 52.6767C17.4951 53.0207 17.9818 53.2214 18.4926 53.2442C19.0034 53.2669 19.506 53.1102 19.9133 52.8012L28.9415 45.948L49.6683 64.8572C49.989 65.1779 50.3726 65.4287 50.7949 65.5939ZM52.9526 27.7211L37.2257 39.6593L52.9526 51.597V27.7211Z" fill="url(#paint1_linear_2046_381)"/>
</g>
</g>
<defs>
<filter id="filter0_d_2046_381" x="5.13866" y="17.874" width="69.2891" height="56.4136" filterUnits="userSpaceOnUse" color-interpolation-filters="sRGB">
<feFlood flood-opacity="0" result="BackgroundImageFix"/>
<feColorMatrix in="SourceAlpha" type="matrix" values="0 0 0 0 0 0 0 0 0 0 0 0 0 0 0 0 0 0 127 0" result="hardAlpha"/>
<feOffset/>
<feGaussianBlur stdDeviation="4.167"/>
<feColorMatrix type="matrix" values="0 0 0 0 0 0 0 0 0 0 0 0 0 0 0 0 0 0 0.25 0"/>
<feBlend mode="overlay" in2="BackgroundImageFix" result="effect1_dropShadow_2046_381"/>
<feBlend mode="normal" in="SourceGraphic" in2="effect1_dropShadow_2046_381" result="shape"/>
</filter>
<filter id="filter1_d_2046_381" x="41.3262" y="5.3037" width="33.1016" height="68.9834" filterUnits="userSpaceOnUse" color-interpolation-filters="sRGB">
<feFlood flood-opacity="0" result="BackgroundImageFix"/>
<feColorMatrix in="SourceAlpha" type="matrix" values="0 0 0 0 0 0 0 0 0 0 0 0 0 0 0 0 0 0 127 0" result="hardAlpha"/>
<feOffset/>
<feGaussianBlur stdDeviation="4.167"/>
<feColorMatrix type="matrix" values="0 0 0 0 0 0 0 0 0 0 0 0 0 0 0 0 0 0 0.25 0"/>
<feBlend mode="overlay" in2="BackgroundImageFix" result="effect1_dropShadow_2046_381"/>
<feBlend mode="normal" in="SourceGraphic" in2="effect1_dropShadow_2046_381" result="shape"/>
</filter>
<linearGradient id="paint0_linear_2046_381" x1="40" y1="0" x2="40" y2="80" gradientUnits="userSpaceOnUse">
<stop stop-color="#050A12"/>
<stop offset="1" stop-color="#251C31"/>
</linearGradient>
<linearGradient id="paint1_linear_2046_381" x1="39.7975" y1="13.5012" x2="39.7975" y2="65.8174" gradientUnits="userSpaceOnUse">
<stop stop-color="white"/>
<stop offset="1" stop-color="white" stop-opacity="0"/>
</linearGradient>
<clipPath id="clip0_2046_381">
<rect width="52.5873" height="52.5873" fill="white" transform="translate(13.5039 13.502)"/>
</clipPath>
</defs>
</svg>
