<svg width="113" height="113" viewBox="0 0 113 113" fill="none" xmlns="http://www.w3.org/2000/svg">
<circle cx="56.2873" cy="56.2873" r="56.2873" fill="#251C31"/>
<g clip-path="url(#clip0_1966_455)">
<mask id="mask0_1966_455" style="mask-type:alpha" maskUnits="userSpaceOnUse" x="19" y="19" width="74" height="74">
<path fill-rule="evenodd" clip-rule="evenodd" d="M71.4749 92.4947C72.0637 92.7243 72.6935 92.8302 73.3251 92.8059C73.9566 92.7816 74.5765 92.6277 75.146 92.3537L90.3813 85.0225C91.1659 84.6448 91.8279 84.0533 92.2912 83.316C92.7545 82.5787 93.0003 81.7255 93.0002 80.8548V31.1459C93.0004 30.275 92.7547 29.4217 92.2914 28.6843C91.8281 27.9469 91.166 27.3553 90.3813 26.9776L75.146 19.6475C74.2851 19.2333 73.3167 19.0969 72.3749 19.2573C71.4331 19.4176 70.5644 19.8667 69.8891 20.5425L40.7227 47.1512L28.019 37.5075C27.4458 37.0726 26.7385 36.852 26.0198 36.8839C25.301 36.9158 24.616 37.1982 24.0837 37.6821L20.009 41.3885C19.6915 41.6773 19.4377 42.0292 19.264 42.4217C19.0902 42.8142 19.0003 43.2386 19 43.6678C18.9997 44.0971 19.0889 44.5217 19.2621 44.9144C19.4352 45.3072 19.6885 45.6594 20.0056 45.9487L31.0229 56L20.0061 66.0519C19.6892 66.3412 19.4361 66.6935 19.2631 67.0862C19.0901 67.4789 19.0008 67.9034 19.0012 68.3325C19.0015 68.7616 19.0914 69.186 19.265 69.5784C19.4386 69.9708 19.6923 70.3227 20.0096 70.6116L24.0842 74.3179C24.6166 74.8019 25.3015 75.0844 26.0202 75.1164C26.739 75.1484 27.4463 74.9279 28.0195 74.4931L40.7233 64.85L69.8897 91.4582C70.3411 91.9094 70.8804 92.2623 71.4749 92.4947ZM74.5112 39.2014L52.3811 56L74.5118 72.7992L74.5112 39.2014Z" fill="white"/>
</mask>
<g mask="url(#mask0_1966_455)">
<path d="M90.3837 26.9895L75.1362 19.6473C74.275 19.2325 73.3062 19.0959 72.3639 19.2562C71.4216 19.4166 70.5525 19.866 69.877 20.5422L19.9628 66.0517C19.6457 66.3408 19.3924 66.6931 19.2192 67.0858C19.046 67.4785 18.9567 67.903 18.957 68.3323C18.9574 68.7615 19.0473 69.1859 19.2211 69.5783C19.3949 69.9708 19.6487 70.3226 19.9663 70.6113L24.0432 74.3177C24.5757 74.8023 25.2611 75.0852 25.9804 75.1172C26.6997 75.1492 27.4075 74.9283 27.9809 74.4929L88.0891 28.8932C90.1056 27.3635 93.002 28.8019 93.002 31.3329V31.156C93.002 30.2854 92.7563 29.4325 92.2931 28.6953C91.8299 27.9581 91.1681 27.3672 90.3837 26.9895Z" fill="#0065A9"/>
<g filter="url(#filter0_d_1966_455)">
<path d="M90.3837 85.0107L75.1362 92.3517C74.2752 92.7666 73.3064 92.9035 72.3641 92.7434C71.4218 92.5832 70.5527 92.134 69.877 91.458L19.9628 45.948C19.6457 45.6588 19.3924 45.3065 19.2192 44.9138C19.046 44.5211 18.9567 44.0966 18.957 43.6674C18.9574 43.2382 19.0473 42.8137 19.2211 42.4213C19.3949 42.0288 19.6487 41.677 19.9663 41.3883L24.0432 37.6819C24.5757 37.1973 25.2611 36.9144 25.9804 36.8824C26.6997 36.8504 27.4075 37.0713 27.9809 37.5068L88.0891 83.1058C90.1056 84.6361 93.002 83.1977 93.002 80.6667V80.8436C93.002 81.7142 92.7563 82.5672 92.2931 83.3043C91.8299 84.0415 91.1681 84.633 90.3837 85.0107Z" fill="#007ACC"/>
</g>
<g filter="url(#filter1_d_1966_455)">
<path d="M75.1387 92.3534C74.2772 92.7674 73.3084 92.9035 72.3662 92.7431C71.424 92.5827 70.5549 92.1336 69.8789 91.4579C71.5855 93.1645 74.5039 91.9557 74.5039 89.542V22.4569C74.5039 20.0433 71.5855 18.8344 69.8789 20.5416C70.5549 19.8659 71.424 19.4168 72.3662 19.2564C73.3084 19.0959 74.2772 19.2321 75.1387 19.6461L90.3833 26.9779C91.1683 27.3554 91.8307 27.9469 92.2944 28.6843C92.758 29.4217 93.0039 30.2751 93.0039 31.1462V80.8545C93.0039 81.7256 92.758 82.5789 92.2944 83.3163C91.8307 84.0538 91.1683 84.6453 90.3833 85.0228L75.1387 92.3534Z" fill="#1F9CF0"/>
</g>
<path opacity="0.25" fill-rule="evenodd" clip-rule="evenodd" d="M71.4752 92.3028C72.064 92.5323 72.6937 92.6382 73.3251 92.6139C73.9565 92.5896 74.5763 92.4357 75.1457 92.1618L90.381 84.8306C91.1657 84.4528 91.8278 83.8612 92.2911 83.1238C92.7544 82.3864 93.0001 81.5332 92.9999 80.6623V30.954C93.0001 30.0831 92.7544 29.2298 92.2911 28.4924C91.8278 27.755 91.1657 27.1634 90.381 26.7857L75.1457 19.4556C74.2848 19.0414 73.3164 18.905 72.3746 19.0654C71.4328 19.2257 70.5641 19.6748 69.8888 20.3506L40.7224 46.9593L28.0187 37.3162C27.4455 36.8813 26.7383 36.6607 26.0195 36.6926C25.3007 36.7245 24.6158 37.0069 24.0834 37.4908L20.0088 41.1972C19.6913 41.486 19.4376 41.8379 19.2639 42.2304C19.0902 42.6229 19.0003 43.0473 19 43.4765C18.9997 43.9057 19.0889 44.3303 19.262 44.723C19.4351 45.1158 19.6883 45.4681 20.0053 45.7574L31.0226 55.8081L20.0059 65.8594C19.6888 66.1487 19.4355 66.501 19.2624 66.8937C19.0892 67.2865 19 67.7111 19.0003 68.1403C19.0006 68.5695 19.0905 68.994 19.2643 69.3865C19.438 69.7789 19.6918 70.1309 20.0093 70.4197L24.084 74.126C24.6163 74.6101 25.3012 74.8926 26.02 74.9245C26.7387 74.9565 27.446 74.736 28.0193 74.3012L40.7236 64.6575L69.89 91.2663C70.3412 91.7175 70.8809 92.0704 71.4752 92.3028ZM74.5115 39.009L52.3809 55.8081L74.5115 72.6067V39.009Z" fill="url(#paint0_linear_1966_455)"/>
</g>
</g>
<defs>
<filter id="filter0_d_1966_455" x="10.623" y="28.5454" width="90.7149" height="72.5972" filterUnits="userSpaceOnUse" color-interpolation-filters="sRGB">
<feFlood flood-opacity="0" result="BackgroundImageFix"/>
<feColorMatrix in="SourceAlpha" type="matrix" values="0 0 0 0 0 0 0 0 0 0 0 0 0 0 0 0 0 0 127 0" result="hardAlpha"/>
<feOffset/>
<feGaussianBlur stdDeviation="4.167"/>
<feColorMatrix type="matrix" values="0 0 0 0 0 0 0 0 0 0 0 0 0 0 0 0 0 0 0.25 0"/>
<feBlend mode="overlay" in2="BackgroundImageFix" result="effect1_dropShadow_1966_455"/>
<feBlend mode="normal" in="SourceGraphic" in2="effect1_dropShadow_1966_455" result="shape"/>
</filter>
<filter id="filter1_d_1966_455" x="61.5449" y="10.8569" width="39.793" height="90.2857" filterUnits="userSpaceOnUse" color-interpolation-filters="sRGB">
<feFlood flood-opacity="0" result="BackgroundImageFix"/>
<feColorMatrix in="SourceAlpha" type="matrix" values="0 0 0 0 0 0 0 0 0 0 0 0 0 0 0 0 0 0 127 0" result="hardAlpha"/>
<feOffset/>
<feGaussianBlur stdDeviation="4.167"/>
<feColorMatrix type="matrix" values="0 0 0 0 0 0 0 0 0 0 0 0 0 0 0 0 0 0 0.25 0"/>
<feBlend mode="overlay" in2="BackgroundImageFix" result="effect1_dropShadow_1966_455"/>
<feBlend mode="normal" in="SourceGraphic" in2="effect1_dropShadow_1966_455" result="shape"/>
</filter>
<linearGradient id="paint0_linear_1966_455" x1="55.9999" y1="18.9989" x2="55.9999" y2="92.6173" gradientUnits="userSpaceOnUse">
<stop stop-color="white"/>
<stop offset="1" stop-color="white" stop-opacity="0"/>
</linearGradient>
<clipPath id="clip0_1966_455">
<rect width="74" height="74" fill="white" transform="translate(19 19)"/>
</clipPath>
</defs>
</svg>
