<svg width="113" height="113" viewBox="0 0 113 113" fill="none" xmlns="http://www.w3.org/2000/svg">
<circle cx="56.2873" cy="56.2873" r="56.2873" fill="#251C31"/>
<g clip-path="url(#clip0_1964_448)">
<path d="M75.6562 19H36.3438C26.7651 19 19 26.7651 19 36.3438V75.6562C19 85.2349 26.7651 93 36.3438 93H75.6562C85.2349 93 93 85.2349 93 75.6562V36.3438C93 26.7651 85.2349 19 75.6562 19Z" fill="#0073AA"/>
<path d="M31.2031 55.9984C31.2031 65.8135 36.9072 74.2958 45.1784 78.3155L33.35 45.907C31.9321 49.0822 31.2005 52.521 31.2031 55.9984ZM72.7397 54.7471C72.7397 51.6827 71.6389 49.5604 70.6949 47.9084C69.4377 45.8659 68.2595 44.1362 68.2595 42.0936C68.2595 39.8141 69.9884 37.6924 72.4234 37.6924C72.5336 37.6924 72.6376 37.706 72.7449 37.712C68.3332 33.6704 62.4557 31.2026 55.9998 31.2026C47.3372 31.2026 39.7154 35.6473 35.2818 42.3795C35.8634 42.3969 36.4117 42.4093 36.8774 42.4093C39.4712 42.4093 43.486 42.0942 43.486 42.0942C44.8226 42.0156 44.9804 43.9789 43.645 44.137C43.645 44.137 42.3017 44.2951 40.8069 44.3735L49.8367 71.2326L55.2632 54.9575L51.3999 44.3726C50.0647 44.2943 48.7998 44.1362 48.7998 44.1362C47.4635 44.0578 47.6201 42.0147 48.9565 42.0936C48.9565 42.0936 53.0513 42.4081 55.4879 42.4081C58.0813 42.4081 62.0964 42.0936 62.0964 42.0936C63.4342 42.0147 63.5911 43.978 62.2554 44.1362C62.2554 44.1362 60.9092 44.2943 59.4174 44.3726L68.3786 71.0282L70.8518 62.7633C71.9239 59.3333 72.7397 56.8699 72.7397 54.7471Z" fill="white"/>
<path d="M56.436 58.1673L48.9961 79.7863C51.2707 80.4563 53.6297 80.7965 56.0009 80.7966C58.8055 80.7976 61.5898 80.3223 64.2352 79.3909C64.1664 79.2825 64.1074 79.1681 64.0588 79.0492L56.436 58.1673ZM77.759 44.1016C77.8717 44.9467 77.9276 45.7985 77.926 46.6511C77.926 49.1674 77.456 51.9961 76.0405 55.5331L68.4662 77.4322C75.8381 73.1333 80.7967 65.1468 80.7967 55.9988C80.797 51.6874 79.696 47.6333 77.759 44.1016Z" fill="white"/>
<path d="M55.9994 27.0938C40.0611 27.0938 27.0938 40.0602 27.0938 55.9983C27.0938 71.9383 40.0611 84.9042 55.9994 84.9042C71.9369 84.9042 84.9062 71.9383 84.9062 55.9983C84.9057 40.0602 71.9369 27.0938 55.9994 27.0938ZM55.9994 83.5795C40.7918 83.5795 28.4191 71.2064 28.4191 55.9983C28.4191 40.791 40.7916 28.4191 55.9994 28.4191C71.2061 28.4191 83.578 40.791 83.578 55.9983C83.578 71.2064 71.2061 83.5795 55.9994 83.5795Z" fill="white"/>
</g>
<defs>
<clipPath id="clip0_1964_448">
<rect width="74" height="74" fill="white" transform="translate(19 19)"/>
</clipPath>
</defs>
</svg>
