<svg width="116" height="120" viewBox="0 0 116 120" fill="none" xmlns="http://www.w3.org/2000/svg">
<ellipse cx="58" cy="60" rx="58" ry="60" fill="#251C31"/>
<g clip-path="url(#clip0_2001_266)">
<path d="M96 60C96 39.0133 78.9867 22 58 22C37.0133 22 20 39.0133 20 60C20 78.9668 33.8961 94.6878 52.0625 97.5384V70.9844H42.4141V60H52.0625V51.6281C52.0625 42.1044 57.7358 36.8438 66.4158 36.8438C70.5733 36.8438 74.9219 37.5859 74.9219 37.5859V46.9375H70.1303C65.4097 46.9375 63.9375 49.8668 63.9375 52.872V60H74.4766L72.7918 70.9844H63.9375V97.5384C82.1039 94.6878 96 78.967 96 60Z" fill="#1877F2"/>
<path d="M72.7918 70.9844L74.4766 60H63.9375V52.872C63.9375 49.8665 65.4097 46.9375 70.1303 46.9375H74.9219V37.5859C74.9219 37.5859 70.5733 36.8438 66.4155 36.8438C57.7358 36.8438 52.0625 42.1044 52.0625 51.6281V60H42.4141V70.9844H52.0625V97.5384C54.0267 97.8461 56.0119 98.0005 58 98C59.9881 98.0005 61.9733 97.8461 63.9375 97.5384V70.9844H72.7918Z" fill="white"/>
</g>
<defs>
<clipPath id="clip0_2001_266">
<rect width="76" height="76" fill="white" transform="translate(20 22)"/>
</clipPath>
</defs>
</svg>
