<svg width="116" height="120" viewBox="0 0 116 120" fill="none" xmlns="http://www.w3.org/2000/svg">
<ellipse cx="58" cy="60" rx="58" ry="60" fill="url(#paint0_linear_2001_266)"/>
<path d="M115.5 60C115.5 92.8771 89.7405 119.5 58 119.5C26.2595 119.5 0.5 92.8771 0.5 60C0.5 27.1229 26.2595 0.5 58 0.5C89.7405 0.5 115.5 27.1229 115.5 60Z" stroke="#9A9B9C" stroke-opacity="0.3"/>
<g clip-path="url(#clip0_2001_266)">
<path d="M96 60C96 39.0133 78.9867 22 58 22C37.0133 22 20 39.0133 20 60C20 78.9668 33.8961 94.6878 52.0625 97.5384L52.0625 70.9844L42.4141 70.9844L42.4141 60L52.0625 60L52.0625 51.6281C52.0625 42.1044 57.7358 36.8438 66.4158 36.8438C70.5733 36.8438 74.9219 37.5859 74.9219 37.5859L74.9219 46.9375L70.1303 46.9375C65.4097 46.9375 63.9375 49.8668 63.9375 52.872L63.9375 60L74.4766 60L72.7918 70.9844L63.9375 70.9844L63.9375 97.5384C82.1039 94.6878 96 78.967 96 60Z" fill="#1877F2"/>
<path d="M72.7918 70.9844L74.4766 60L63.9375 60L63.9375 52.872C63.9375 49.8665 65.4097 46.9375 70.1303 46.9375L74.9219 46.9375L74.9219 37.5859C74.9219 37.5859 70.5732 36.8438 66.4155 36.8438C57.7358 36.8438 52.0625 42.1044 52.0625 51.6281L52.0625 60L42.4141 60L42.4141 70.9844L52.0625 70.9844L52.0625 97.5384C54.0267 97.8461 56.0119 98.0005 58 98C59.9881 98.0005 61.9733 97.8461 63.9375 97.5384L63.9375 70.9844L72.7918 70.9844Z" fill="white"/>
</g>
<defs>
<linearGradient id="paint0_linear_2001_266" x1="58" y1="0" x2="58" y2="120" gradientUnits="userSpaceOnUse">
<stop stop-color="#050A12"/>
<stop offset="1" stop-color="#251C31"/>
</linearGradient>
<clipPath id="clip0_2001_266">
<rect width="76" height="76" fill="white" transform="translate(20 22)"/>
</clipPath>
</defs>
</svg>
