<svg width="116" height="121" viewBox="0 0 116 121" fill="none" xmlns="http://www.w3.org/2000/svg">
<ellipse cx="58" cy="60.188" rx="58" ry="60" fill="url(#paint0_linear_2001_351)"/>
<path d="M115.5 60.188C115.5 93.065 89.7405 119.688 58 119.688C26.2595 119.688 0.5 93.065 0.5 60.188C0.5 27.3109 26.2595 0.687988 58 0.687989C89.7405 0.687989 115.5 27.3109 115.5 60.188Z" stroke="#9A9B9C" stroke-opacity="0.3"/>
<path fill-rule="evenodd" clip-rule="evenodd" d="M58.1336 25.812C38.5943 25.812 22.75 41.6528 22.75 61.1956C22.75 76.8296 32.8885 90.0923 46.9475 94.7716C48.7152 95.0997 49.3645 94.004 49.3645 93.0694C49.3645 92.2257 49.3316 89.4384 49.3164 86.4817C39.4727 88.6222 37.3955 82.3069 37.3955 82.3069C35.7859 78.2171 33.4668 77.1296 33.4668 77.1296C30.2559 74.9335 33.7088 74.9792 33.7088 74.9792C37.2613 75.2282 39.1328 78.6255 39.1328 78.6255C42.2887 84.0337 47.4104 82.4704 49.4295 81.5669C49.7471 79.28 50.6641 77.7185 51.676 76.8349C43.8168 75.9413 35.5545 72.9067 35.5545 59.3487C35.5545 55.4856 36.9373 52.3292 39.2008 49.8507C38.8328 48.9601 37.6217 45.3612 39.543 40.4874C39.543 40.4874 42.5137 39.5364 49.2754 44.1144C52.0984 43.3298 55.126 42.9355 58.1336 42.922C61.1395 42.9355 64.1688 43.3286 66.9971 44.1132C73.7506 39.5353 76.7178 40.4862 76.7178 40.4862C78.6438 45.3595 77.4326 48.9589 77.0652 49.8495C79.334 52.328 80.7068 55.4845 80.7068 59.3476C80.7068 72.9378 72.4293 75.9296 64.5502 76.8062C65.8199 77.9042 66.9508 80.0581 66.9508 83.3587C66.9508 88.0931 66.9098 91.9034 66.9098 93.0689C66.9098 94.0105 67.5473 95.1138 69.3402 94.7663C83.391 90.0823 93.5178 76.8237 93.5178 61.1956C93.5172 41.654 77.6746 25.812 58.1336 25.812Z" fill="white"/>
<path d="M36.1514 76.6146C36.0734 76.7904 35.7969 76.8431 35.5449 76.723C35.2871 76.6081 35.1436 76.3685 35.2268 76.1921C35.3029 76.0105 35.5801 75.9607 35.8361 76.082C36.094 76.1974 36.2404 76.4394 36.1508 76.6152L36.1514 76.6146ZM37.5846 78.2136C37.4164 78.3701 37.0865 78.2974 36.8627 78.0496C36.6307 77.8035 36.5873 77.4736 36.759 77.3148C36.9336 77.1589 37.2535 77.2328 37.4856 77.4788C37.7164 77.7285 37.7621 78.0554 37.5852 78.2142L37.5846 78.2136ZM38.9803 80.2509C38.7635 80.4021 38.4084 80.2609 38.1893 79.9462C37.9725 79.631 37.9725 79.2531 38.1951 79.1025C38.4137 78.9513 38.7635 79.0878 38.9861 79.3996C39.2018 79.7189 39.2018 80.0974 38.9803 80.2509ZM40.891 82.2203C40.6977 82.4341 40.284 82.3767 39.9817 82.0855C39.6729 81.8001 39.5867 81.3941 39.7807 81.1808C39.9776 80.9663 40.393 81.0261 40.6971 81.3156C41.0059 81.6003 41.099 82.007 40.8922 82.2197L40.891 82.2203ZM43.5277 83.3634C43.4416 83.6406 43.0443 83.7665 42.643 83.6482C42.2428 83.5269 41.9809 83.2029 42.0629 82.9228C42.1449 82.6433 42.5451 82.5126 42.9488 82.6386C43.349 82.7593 43.6109 83.0816 43.5277 83.3634ZM46.424 83.5749C46.434 83.8667 46.0942 84.1081 45.674 84.114C45.2504 84.124 44.9076 83.8872 44.9035 83.6001C44.9035 83.3054 45.2363 83.0669 45.6594 83.0587C46.0795 83.0511 46.4246 83.2855 46.4246 83.5744L46.424 83.5749ZM49.1182 83.1167C49.1686 83.4009 48.8762 83.6933 48.4584 83.7712C48.0483 83.8474 47.6674 83.6705 47.6147 83.3886C47.5643 83.0968 47.8619 82.8044 48.2721 82.7288C48.6904 82.6568 49.0654 82.8279 49.1182 83.1167Z" fill="white"/>
<defs>
<linearGradient id="paint0_linear_2001_351" x1="58" y1="0.187988" x2="58" y2="120.188" gradientUnits="userSpaceOnUse">
<stop stop-color="#050A12"/>
<stop offset="1" stop-color="#251C31"/>
</linearGradient>
</defs>
</svg>
