<svg width="116" height="120" viewBox="0 0 116 120" fill="none" xmlns="http://www.w3.org/2000/svg">
<ellipse cx="58" cy="60" rx="58" ry="60" fill="#251C31"/>
<ellipse cx="58" cy="60" rx="58" ry="60" fill="#251C31"/>
<path fill-rule="evenodd" clip-rule="evenodd" d="M58.1336 25.624C38.5943 25.624 22.75 41.4648 22.75 61.0076C22.75 76.6416 32.8885 89.9043 46.9475 94.5836C48.7152 94.9117 49.3645 93.816 49.3645 92.8815C49.3645 92.0377 49.3316 89.2504 49.3164 86.2938C39.4727 88.4342 37.3955 82.119 37.3955 82.119C35.7859 78.0291 33.4668 76.9416 33.4668 76.9416C30.2559 74.7455 33.7088 74.7912 33.7088 74.7912C37.2613 75.0402 39.1328 78.4375 39.1328 78.4375C42.2887 83.8457 47.4104 82.2824 49.4295 81.3789C49.7471 79.092 50.6641 77.5305 51.676 76.6469C43.8168 75.7533 35.5545 72.7188 35.5545 59.1607C35.5545 55.2977 36.9373 52.1412 39.2008 49.6627C38.8328 48.7721 37.6217 45.1732 39.543 40.2994C39.543 40.2994 42.5137 39.3484 49.2754 43.9264C52.0984 43.1418 55.126 42.7475 58.1336 42.734C61.1395 42.7475 64.1687 43.1406 66.9971 43.9252C73.7506 39.3473 76.7178 40.2982 76.7178 40.2982C78.6438 45.1715 77.4326 48.7709 77.0652 49.6615C79.334 52.14 80.7068 55.2965 80.7068 59.1596C80.7068 72.7498 72.4293 75.7416 64.5502 76.6182C65.8199 77.7162 66.9508 79.8701 66.9508 83.1707C66.9508 87.9051 66.9098 91.7154 66.9098 92.8809C66.9098 93.8225 67.5473 94.9258 69.3402 94.5783C83.391 89.8943 93.5178 76.6357 93.5178 61.0076C93.5172 41.466 77.6746 25.624 58.1336 25.624Z" fill="white"/>
<path d="M36.1514 76.4266C36.0734 76.6024 35.7969 76.6551 35.5449 76.535C35.2871 76.4202 35.1436 76.1805 35.2268 76.0041C35.3029 75.8225 35.5801 75.7727 35.8361 75.894C36.094 76.0094 36.2404 76.2514 36.1508 76.4272L36.1514 76.4266ZM37.5846 78.0256C37.4164 78.1821 37.0865 78.1094 36.8627 77.8616C36.6307 77.6155 36.5873 77.2856 36.759 77.1268C36.9336 76.9709 37.2535 77.0448 37.4856 77.2909C37.7164 77.5405 37.7621 77.8674 37.5852 78.0262L37.5846 78.0256ZM38.9803 80.0629C38.7635 80.2141 38.4084 80.0729 38.1893 79.7582C37.9725 79.443 37.9725 79.0651 38.1951 78.9145C38.4137 78.7633 38.7635 78.8998 38.9861 79.2116C39.2018 79.5309 39.2018 79.9094 38.9803 80.0629ZM40.891 82.0323C40.6977 82.2461 40.284 82.1887 39.9817 81.8975C39.6729 81.6121 39.5867 81.2061 39.7807 80.9928C39.9776 80.7784 40.393 80.8381 40.6971 81.1276C41.0059 81.4123 41.099 81.819 40.8922 82.0317L40.891 82.0323ZM43.5277 83.1754C43.4416 83.4526 43.0443 83.5786 42.643 83.4602C42.2428 83.3389 41.9809 83.0149 42.0629 82.7348C42.1449 82.4553 42.5451 82.3247 42.9488 82.4506C43.349 82.5713 43.6109 82.8936 43.5277 83.1754ZM46.424 83.387C46.434 83.6788 46.0942 83.9202 45.674 83.926C45.2504 83.936 44.9076 83.6993 44.9035 83.4121C44.9035 83.1174 45.2363 82.8789 45.6594 82.8707C46.0795 82.8631 46.4246 83.0975 46.4246 83.3864L46.424 83.387ZM49.1182 82.9288C49.1686 83.2129 48.8762 83.5053 48.4584 83.5832C48.0483 83.6594 47.6674 83.4825 47.6147 83.2006C47.5643 82.9088 47.8619 82.6164 48.2721 82.5409C48.6904 82.4688 49.0654 82.6399 49.1182 82.9288Z" fill="white"/>
</svg>
