<svg width="116" height="120" viewBox="0 0 116 120" fill="none" xmlns="http://www.w3.org/2000/svg">
<ellipse cx="58" cy="60" rx="58" ry="60" fill="#251C31"/>
<g clip-path="url(#clip0_2001_324)">
<path d="M78.4219 23H38.5781C28.87 23 21 30.87 21 40.5781V80.4219C21 90.13 28.87 98 38.5781 98H78.4219C88.13 98 96 90.13 96 80.4219V40.5781C96 30.87 88.13 23 78.4219 23Z" fill="#242938"/>
<path d="M33.198 82.4809H42.5197V59.8423L29.2031 49.855V78.4859C29.2031 80.6964 30.9943 82.4809 33.198 82.4809Z" fill="#4285F4"/>
<path d="M74.4805 82.4809H83.8024C86.0129 82.4809 87.7974 80.6899 87.7974 78.4859V49.855L74.4805 59.8423" fill="#34A853"/>
<path d="M74.4805 42.5305V59.8423L87.7974 49.855V44.5277C87.7974 39.5873 82.1577 36.7707 78.2094 39.7338" fill="#FBBC04"/>
<path d="M42.5195 59.8421V42.5306L58.4995 54.5156L74.4795 42.5303V59.8421L58.4995 71.8274" fill="#EA4335"/>
<path d="M29.2031 44.5284V49.8549L42.5197 59.8425V42.531L38.7911 39.7343C34.836 36.7712 29.2031 39.5878 29.2031 44.5284Z" fill="#C5221F"/>
</g>
<defs>
<clipPath id="clip0_2001_324">
<rect width="75" height="75" fill="white" transform="translate(21 23)"/>
</clipPath>
</defs>
</svg>
