<svg width="116" height="121" viewBox="0 0 116 121" fill="none" xmlns="http://www.w3.org/2000/svg">
<ellipse cx="58" cy="60.144" rx="58" ry="60" fill="url(#paint0_linear_2001_324)"/>
<path d="M115.5 60.144C115.5 93.0211 89.7405 119.644 58 119.644C26.2595 119.644 0.5 93.0211 0.5 60.144C0.5 27.267 26.2595 0.644043 58 0.644043C89.7405 0.644043 115.5 27.267 115.5 60.144Z" stroke="#9A9B9C" stroke-opacity="0.3"/>
<g clip-path="url(#clip0_2001_324)">
<path d="M78.4219 23.144L38.5781 23.144C28.87 23.144 21 31.014 21 40.7222L21 80.5659C21 90.274 28.87 98.144 38.5781 98.144L78.4219 98.144C88.13 98.144 96 90.274 96 80.5659L96 40.7222C96 31.014 88.13 23.144 78.4219 23.144Z" fill="#242938"/>
<path d="M33.198 82.6249L42.5197 82.6249L42.5197 59.9863L29.2031 49.999L29.2031 78.63C29.2031 80.8404 30.9943 82.6249 33.198 82.6249Z" fill="#4285F4"/>
<path d="M74.4805 82.6249L83.8024 82.6249C86.0129 82.6249 87.7974 80.834 87.7974 78.63L87.7974 49.999L74.4805 59.9863" fill="#34A853"/>
<path d="M74.4805 42.6745L74.4805 59.9864L87.7974 49.9991L87.7974 44.6717C87.7974 39.7314 82.1577 36.9148 78.2094 39.8779" fill="#FBBC04"/>
<path d="M42.5195 59.9861L42.5195 42.6746L58.4995 54.6597L74.4795 42.6743L74.4795 59.9861L58.4995 71.9715" fill="#EA4335"/>
<path d="M29.2031 44.6725L29.2031 49.9989L42.5197 59.9865L42.5197 42.675L38.7911 39.8783C34.836 36.9153 29.2031 39.7319 29.2031 44.6725Z" fill="#C5221F"/>
</g>
<defs>
<linearGradient id="paint0_linear_2001_324" x1="58" y1="0.144043" x2="58" y2="120.144" gradientUnits="userSpaceOnUse">
<stop stop-color="#050A12"/>
<stop offset="1" stop-color="#251C31"/>
</linearGradient>
<clipPath id="clip0_2001_324">
<rect width="75" height="75" fill="white" transform="translate(21 23.144)"/>
</clipPath>
</defs>
</svg>
