<svg width="116" height="121" viewBox="0 0 116 121" fill="none" xmlns="http://www.w3.org/2000/svg">
<ellipse cx="58" cy="60.0972" rx="58" ry="60" fill="url(#paint0_linear_2001_312)"/>
<path d="M115.5 60.0972C115.5 92.9742 89.7405 119.597 58 119.597C26.2595 119.597 0.5 92.9742 0.5 60.0972C0.5 27.2201 26.2595 0.597168 58 0.597168C89.7405 0.597168 115.5 27.2201 115.5 60.0972Z" stroke="#9A9B9C" stroke-opacity="0.3"/>
<g clip-path="url(#clip0_2001_312)">
<path d="M78.4219 23.0972L38.5781 23.0972C28.87 23.0972 21 30.9672 21 40.6753L21 80.519C21 90.2272 28.87 98.0972 38.5781 98.0972L78.4219 98.0972C88.13 98.0972 96 90.2272 96 80.519L96 40.6753C96 30.9672 88.13 23.0972 78.4219 23.0972Z" fill="url(#paint1_radial_2001_312)"/>
<path d="M78.4219 23.0972L38.5781 23.0972C28.87 23.0972 21 30.9672 21 40.6753L21 80.519C21 90.2272 28.87 98.0972 38.5781 98.0972L78.4219 98.0972C88.13 98.0972 96 90.2272 96 80.519L96 40.6753C96 30.9672 88.13 23.0972 78.4219 23.0972Z" fill="url(#paint2_radial_2001_312)"/>
<path d="M58.5026 31.3003C50.5462 31.3003 49.5475 31.3352 46.4227 31.4772C43.3037 31.6202 41.1747 32.1139 39.312 32.8384C37.3849 33.5866 35.7504 34.5877 34.1221 36.2166C32.4923 37.8452 31.4912 39.4797 30.7406 41.406C30.0141 43.2692 29.5198 45.3991 29.3795 48.5166C29.2397 51.6417 29.2031 52.6407 29.2031 60.5975C29.2031 68.5542 29.2383 69.5497 29.3801 72.6745C29.5236 75.7935 30.0173 77.9225 30.7412 79.7852C31.49 81.7123 32.4911 83.3468 34.12 84.9751C35.748 86.6049 37.3825 87.6083 39.3082 88.3565C41.1724 89.0811 43.3017 89.5747 46.42 89.7177C49.5451 89.8598 50.543 89.8946 58.4991 89.8946C66.4564 89.8946 67.452 89.8598 70.5768 89.7177C73.6957 89.5747 75.827 89.0811 77.6912 88.3565C79.6175 87.6083 81.2496 86.6049 82.8773 84.9751C84.5071 83.3468 85.5079 81.7123 86.2588 79.786C86.9789 77.9225 87.4734 75.7929 87.6199 72.6751C87.7603 69.5503 87.7969 68.5542 87.7969 60.5975C87.7969 52.6407 87.7603 51.6423 87.6199 48.5172C87.4734 45.3982 86.9789 43.2695 86.2588 41.4068C85.5079 39.4797 84.5071 37.8452 82.8773 36.2166C81.2478 34.5871 79.6181 33.586 77.6895 32.8387C75.8218 32.1139 73.6916 31.6199 70.5727 31.4772C67.4476 31.3352 66.4526 31.3003 58.4936 31.3003L58.5026 31.3003ZM55.8744 36.5799C56.6546 36.5787 57.525 36.5799 58.5026 36.5799C66.3252 36.5799 67.2521 36.608 70.3412 36.7483C73.1977 36.879 74.748 37.3563 75.7808 37.7573C77.148 38.2882 78.1228 38.923 79.1476 39.9487C80.173 40.9741 80.8075 41.9506 81.3398 43.3179C81.7409 44.3491 82.2188 45.8995 82.3488 48.756C82.4892 51.8444 82.5196 52.772 82.5196 60.5907C82.5196 68.4095 82.4892 69.3373 82.3488 72.4255C82.2182 75.2819 81.7409 76.8323 81.3398 77.8639C80.809 79.2312 80.173 80.2047 79.1476 81.2295C78.1222 82.2549 77.1486 82.8895 75.7808 83.4206C74.7492 83.8234 73.1977 84.2995 70.3412 84.4302C67.2527 84.5705 66.3252 84.601 58.5026 84.601C50.6798 84.601 49.7525 84.5705 46.6644 84.4302C43.8079 84.2983 42.2575 83.8211 41.2239 83.42C39.8569 82.8889 38.8802 82.2543 37.8548 81.2289C36.8294 80.2035 36.1948 79.2294 35.6625 77.8615C35.2614 76.83 34.7836 75.2796 34.6535 72.4231C34.5132 69.3347 34.4851 68.4071 34.4851 60.5834C34.4851 52.76 34.5132 51.8371 34.6535 48.7486C34.7842 45.8922 35.2614 44.3418 35.6625 43.3091C36.1937 41.9418 36.8294 40.9653 37.8551 39.9399C38.8805 38.9146 39.8569 38.2797 41.2242 37.7477C42.2569 37.3448 43.8079 36.8687 46.6644 36.7375C49.367 36.6153 50.4144 36.5787 55.8744 36.5726L55.8744 36.5799ZM74.1413 41.4443C72.2004 41.4443 70.6257 43.0176 70.6257 44.9588C70.6257 46.8997 72.2004 48.4744 74.1413 48.4744C76.0822 48.4744 77.6569 46.8997 77.6569 44.9588C77.6569 43.0179 76.0822 41.4432 74.1413 41.4432L74.1413 41.4443ZM58.5026 45.5521C50.194 45.5521 43.4575 52.2886 43.4575 60.5975C43.4575 68.9063 50.194 75.6396 58.5026 75.6396C66.8115 75.6396 73.5457 68.9063 73.5457 60.5975C73.5457 52.2889 66.8109 45.5521 58.5021 45.5521L58.5026 45.5521ZM58.5026 50.8316C63.8959 50.8316 68.2685 55.2036 68.2685 60.5975C68.2685 65.9907 63.8959 70.3633 58.5026 70.3633C53.1091 70.3633 48.7371 65.9907 48.7371 60.5975C48.7371 55.2036 53.1091 50.8316 58.5026 50.8316Z" fill="white"/>
</g>
<defs>
<linearGradient id="paint0_linear_2001_312" x1="58" y1="0.097168" x2="58" y2="120.097" gradientUnits="userSpaceOnUse">
<stop stop-color="#050A12"/>
<stop offset="1" stop-color="#251C31"/>
</linearGradient>
<radialGradient id="paint1_radial_2001_312" cx="0" cy="0" r="1" gradientUnits="userSpaceOnUse" gradientTransform="translate(40.9219 103.874) rotate(-90) scale(74.3306 69.1333)">
<stop stop-color="#FFDD55"/>
<stop offset="0.1" stop-color="#FFDD55"/>
<stop offset="0.5" stop-color="#FF543E"/>
<stop offset="1" stop-color="#C837AB"/>
</radialGradient>
<radialGradient id="paint2_radial_2001_312" cx="0" cy="0" r="1" gradientUnits="userSpaceOnUse" gradientTransform="translate(8.43721 28.4998) rotate(78.681) scale(33.2262 136.959)">
<stop stop-color="#3771C8"/>
<stop offset="0.128" stop-color="#3771C8"/>
<stop offset="1" stop-color="#6600FF" stop-opacity="0"/>
</radialGradient>
<clipPath id="clip0_2001_312">
<rect width="75" height="75" fill="white" transform="translate(21 23.0972)"/>
</clipPath>
</defs>
</svg>
