<svg width="116" height="120" viewBox="0 0 116 120" fill="none" xmlns="http://www.w3.org/2000/svg">
<ellipse cx="58" cy="60" rx="58" ry="60" fill="#251C31"/>
<g clip-path="url(#clip0_2001_312)">
<path d="M78.4219 23H38.5781C28.87 23 21 30.87 21 40.5781V80.4219C21 90.13 28.87 98 38.5781 98H78.4219C88.13 98 96 90.13 96 80.4219V40.5781C96 30.87 88.13 23 78.4219 23Z" fill="url(#paint0_radial_2001_312)"/>
<path d="M78.4219 23H38.5781C28.87 23 21 30.87 21 40.5781V80.4219C21 90.13 28.87 98 38.5781 98H78.4219C88.13 98 96 90.13 96 80.4219V40.5781C96 30.87 88.13 23 78.4219 23Z" fill="url(#paint1_radial_2001_312)"/>
<path d="M58.5026 31.2031C50.5462 31.2031 49.5475 31.238 46.4227 31.3801C43.3037 31.523 41.1747 32.0167 39.312 32.7412C37.3849 33.4895 35.7504 34.4905 34.1221 36.1194C32.4923 37.748 31.4912 39.3825 30.7406 41.3088C30.0141 43.1721 29.5198 45.302 29.3795 48.4194C29.2397 51.5445 29.2031 52.5436 29.2031 60.5003C29.2031 68.457 29.2383 69.4525 29.3801 72.5773C29.5236 75.6963 30.0173 77.8253 30.7412 79.688C31.49 81.6151 32.4911 83.2496 34.12 84.8779C35.748 86.5077 37.3825 87.5111 39.3082 88.2594C41.1724 88.9839 43.3017 89.4775 46.42 89.6205C49.5451 89.7626 50.543 89.7975 58.4991 89.7975C66.4564 89.7975 67.452 89.7626 70.5768 89.6205C73.6957 89.4775 75.827 88.9839 77.6912 88.2594C79.6175 87.5111 81.2496 86.5077 82.8773 84.8779C84.5071 83.2496 85.5079 81.6151 86.2588 79.6889C86.9789 77.8253 87.4734 75.6957 87.6199 72.5779C87.7603 69.4531 87.7969 68.457 87.7969 60.5003C87.7969 52.5436 87.7603 51.5451 87.6199 48.42C87.4734 45.3011 86.9789 43.1724 86.2588 41.3097C85.5079 39.3825 84.5071 37.748 82.8773 36.1194C81.2478 34.4899 79.6181 33.4889 77.6895 32.7415C75.8218 32.0167 73.6916 31.5228 70.5727 31.3801C67.4476 31.238 66.4526 31.2031 58.4936 31.2031H58.5026ZM55.8744 36.4827C56.6546 36.4815 57.525 36.4827 58.5026 36.4827C66.3252 36.4827 67.2521 36.5108 70.3412 36.6512C73.1977 36.7818 74.748 37.2591 75.7808 37.6602C77.148 38.191 78.1228 38.8259 79.1476 39.8516C80.173 40.877 80.8075 41.8534 81.3398 43.2207C81.7409 44.252 82.2188 45.8023 82.3488 48.6588C82.4892 51.7473 82.5196 52.6748 82.5196 60.4936C82.5196 68.3123 82.4892 69.2401 82.3488 72.3283C82.2182 75.1848 81.7409 76.7352 81.3398 77.7667C80.809 79.134 80.173 80.1075 79.1476 81.1323C78.1222 82.1577 77.1486 82.7923 75.7808 83.3234C74.7492 83.7263 73.1977 84.2023 70.3412 84.333C67.2527 84.4733 66.3252 84.5038 58.5026 84.5038C50.6798 84.5038 49.7525 84.4733 46.6644 84.333C43.8079 84.2012 42.2575 83.7239 41.2239 83.3228C39.8569 82.7917 38.8802 82.1571 37.8548 81.1317C36.8294 80.1063 36.1948 79.1322 35.6625 77.7644C35.2614 76.7328 34.7836 75.1824 34.6535 72.326C34.5132 69.2375 34.4851 68.31 34.4851 60.4862C34.4851 52.6628 34.5132 51.7399 34.6535 48.6515C34.7842 45.795 35.2614 44.2446 35.6625 43.2119C36.1937 41.8446 36.8294 40.8682 37.8551 39.8428C38.8805 38.8174 39.8569 38.1825 41.2242 37.6505C42.2569 37.2477 43.8079 36.7716 46.6644 36.6403C49.367 36.5182 50.4144 36.4815 55.8744 36.4754V36.4827ZM74.1413 41.3472C72.2004 41.3472 70.6257 42.9204 70.6257 44.8616C70.6257 46.8025 72.2004 48.3772 74.1413 48.3772C76.0822 48.3772 77.6569 46.8025 77.6569 44.8616C77.6569 42.9207 76.0822 41.346 74.1413 41.346V41.3472ZM58.5026 45.4549C50.194 45.4549 43.4575 52.1914 43.4575 60.5003C43.4575 68.8092 50.194 75.5425 58.5026 75.5425C66.8115 75.5425 73.5457 68.8092 73.5457 60.5003C73.5457 52.1917 66.8109 45.4549 58.5021 45.4549H58.5026ZM58.5026 50.7345C63.8959 50.7345 68.2685 55.1064 68.2685 60.5003C68.2685 65.8936 63.8959 70.2661 58.5026 70.2661C53.1091 70.2661 48.7371 65.8936 48.7371 60.5003C48.7371 55.1064 53.1091 50.7345 58.5026 50.7345Z" fill="white"/>
</g>
<defs>
<radialGradient id="paint0_radial_2001_312" cx="0" cy="0" r="1" gradientUnits="userSpaceOnUse" gradientTransform="translate(40.9219 103.776) rotate(-90) scale(74.3306 69.1333)">
<stop stop-color="#FFDD55"/>
<stop offset="0.1" stop-color="#FFDD55"/>
<stop offset="0.5" stop-color="#FF543E"/>
<stop offset="1" stop-color="#C837AB"/>
</radialGradient>
<radialGradient id="paint1_radial_2001_312" cx="0" cy="0" r="1" gradientUnits="userSpaceOnUse" gradientTransform="translate(8.43721 28.4026) rotate(78.681) scale(33.2262 136.959)">
<stop stop-color="#3771C8"/>
<stop offset="0.128" stop-color="#3771C8"/>
<stop offset="1" stop-color="#6600FF" stop-opacity="0"/>
</radialGradient>
<clipPath id="clip0_2001_312">
<rect width="75" height="75" fill="white" transform="translate(21 23)"/>
</clipPath>
</defs>
</svg>
