<svg width="116" height="121" viewBox="0 0 116 121" fill="none" xmlns="http://www.w3.org/2000/svg">
<ellipse cx="58" cy="60.2388" rx="58" ry="60" fill="url(#paint0_linear_2001_376)"/>
<path d="M115.5 60.2388C115.5 93.1158 89.7405 119.739 58 119.739C26.2595 119.739 0.5 93.1158 0.5 60.2388C0.5 27.3617 26.2595 0.73877 58 0.73877C89.7405 0.73877 115.5 27.3617 115.5 60.2388Z" stroke="#9A9B9C" stroke-opacity="0.3"/>
<path d="M88.9687 24.9964L28.0312 24.9964C26.6486 24.9823 25.3169 25.5173 24.3282 26.484C23.3396 27.4506 22.7748 28.77 22.7578 30.1526L22.7578 91.3362C22.7779 92.7168 23.344 94.0331 24.3323 94.9973C25.3206 95.9614 26.6506 96.4948 28.0312 96.4807L88.9687 96.4807C90.3515 96.4917 91.6823 95.9549 92.6704 94.9876C93.6586 94.0203 94.2236 92.7013 94.2422 91.3186L94.2422 30.135C94.2175 28.7565 93.6498 27.4434 92.6623 26.4812C91.6748 25.5189 90.3475 24.9853 88.9687 24.9964Z" fill="#0076B2"/>
<path d="M33.3398 51.7915L43.9512 51.7915L43.9512 85.9341L33.3398 85.9341L33.3398 51.7915ZM38.6484 34.7993C39.8655 34.7993 41.0552 35.1603 42.0671 35.8366C43.079 36.5129 43.8675 37.4741 44.333 38.5986C44.7985 39.7232 44.92 40.9605 44.6821 42.1541C44.4443 43.3477 43.8577 44.4439 42.9967 45.3041C42.1357 46.1643 41.0389 46.7498 39.8451 46.9865C38.6513 47.2232 37.4141 47.1006 36.29 46.634C35.1659 46.1674 34.2054 45.378 33.5301 44.3655C32.8548 43.3529 32.4949 42.1629 32.4961 40.9458C32.4976 39.3151 33.1465 37.7517 34.3001 36.5992C35.4538 35.4467 37.0178 34.7993 38.6484 34.7993ZM50.6074 51.7915L60.7793 51.7915L60.7793 56.479L60.9199 56.479C62.3379 53.7954 65.7949 50.9653 70.957 50.9653C81.7031 50.9419 83.6953 58.0142 83.6953 67.1841L83.6953 85.9341L73.084 85.9341L73.084 69.3228C73.084 65.3677 73.0137 60.2759 67.5703 60.2759C62.127 60.2759 61.2012 64.5884 61.2012 69.0649L61.2012 85.9341L50.6074 85.9341L50.6074 51.7915Z" fill="white"/>
<defs>
<linearGradient id="paint0_linear_2001_376" x1="58" y1="0.23877" x2="58" y2="120.239" gradientUnits="userSpaceOnUse">
<stop stop-color="#050A12"/>
<stop offset="1" stop-color="#251C31"/>
</linearGradient>
</defs>
</svg>
