<svg width="116" height="120" viewBox="0 0 116 120" fill="none" xmlns="http://www.w3.org/2000/svg">
<ellipse cx="58" cy="60" rx="58" ry="60" fill="#251C31"/>
<path d="M88.9688 24.7576H28.0312C26.6486 24.7435 25.3169 25.2785 24.3282 26.2452C23.3396 27.2119 22.7748 28.5312 22.7578 29.9138V91.0974C22.7779 92.478 23.344 93.7944 24.3323 94.7585C25.3206 95.7227 26.6506 96.2561 28.0312 96.242H88.9688C90.3515 96.2529 91.6823 95.7161 92.6704 94.7489C93.6586 93.7816 94.2236 92.4625 94.2422 91.0799V29.8963C94.2175 28.5177 93.6498 27.2046 92.6623 26.2424C91.6748 25.2802 90.3475 24.7466 88.9688 24.7576Z" fill="#0076B2"/>
<path d="M33.3398 51.5527H43.9512V85.6953H33.3398V51.5527ZM38.6484 34.5605C39.8655 34.5605 41.0552 34.9215 42.0671 35.5978C43.079 36.2741 43.8675 37.2353 44.333 38.3598C44.7985 39.4844 44.92 40.7217 44.6821 41.9153C44.4443 43.1089 43.8577 44.2051 42.9967 45.0653C42.1357 45.9255 41.0389 46.511 39.8451 46.7477C38.6513 46.9845 37.4141 46.8618 36.29 46.3952C35.1659 45.9287 34.2054 45.1392 33.5301 44.1267C32.8548 43.1142 32.4949 41.9241 32.4961 40.707C32.4976 39.0763 33.1465 37.513 34.3001 36.3605C35.4538 35.2079 37.0178 34.5605 38.6484 34.5605ZM50.6074 51.5527H60.7793V56.2402H60.9199C62.3379 53.5566 65.7949 50.7266 70.957 50.7266C81.7031 50.7031 83.6953 57.7754 83.6953 66.9453V85.6953H73.084V69.084C73.084 65.1289 73.0137 60.0371 67.5703 60.0371C62.127 60.0371 61.2012 64.3496 61.2012 68.8262V85.6953H50.6074V51.5527Z" fill="white"/>
</svg>
