<svg width="116" height="120" viewBox="0 0 116 120" fill="none" xmlns="http://www.w3.org/2000/svg">
<ellipse cx="58" cy="60" rx="58" ry="60" fill="#251C31"/>
<g clip-path="url(#clip0_2001_376)">
<path d="M78.4219 23H38.5781C28.87 23 21 30.87 21 40.5781V80.4219C21 90.13 28.87 98 38.5781 98H78.4219C88.13 98 96 90.13 96 80.4219V40.5781C96 30.87 88.13 23 78.4219 23Z" fill="white"/>
<path d="M78.4219 23H38.5781C28.87 23 21 30.87 21 40.5781V80.4219C21 90.13 28.87 98 38.5781 98H78.4219C88.13 98 96 90.13 96 80.4219V40.5781C96 30.87 88.13 23 78.4219 23Z" fill="#1D9BF0"/>
<path d="M79.4684 49.7806C79.5006 50.2455 79.5006 50.7104 79.5006 51.1798C79.5006 65.4758 68.6174 81.9635 48.7169 81.9635V81.9547C42.8379 81.9632 37.0808 80.2795 32.1328 77.1046C32.9877 77.2074 33.8467 77.2587 34.708 77.2607C39.5807 77.2646 44.3131 75.6303 48.145 72.6204C45.8873 72.5778 43.6994 71.8307 41.8872 70.4836C40.0749 69.1365 38.7289 67.2568 38.0373 65.1072C39.6582 65.4197 41.3293 65.356 42.9217 64.9209C37.8744 63.9011 34.2431 59.4664 34.2431 54.316V54.1789C35.7477 55.017 37.4317 55.4814 39.1532 55.533C34.3995 52.3557 32.9341 46.0314 35.8046 41.0867C38.5208 44.4292 41.9097 47.1629 45.7513 49.1102C49.5929 51.0576 53.8011 52.1751 58.1027 52.39C57.6738 50.5439 57.7372 48.6174 58.2864 46.8034C58.8357 44.9894 59.8516 43.3514 61.2325 42.0532C65.5901 37.9569 72.4436 38.167 76.5398 42.5223C78.9627 42.0439 81.2862 41.1557 83.4103 39.8958C82.6026 42.4009 80.9124 44.5272 78.6542 45.8794C80.7989 45.6267 82.8934 45.0526 84.8672 44.1764C83.4153 46.3508 81.587 48.2484 79.4684 49.7806Z" fill="white"/>
</g>
<defs>
<clipPath id="clip0_2001_376">
<rect width="75" height="75" fill="white" transform="translate(21 23)"/>
</clipPath>
</defs>
</svg>
