<svg width="116" height="121" viewBox="0 0 116 121" fill="none" xmlns="http://www.w3.org/2000/svg">
<ellipse cx="58" cy="60.0469" rx="58" ry="60" fill="url(#paint0_linear_2001_302)"/>
<path d="M115.5 60.0469C115.5 92.9239 89.7405 119.547 58 119.547C26.2595 119.547 0.5 92.9239 0.5 60.0469C0.5 27.1698 26.2595 0.546875 58 0.546875C89.7405 0.546875 115.5 27.1698 115.5 60.0469Z" stroke="#9A9B9C" stroke-opacity="0.3"/>
<g clip-path="url(#clip0_2001_302)">
<path d="M22.5885 60.0978C22.5867 66.3993 24.2332 72.5522 27.3641 77.9754L22.2891 96.5051L41.2519 91.533C46.4967 94.3882 52.3732 95.8843 58.3449 95.8847L58.3606 95.8847C78.0742 95.8847 94.1216 79.8431 94.1301 60.126C94.1338 50.5716 90.4164 41.5873 83.6623 34.828C76.9094 28.0693 67.9283 24.3452 58.3591 24.3408C38.6431 24.3408 22.5969 40.3815 22.5888 60.0978" fill="url(#paint1_linear_2001_302)"/>
<path d="M21.311 60.0864C21.309 66.6146 23.0145 72.9876 26.257 78.605L21 97.7989L40.6427 92.6486C46.0549 95.5995 52.1485 97.1553 58.3491 97.1576L58.3651 97.1576C78.786 97.1576 95.4099 80.539 95.4186 60.1161C95.4221 50.2184 91.5709 40.9111 84.5756 33.9097C77.5794 26.9091 68.277 23.0509 58.3651 23.0469C37.9407 23.0469 21.3192 39.6632 21.311 60.0864ZM33.009 77.6376L32.2756 76.4733C29.1924 71.571 27.5651 65.9059 27.5674 60.0887C27.5738 43.1134 41.389 29.3027 58.3767 29.3027C66.6035 29.3062 74.3349 32.5132 80.15 38.3318C85.9648 44.1509 89.1645 51.8864 89.1625 60.1137C89.1549 77.089 75.3395 90.9015 58.3651 90.9015L58.3529 90.9015C52.8259 90.8986 47.4052 89.4143 42.6779 86.6094L41.5529 85.9422L29.8965 88.9983L33.009 77.6376Z" fill="url(#paint2_linear_2001_302)"/>
<path d="M49.1059 44.6017C48.4123 43.0602 47.6824 43.029 47.0228 43.002C46.4827 42.9788 45.8652 42.9805 45.2484 42.9805C44.6309 42.9805 43.6277 43.2128 42.7798 44.1386C41.9309 45.0654 39.5391 47.3049 39.5391 51.8599C39.5391 56.4148 42.8568 60.8171 43.3193 61.4354C43.7824 62.0526 49.7242 71.6991 59.1347 75.4101C66.9556 78.4942 68.5472 77.8808 70.2446 77.7261C71.9423 77.5721 75.7225 75.4872 76.4937 73.3253C77.2655 71.1636 77.2655 69.3107 77.0341 68.9235C76.8027 68.5378 76.1853 68.3061 75.2594 67.8433C74.3335 67.3805 69.7815 65.1404 68.933 64.8314C68.0841 64.5226 67.467 64.3686 66.8495 65.2956C66.2321 66.2212 64.4591 68.3061 63.9187 68.9235C63.3789 69.5424 62.8385 69.6194 61.9129 69.1564C60.9864 68.6918 58.0048 67.7154 54.4673 64.5616C51.7149 62.1075 49.8568 59.077 49.3167 58.15C48.7766 57.2244 49.2588 56.7227 49.7231 56.2613C50.1391 55.8465 50.6492 55.1802 51.1126 54.6398C51.5742 54.0991 51.7283 53.7133 52.037 53.0959C52.346 52.4779 52.1914 51.9372 51.9603 51.4741C51.7283 51.011 49.9292 46.4322 49.1059 44.6017Z" fill="white"/>
</g>
<defs>
<linearGradient id="paint0_linear_2001_302" x1="58" y1="0.046875" x2="58" y2="120.047" gradientUnits="userSpaceOnUse">
<stop stop-color="#050A12"/>
<stop offset="1" stop-color="#251C31"/>
</linearGradient>
<linearGradient id="paint1_linear_2001_302" x1="3614.34" y1="7240.77" x2="3614.34" y2="24.3408" gradientUnits="userSpaceOnUse">
<stop stop-color="#1FAF38"/>
<stop offset="1" stop-color="#60D669"/>
</linearGradient>
<linearGradient id="paint2_linear_2001_302" x1="3741.93" y1="7498.25" x2="3741.93" y2="23.0469" gradientUnits="userSpaceOnUse">
<stop stop-color="#F9F9F9"/>
<stop offset="1" stop-color="white"/>
</linearGradient>
<clipPath id="clip0_2001_302">
<rect width="74.4186" height="75" fill="white" transform="translate(21 23.0469)"/>
</clipPath>
</defs>
</svg>
