<svg width="116" height="120" viewBox="0 0 116 120" fill="none" xmlns="http://www.w3.org/2000/svg">
<ellipse cx="58" cy="60" rx="58" ry="60" fill="#251C31"/>
<g clip-path="url(#clip0_2001_302)">
<path d="M22.5885 60.0509C22.5867 66.3524 24.2332 72.5053 27.3641 77.9285L22.2891 96.4582L41.2519 91.4861C46.4967 94.3413 52.3732 95.8374 58.3449 95.8378H58.3606C78.0742 95.8378 94.1216 79.7963 94.13 60.0791C94.1338 50.5248 90.4164 41.5405 83.6623 34.7812C76.9094 28.0224 67.9283 24.2983 58.3591 24.2939C38.6431 24.2939 22.5969 40.3346 22.5888 60.0509" fill="url(#paint0_linear_2001_302)"/>
<path d="M21.311 60.0395C21.309 66.5677 23.0145 72.9407 26.257 78.5581L21 97.752L40.6427 92.6017C46.0549 95.5526 52.1485 97.1084 58.3491 97.1108H58.3651C78.786 97.1108 95.4099 80.4922 95.4186 60.0692C95.4221 50.1715 91.5709 40.8642 84.5756 33.8628C77.5794 26.8622 68.277 23.0041 58.3651 23C37.9407 23 21.3192 39.6163 21.311 60.0395ZM33.009 77.5907L32.2756 76.4265C29.1924 71.5241 27.5651 65.859 27.5674 60.0419C27.5738 43.0666 41.389 29.2558 58.3767 29.2558C66.6035 29.2593 74.3349 32.4663 80.15 38.2849C85.9648 44.1041 89.1645 51.8395 89.1625 60.0669C89.1549 77.0422 75.3395 90.8547 58.3651 90.8547H58.3529C52.8259 90.8517 47.4052 89.3674 42.6779 86.5625L41.5529 85.8954L29.8965 88.9515L33.009 77.5907Z" fill="url(#paint1_linear_2001_302)"/>
<path d="M49.1059 44.5548C48.4123 43.0133 47.6824 42.9822 47.0228 42.9551C46.4827 42.9319 45.8652 42.9336 45.2484 42.9336C44.6309 42.9336 43.6277 43.1659 42.7798 44.0918C41.9309 45.0185 39.5391 47.258 39.5391 51.813C39.5391 56.3679 42.8568 60.7703 43.3193 61.3886C43.7824 62.0057 49.7242 71.6522 59.1347 75.3633C66.9556 78.4473 68.5472 77.8339 70.2446 77.6793C71.9423 77.5252 75.7225 75.4403 76.4937 73.2784C77.2655 71.1168 77.2655 69.2639 77.0341 68.8766C76.8027 68.4909 76.1853 68.2592 75.2594 67.7964C74.3335 67.3336 69.7815 65.0935 68.933 64.7845C68.0841 64.4758 67.467 64.3217 66.8495 65.2487C66.2321 66.1743 64.4591 68.2592 63.9187 68.8766C63.3789 69.4955 62.8385 69.5726 61.9129 69.1095C60.9864 68.645 58.0048 67.6685 54.4673 64.5147C51.7149 62.0607 49.8568 59.0301 49.3167 58.1031C48.7766 57.1775 49.2588 56.6758 49.7231 56.2144C50.1391 55.7996 50.6492 55.1333 51.1126 54.5929C51.5742 54.0522 51.7283 53.6665 52.037 53.049C52.346 52.431 52.1914 51.8903 51.9603 51.4272C51.7283 50.9641 49.9292 46.3854 49.1059 44.5548Z" fill="white"/>
</g>
<defs>
<linearGradient id="paint0_linear_2001_302" x1="3614.34" y1="7240.72" x2="3614.34" y2="24.2939" gradientUnits="userSpaceOnUse">
<stop stop-color="#1FAF38"/>
<stop offset="1" stop-color="#60D669"/>
</linearGradient>
<linearGradient id="paint1_linear_2001_302" x1="3741.93" y1="7498.2" x2="3741.93" y2="23" gradientUnits="userSpaceOnUse">
<stop stop-color="#F9F9F9"/>
<stop offset="1" stop-color="white"/>
</linearGradient>
<clipPath id="clip0_2001_302">
<rect width="74.4186" height="75" fill="white" transform="translate(21 23)"/>
</clipPath>
</defs>
</svg>
